<svg width="101pt" height="216pt"
 viewBox="0.00 0.00 101.00 216.00" xmlns="http://www.w3.org/2000/svg" xmlns:xlink="http://www.w3.org/1999/xlink">
<g id="graph0" class="graph" transform="scale(0.318772 0.318772) rotate(0) translate(4 673.6)">
<polygon fill="none" stroke="none" points="-4,4 -4,-673.6 313.6,-673.6 313.6,4 -4,4"/>
<!-- w3_2 -->
<g id="node1" class="node">
<title>w3_2</title>
<polygon fill="SteelBlue" stroke="Black" points="165.6,-237.6 144,-237.6 144,-216 165.6,-216 165.6,-237.6"/>
</g>
<!-- w3_3 -->
<g id="node48" class="node">
<title>w3_3</title>
<polygon fill="SteelBlue" stroke="Black" points="237.6,-237.6 216,-237.6 216,-216 237.6,-216 237.6,-237.6"/>
</g>
<!-- w3_2&#45;&#45;w3_3 -->
<g id="edge44" class="edge">
<title>w3_2&#45;&#45;w3_3</title>
<path fill="none" stroke="SteelBlue" stroke-width="12" d="M166.05,-226.8C179.66,-226.8 202.4,-226.8 215.86,-226.8"/>
</g>
<!-- w1_4 -->
<g id="node2" class="node">
<title>w1_4</title>
<polygon fill="SteelBlue" stroke="Black" points="309.6,-93.6 288,-93.6 288,-72 309.6,-72 309.6,-93.6"/>
</g>
<!-- w2_4 -->
<g id="node13" class="node">
<title>w2_4</title>
<polygon fill="SteelBlue" stroke="Black" points="309.6,-165.6 288,-165.6 288,-144 309.6,-144 309.6,-165.6"/>
</g>
<!-- w1_4&#45;&#45;w2_4 -->
<g id="edge26" class="edge">
<title>w1_4&#45;&#45;w2_4</title>
<path fill="none" stroke="SteelBlue" stroke-width="12" d="M298.8,-94.05C298.8,-107.66 298.8,-130.4 298.8,-143.86"/>
</g>
<!-- w2_3 -->
<g id="node3" class="node">
<title>w2_3</title>
<polygon fill="SteelBlue" stroke="Black" points="237.6,-165.6 216,-165.6 216,-144 237.6,-144 237.6,-165.6"/>
</g>
<!-- w2_3&#45;&#45;w2_4 -->
<g id="edge27" class="edge">
<title>w2_3&#45;&#45;w2_4</title>
<path fill="none" stroke="SteelBlue" stroke-width="12" d="M238.05,-154.8C251.66,-154.8 274.4,-154.8 287.86,-154.8"/>
</g>
<!-- w4_0 -->
<g id="node4" class="node">
<title>w4_0</title>
<polygon fill="SteelBlue" stroke="Black" points="21.6,-309.6 0,-309.6 0,-288 21.6,-288 21.6,-309.6"/>
</g>
<!-- w5_0 -->
<g id="node41" class="node">
<title>w5_0</title>
<polygon fill="SteelBlue" stroke="Black" points="21.6,-381.6 0,-381.6 0,-360 21.6,-360 21.6,-381.6"/>
</g>
<!-- w4_0&#45;&#45;w5_0 -->
<g id="edge45" class="edge">
<title>w4_0&#45;&#45;w5_0</title>
<path fill="none" stroke="SteelBlue" stroke-width="12" d="M10.8,-310.05C10.8,-323.66 10.8,-346.4 10.8,-359.86"/>
</g>
<!-- w4_1 -->
<g id="node46" class="node">
<title>w4_1</title>
<polygon fill="SteelBlue" stroke="Black" points="93.6,-309.6 72,-309.6 72,-288 93.6,-288 93.6,-309.6"/>
</g>
<!-- w4_0&#45;&#45;w4_1 -->
<g id="edge46" class="edge">
<title>w4_0&#45;&#45;w4_1</title>
<path fill="none" stroke="SteelBlue" stroke-width="12" d="M22.05,-298.8C35.66,-298.8 58.4,-298.8 71.86,-298.8"/>
</g>
<!-- w5_4 -->
<g id="node5" class="node">
<title>w5_4</title>
<polygon fill="SteelBlue" stroke="Black" points="309.6,-381.6 288,-381.6 288,-360 309.6,-360 309.6,-381.6"/>
</g>
<!-- w6_4 -->
<g id="node12" class="node">
<title>w6_4</title>
<polygon fill="SteelBlue" stroke="Black" points="309.6,-453.6 288,-453.6 288,-432 309.6,-432 309.6,-453.6"/>
</g>
<!-- w5_4&#45;&#45;w6_4 -->
<g id="edge28" class="edge">
<title>w5_4&#45;&#45;w6_4</title>
<path fill="none" stroke="SteelBlue" stroke-width="12" d="M298.8,-382.05C298.8,-395.66 298.8,-418.4 298.8,-431.86"/>
</g>
<!-- w9_3 -->
<g id="node6" class="node">
<title>w9_3</title>
<polygon fill="SteelBlue" stroke="Black" points="237.6,-669.6 216,-669.6 216,-648 237.6,-648 237.6,-669.6"/>
</g>
<!-- w4_2 -->
<g id="node7" class="node">
<title>w4_2</title>
<polygon fill="SteelBlue" stroke="Black" points="165.6,-309.6 144,-309.6 144,-288 165.6,-288 165.6,-309.6"/>
</g>
<!-- w4_3 -->
<g id="node42" class="node">
<title>w4_3</title>
<polygon fill="SteelBlue" stroke="Black" points="237.6,-309.6 216,-309.6 216,-288 237.6,-288 237.6,-309.6"/>
</g>
<!-- w4_2&#45;&#45;w4_3 -->
<g id="edge11" class="edge">
<title>w4_2&#45;&#45;w4_3</title>
<path fill="none" stroke="SteelBlue" stroke-width="12" d="M166.05,-298.8C179.66,-298.8 202.4,-298.8 215.86,-298.8"/>
</g>
<!-- w0_3 -->
<g id="node8" class="node">
<title>w0_3</title>
<polygon fill="SteelBlue" stroke="Black" points="237.6,-21.6 216,-21.6 216,0 237.6,0 237.6,-21.6"/>
</g>
<!-- w0_4 -->
<g id="node30" class="node">
<title>w0_4</title>
<polygon fill="SteelBlue" stroke="Black" points="309.6,-21.6 288,-21.6 288,0 309.6,0 309.6,-21.6"/>
</g>
<!-- w0_3&#45;&#45;w0_4 -->
<g id="edge13" class="edge">
<title>w0_3&#45;&#45;w0_4</title>
<path fill="none" stroke="SteelBlue" stroke-width="12" d="M238.05,-10.8C251.66,-10.8 274.4,-10.8 287.86,-10.8"/>
</g>
<!-- w1_2 -->
<g id="node9" class="node">
<title>w1_2</title>
<polygon fill="SteelBlue" stroke="Black" points="165.6,-93.6 144,-93.6 144,-72 165.6,-72 165.6,-93.6"/>
</g>
<!-- w2_2 -->
<g id="node26" class="node">
<title>w2_2</title>
<polygon fill="SteelBlue" stroke="Black" points="165.6,-165.6 144,-165.6 144,-144 165.6,-144 165.6,-165.6"/>
</g>
<!-- w1_2&#45;&#45;w2_2 -->
<g id="edge33" class="edge">
<title>w1_2&#45;&#45;w2_2</title>
<path fill="none" stroke="SteelBlue" stroke-width="12" d="M154.8,-94.05C154.8,-107.66 154.8,-130.4 154.8,-143.86"/>
</g>
<!-- w1_0 -->
<g id="node10" class="node">
<title>w1_0</title>
<polygon fill="SteelBlue" stroke="Black" points="21.6,-93.6 0,-93.6 0,-72 21.6,-72 21.6,-93.6"/>
</g>
<!-- w2_0 -->
<g id="node15" class="node">
<title>w2_0</title>
<polygon fill="SteelBlue" stroke="Black" points="21.6,-165.6 0,-165.6 0,-144 21.6,-144 21.6,-165.6"/>
</g>
<!-- w1_0&#45;&#45;w2_0 -->
<g id="edge12" class="edge">
<title>w1_0&#45;&#45;w2_0</title>
<path fill="none" stroke="SteelBlue" stroke-width="12" d="M10.8,-94.05C10.8,-107.66 10.8,-130.4 10.8,-143.86"/>
</g>
<!-- w8_0 -->
<g id="node11" class="node">
<title>w8_0</title>
<polygon fill="SteelBlue" stroke="Black" points="21.6,-597.6 0,-597.6 0,-576 21.6,-576 21.6,-597.6"/>
</g>
<!-- w9_0 -->
<g id="node39" class="node">
<title>w9_0</title>
<polygon fill="SteelBlue" stroke="Black" points="21.6,-669.6 0,-669.6 0,-648 21.6,-648 21.6,-669.6"/>
</g>
<!-- w8_0&#45;&#45;w9_0 -->
<g id="edge43" class="edge">
<title>w8_0&#45;&#45;w9_0</title>
<path fill="none" stroke="SteelBlue" stroke-width="12" d="M10.8,-598.05C10.8,-611.66 10.8,-634.4 10.8,-647.86"/>
</g>
<!-- w7_4 -->
<g id="node21" class="node">
<title>w7_4</title>
<polygon fill="SteelBlue" stroke="Black" points="309.6,-525.6 288,-525.6 288,-504 309.6,-504 309.6,-525.6"/>
</g>
<!-- w6_4&#45;&#45;w7_4 -->
<g id="edge21" class="edge">
<title>w6_4&#45;&#45;w7_4</title>
<path fill="none" stroke="SteelBlue" stroke-width="12" d="M298.8,-454.05C298.8,-467.66 298.8,-490.4 298.8,-503.86"/>
</g>
<!-- w3_4 -->
<g id="node32" class="node">
<title>w3_4</title>
<polygon fill="SteelBlue" stroke="Black" points="309.6,-237.6 288,-237.6 288,-216 309.6,-216 309.6,-237.6"/>
</g>
<!-- w2_4&#45;&#45;w3_4 -->
<g id="edge25" class="edge">
<title>w2_4&#45;&#45;w3_4</title>
<path fill="none" stroke="SteelBlue" stroke-width="12" d="M298.8,-166.05C298.8,-179.66 298.8,-202.4 298.8,-215.86"/>
</g>
<!-- w8_4 -->
<g id="node14" class="node">
<title>w8_4</title>
<polygon fill="SteelBlue" stroke="Black" points="309.6,-597.6 288,-597.6 288,-576 309.6,-576 309.6,-597.6"/>
</g>
<!-- w2_1 -->
<g id="node18" class="node">
<title>w2_1</title>
<polygon fill="SteelBlue" stroke="Black" points="93.6,-165.6 72,-165.6 72,-144 93.6,-144 93.6,-165.6"/>
</g>
<!-- w2_0&#45;&#45;w2_1 -->
<g id="edge7" class="edge">
<title>w2_0&#45;&#45;w2_1</title>
<path fill="none" stroke="SteelBlue" stroke-width="12" d="M22.05,-154.8C35.66,-154.8 58.4,-154.8 71.86,-154.8"/>
</g>
<!-- w3_0 -->
<g id="node28" class="node">
<title>w3_0</title>
<polygon fill="SteelBlue" stroke="Black" points="21.6,-237.6 0,-237.6 0,-216 21.6,-216 21.6,-237.6"/>
</g>
<!-- w2_0&#45;&#45;w3_0 -->
<g id="edge37" class="edge">
<title>w2_0&#45;&#45;w3_0</title>
<path fill="none" stroke="SteelBlue" stroke-width="12" d="M10.8,-166.05C10.8,-179.66 10.8,-202.4 10.8,-215.86"/>
</g>
<!-- w9_1 -->
<g id="node16" class="node">
<title>w9_1</title>
<polygon fill="SteelBlue" stroke="Black" points="93.6,-669.6 72,-669.6 72,-648 93.6,-648 93.6,-669.6"/>
</g>
<!-- w9_2 -->
<g id="node33" class="node">
<title>w9_2</title>
<polygon fill="SteelBlue" stroke="Black" points="165.6,-669.6 144,-669.6 144,-648 165.6,-648 165.6,-669.6"/>
</g>
<!-- w9_1&#45;&#45;w9_2 -->
<g id="edge19" class="edge">
<title>w9_1&#45;&#45;w9_2</title>
<path fill="none" stroke="SteelBlue" stroke-width="12" d="M94.05,-658.8C107.66,-658.8 130.4,-658.8 143.86,-658.8"/>
</g>
<!-- w5_1 -->
<g id="node17" class="node">
<title>w5_1</title>
<polygon fill="SteelBlue" stroke="Black" points="93.6,-381.6 72,-381.6 72,-360 93.6,-360 93.6,-381.6"/>
</g>
<!-- w5_2 -->
<g id="node25" class="node">
<title>w5_2</title>
<polygon fill="SteelBlue" stroke="Black" points="165.6,-381.6 144,-381.6 144,-360 165.6,-360 165.6,-381.6"/>
</g>
<!-- w5_1&#45;&#45;w5_2 -->
<g id="edge23" class="edge">
<title>w5_1&#45;&#45;w5_2</title>
<path fill="none" stroke="SteelBlue" stroke-width="12" d="M94.05,-370.8C107.66,-370.8 130.4,-370.8 143.86,-370.8"/>
</g>
<!-- w2_1&#45;&#45;w2_2 -->
<g id="edge8" class="edge">
<title>w2_1&#45;&#45;w2_2</title>
<path fill="none" stroke="SteelBlue" stroke-width="12" d="M94.05,-154.8C107.66,-154.8 130.4,-154.8 143.86,-154.8"/>
</g>
<!-- w8_1 -->
<g id="node19" class="node">
<title>w8_1</title>
<polygon fill="SteelBlue" stroke="Black" points="93.6,-597.6 72,-597.6 72,-576 93.6,-576 93.6,-597.6"/>
</g>
<!-- w8_2 -->
<g id="node44" class="node">
<title>w8_2</title>
<polygon fill="SteelBlue" stroke="Black" points="165.6,-597.6 144,-597.6 144,-576 165.6,-576 165.6,-597.6"/>
</g>
<!-- w8_1&#45;&#45;w8_2 -->
<g id="edge9" class="edge">
<title>w8_1&#45;&#45;w8_2</title>
<path fill="none" stroke="SteelBlue" stroke-width="12" d="M94.05,-586.8C107.66,-586.8 130.4,-586.8 143.86,-586.8"/>
</g>
<!-- w7_1 -->
<g id="node20" class="node">
<title>w7_1</title>
<polygon fill="SteelBlue" stroke="Black" points="93.6,-525.6 72,-525.6 72,-504 93.6,-504 93.6,-525.6"/>
</g>
<!-- w7_2 -->
<g id="node34" class="node">
<title>w7_2</title>
<polygon fill="SteelBlue" stroke="Black" points="165.6,-525.6 144,-525.6 144,-504 165.6,-504 165.6,-525.6"/>
</g>
<!-- w7_1&#45;&#45;w7_2 -->
<g id="edge3" class="edge">
<title>w7_1&#45;&#45;w7_2</title>
<path fill="none" stroke="SteelBlue" stroke-width="12" d="M94.05,-514.8C107.66,-514.8 130.4,-514.8 143.86,-514.8"/>
</g>
<!-- w7_4&#45;&#45;w8_4 -->
<g id="edge1" class="edge">
<title>w7_4&#45;&#45;w8_4</title>
<path fill="none" stroke="SteelBlue" stroke-width="12" d="M298.8,-526.05C298.8,-539.66 298.8,-562.4 298.8,-575.86"/>
</g>
<!-- w7_0 -->
<g id="node22" class="node">
<title>w7_0</title>
<polygon fill="SteelBlue" stroke="Black" points="21.6,-525.6 0,-525.6 0,-504 21.6,-504 21.6,-525.6"/>
</g>
<!-- w7_0&#45;&#45;w8_0 -->
<g id="edge15" class="edge">
<title>w7_0&#45;&#45;w8_0</title>
<path fill="none" stroke="SteelBlue" stroke-width="12" d="M10.8,-526.05C10.8,-539.66 10.8,-562.4 10.8,-575.86"/>
</g>
<!-- w8_3 -->
<g id="node23" class="node">
<title>w8_3</title>
<polygon fill="SteelBlue" stroke="Black" points="237.6,-597.6 216,-597.6 216,-576 237.6,-576 237.6,-597.6"/>
</g>
<!-- w1_3 -->
<g id="node24" class="node">
<title>w1_3</title>
<polygon fill="SteelBlue" stroke="Black" points="237.6,-93.6 216,-93.6 216,-72 237.6,-72 237.6,-93.6"/>
</g>
<!-- w1_3&#45;&#45;w1_4 -->
<g id="edge39" class="edge">
<title>w1_3&#45;&#45;w1_4</title>
<path fill="none" stroke="SteelBlue" stroke-width="12" d="M238.05,-82.8C251.66,-82.8 274.4,-82.8 287.86,-82.8"/>
</g>
<!-- w5_3 -->
<g id="node45" class="node">
<title>w5_3</title>
<polygon fill="SteelBlue" stroke="Black" points="237.6,-381.6 216,-381.6 216,-360 237.6,-360 237.6,-381.6"/>
</g>
<!-- w5_2&#45;&#45;w5_3 -->
<g id="edge22" class="edge">
<title>w5_2&#45;&#45;w5_3</title>
<path fill="none" stroke="SteelBlue" stroke-width="12" d="M166.05,-370.8C179.66,-370.8 202.4,-370.8 215.86,-370.8"/>
</g>
<!-- w2_2&#45;&#45;w3_2 -->
<g id="edge32" class="edge">
<title>w2_2&#45;&#45;w3_2</title>
<path fill="none" stroke="SteelBlue" stroke-width="12" d="M154.8,-166.05C154.8,-179.66 154.8,-202.4 154.8,-215.86"/>
</g>
<!-- w0_2 -->
<g id="node27" class="node">
<title>w0_2</title>
<polygon fill="SteelBlue" stroke="Black" points="165.6,-21.6 144,-21.6 144,0 165.6,0 165.6,-21.6"/>
</g>
<!-- w0_2&#45;&#45;w0_3 -->
<g id="edge36" class="edge">
<title>w0_2&#45;&#45;w0_3</title>
<path fill="none" stroke="SteelBlue" stroke-width="12" d="M166.05,-10.8C179.66,-10.8 202.4,-10.8 215.86,-10.8"/>
</g>
<!-- w3_0&#45;&#45;w4_0 -->
<g id="edge38" class="edge">
<title>w3_0&#45;&#45;w4_0</title>
<path fill="none" stroke="SteelBlue" stroke-width="12" d="M10.8,-238.05C10.8,-251.66 10.8,-274.4 10.8,-287.86"/>
</g>
<!-- w0_1 -->
<g id="node29" class="node">
<title>w0_1</title>
<polygon fill="SteelBlue" stroke="Black" points="93.6,-21.6 72,-21.6 72,0 93.6,0 93.6,-21.6"/>
</g>
<!-- w0_1&#45;&#45;w0_2 -->
<g id="edge24" class="edge">
<title>w0_1&#45;&#45;w0_2</title>
<path fill="none" stroke="SteelBlue" stroke-width="12" d="M94.05,-10.8C107.66,-10.8 130.4,-10.8 143.86,-10.8"/>
</g>
<!-- w0_4&#45;&#45;w1_4 -->
<g id="edge14" class="edge">
<title>w0_4&#45;&#45;w1_4</title>
<path fill="none" stroke="SteelBlue" stroke-width="12" d="M298.8,-22.05C298.8,-35.66 298.8,-58.4 298.8,-71.86"/>
</g>
<!-- w4_4 -->
<g id="node31" class="node">
<title>w4_4</title>
<polygon fill="SteelBlue" stroke="Black" points="309.6,-309.6 288,-309.6 288,-288 309.6,-288 309.6,-309.6"/>
</g>
<!-- w4_4&#45;&#45;w5_4 -->
<g id="edge18" class="edge">
<title>w4_4&#45;&#45;w5_4</title>
<path fill="none" stroke="SteelBlue" stroke-width="12" d="M298.8,-310.05C298.8,-323.66 298.8,-346.4 298.8,-359.86"/>
</g>
<!-- w3_4&#45;&#45;w4_4 -->
<g id="edge17" class="edge">
<title>w3_4&#45;&#45;w4_4</title>
<path fill="none" stroke="SteelBlue" stroke-width="12" d="M298.8,-238.05C298.8,-251.66 298.8,-274.4 298.8,-287.86"/>
</g>
<!-- w9_2&#45;&#45;w9_3 -->
<g id="edge34" class="edge">
<title>w9_2&#45;&#45;w9_3</title>
<path fill="none" stroke="SteelBlue" stroke-width="12" d="M166.05,-658.8C179.66,-658.8 202.4,-658.8 215.86,-658.8"/>
</g>
<!-- w7_3 -->
<g id="node43" class="node">
<title>w7_3</title>
<polygon fill="SteelBlue" stroke="Black" points="237.6,-525.6 216,-525.6 216,-504 237.6,-504 237.6,-525.6"/>
</g>
<!-- w7_2&#45;&#45;w7_3 -->
<g id="edge29" class="edge">
<title>w7_2&#45;&#45;w7_3</title>
<path fill="none" stroke="SteelBlue" stroke-width="12" d="M166.05,-514.8C179.66,-514.8 202.4,-514.8 215.86,-514.8"/>
</g>
<!-- w1_1 -->
<g id="node35" class="node">
<title>w1_1</title>
<polygon fill="SteelBlue" stroke="Black" points="93.6,-93.6 72,-93.6 72,-72 93.6,-72 93.6,-93.6"/>
</g>
<!-- w1_1&#45;&#45;w1_2 -->
<g id="edge16" class="edge">
<title>w1_1&#45;&#45;w1_2</title>
<path fill="none" stroke="SteelBlue" stroke-width="12" d="M94.05,-82.8C107.66,-82.8 130.4,-82.8 143.86,-82.8"/>
</g>
<!-- w6_3 -->
<g id="node36" class="node">
<title>w6_3</title>
<polygon fill="SteelBlue" stroke="Black" points="237.6,-453.6 216,-453.6 216,-432 237.6,-432 237.6,-453.6"/>
</g>
<!-- w6_3&#45;&#45;w6_4 -->
<g id="edge35" class="edge">
<title>w6_3&#45;&#45;w6_4</title>
<path fill="none" stroke="SteelBlue" stroke-width="12" d="M238.05,-442.8C251.66,-442.8 274.4,-442.8 287.86,-442.8"/>
</g>
<!-- w6_3&#45;&#45;w7_3 -->
<g id="edge31" class="edge">
<title>w6_3&#45;&#45;w7_3</title>
<path fill="none" stroke="SteelBlue" stroke-width="12" d="M226.8,-454.05C226.8,-467.66 226.8,-490.4 226.8,-503.86"/>
</g>
<!-- w6_0 -->
<g id="node37" class="node">
<title>w6_0</title>
<polygon fill="SteelBlue" stroke="Black" points="21.6,-453.6 0,-453.6 0,-432 21.6,-432 21.6,-453.6"/>
</g>
<!-- w6_0&#45;&#45;w7_0 -->
<g id="edge6" class="edge">
<title>w6_0&#45;&#45;w7_0</title>
<path fill="none" stroke="SteelBlue" stroke-width="12" d="M10.8,-454.05C10.8,-467.66 10.8,-490.4 10.8,-503.86"/>
</g>
<!-- w6_1 -->
<g id="node40" class="node">
<title>w6_1</title>
<polygon fill="SteelBlue" stroke="Black" points="93.6,-453.6 72,-453.6 72,-432 93.6,-432 93.6,-453.6"/>
</g>
<!-- w6_0&#45;&#45;w6_1 -->
<g id="edge4" class="edge">
<title>w6_0&#45;&#45;w6_1</title>
<path fill="none" stroke="SteelBlue" stroke-width="12" d="M22.05,-442.8C35.66,-442.8 58.4,-442.8 71.86,-442.8"/>
</g>
<!-- w6_2 -->
<g id="node38" class="node">
<title>w6_2</title>
<polygon fill="SteelBlue" stroke="Black" points="165.6,-453.6 144,-453.6 144,-432 165.6,-432 165.6,-453.6"/>
</g>
<!-- w9_0&#45;&#45;w9_1 -->
<g id="edge20" class="edge">
<title>w9_0&#45;&#45;w9_1</title>
<path fill="none" stroke="SteelBlue" stroke-width="12" d="M22.05,-658.8C35.66,-658.8 58.4,-658.8 71.86,-658.8"/>
</g>
<!-- w6_1&#45;&#45;w6_2 -->
<g id="edge2" class="edge">
<title>w6_1&#45;&#45;w6_2</title>
<path fill="none" stroke="SteelBlue" stroke-width="12" d="M94.05,-442.8C107.66,-442.8 130.4,-442.8 143.86,-442.8"/>
</g>
<!-- w5_0&#45;&#45;w5_1 -->
<g id="edge40" class="edge">
<title>w5_0&#45;&#45;w5_1</title>
<path fill="none" stroke="SteelBlue" stroke-width="12" d="M22.05,-370.8C35.66,-370.8 58.4,-370.8 71.86,-370.8"/>
</g>
<!-- w5_0&#45;&#45;w6_0 -->
<g id="edge5" class="edge">
<title>w5_0&#45;&#45;w6_0</title>
<path fill="none" stroke="SteelBlue" stroke-width="12" d="M10.8,-382.05C10.8,-395.66 10.8,-418.4 10.8,-431.86"/>
</g>
<!-- w4_3&#45;&#45;w4_4 -->
<g id="edge10" class="edge">
<title>w4_3&#45;&#45;w4_4</title>
<path fill="none" stroke="SteelBlue" stroke-width="12" d="M238.05,-298.8C251.66,-298.8 274.4,-298.8 287.86,-298.8"/>
</g>
<!-- w7_3&#45;&#45;w8_3 -->
<g id="edge30" class="edge">
<title>w7_3&#45;&#45;w8_3</title>
<path fill="none" stroke="SteelBlue" stroke-width="12" d="M226.8,-526.05C226.8,-539.66 226.8,-562.4 226.8,-575.86"/>
</g>
<!-- w8_2&#45;&#45;w8_3 -->
<g id="edge41" class="edge">
<title>w8_2&#45;&#45;w8_3</title>
<path fill="none" stroke="SteelBlue" stroke-width="12" d="M166.05,-586.8C179.66,-586.8 202.4,-586.8 215.86,-586.8"/>
</g>
<!-- w3_1 -->
<g id="node47" class="node">
<title>w3_1</title>
<polygon fill="SteelBlue" stroke="Black" points="93.6,-237.6 72,-237.6 72,-216 93.6,-216 93.6,-237.6"/>
</g>
<!-- w3_1&#45;&#45;w4_1 -->
<g id="edge42" class="edge">
<title>w3_1&#45;&#45;w4_1</title>
<path fill="none" stroke="SteelBlue" stroke-width="12" d="M82.8,-238.05C82.8,-251.66 82.8,-274.4 82.8,-287.86"/>
</g>
</g>
</svg>
