<svg width="432pt" height="196pt"
 viewBox="0.00 0.00 432.00 196.00" xmlns="http://www.w3.org/2000/svg" xmlns:xlink="http://www.w3.org/1999/xlink">
<g id="graph0" class="graph" transform="scale(0.617849 0.617849) rotate(0) translate(4 313.6)">
<polygon fill="none" stroke="none" points="-4,4 -4,-313.6 695.2,-313.6 695.2,4 -4,4"/>
<!-- w3_8 -->
<g id="node1" class="node">
<title>w3_8</title>
<ellipse fill="SteelBlue" stroke="Black" cx="597.6" cy="-226.8" rx="21.6" ry="10.8"/>
<text xml:space="preserve" text-anchor="middle" x="597.6" y="-222.52" font-family="Times,serif" font-size="12.00" fill="White">w3_8</text>
</g>
<!-- w3_9 -->
<g id="node24" class="node">
<title>w3_9</title>
<ellipse fill="SteelBlue" stroke="Black" cx="669.6" cy="-226.8" rx="21.6" ry="10.8"/>
<text xml:space="preserve" text-anchor="middle" x="669.6" y="-222.52" font-family="Times,serif" font-size="12.00" fill="White">w3_9</text>
</g>
<!-- w3_8&#45;&#45;w3_9 -->
<g id="edge6" class="edge">
<title>w3_8&#45;&#45;w3_9</title>
<path fill="none" stroke="SteelBlue" stroke-width="2" d="M619.59,-226.8C628.53,-226.8 638.82,-226.8 647.74,-226.8"/>
</g>
<!-- w3_7 -->
<g id="node2" class="node">
<title>w3_7</title>
<ellipse fill="SteelBlue" stroke="Black" cx="525.6" cy="-226.8" rx="21.6" ry="10.8"/>
<text xml:space="preserve" text-anchor="middle" x="525.6" y="-222.52" font-family="Times,serif" font-size="12.00" fill="White">w3_7</text>
</g>
<!-- w0_3 -->
<g id="node3" class="node">
<title>w0_3</title>
<ellipse fill="SteelBlue" stroke="Black" cx="237.6" cy="-10.8" rx="21.6" ry="10.8"/>
<text xml:space="preserve" text-anchor="middle" x="237.6" y="-6.52" font-family="Times,serif" font-size="12.00" fill="White">w0_3</text>
</g>
<!-- w0_4 -->
<g id="node13" class="node">
<title>w0_4</title>
<ellipse fill="SteelBlue" stroke="Black" cx="309.6" cy="-10.8" rx="21.6" ry="10.8"/>
<text xml:space="preserve" text-anchor="middle" x="309.6" y="-6.52" font-family="Times,serif" font-size="12.00" fill="White">w0_4</text>
</g>
<!-- w0_3&#45;&#45;w0_4 -->
<g id="edge21" class="edge">
<title>w0_3&#45;&#45;w0_4</title>
<path fill="none" stroke="SteelBlue" stroke-width="2" d="M259.59,-10.8C268.53,-10.8 278.82,-10.8 287.74,-10.8"/>
</g>
<!-- w4_7 -->
<g id="node4" class="node">
<title>w4_7</title>
<ellipse fill="SteelBlue" stroke="Black" cx="525.6" cy="-298.8" rx="21.6" ry="10.8"/>
<text xml:space="preserve" text-anchor="middle" x="525.6" y="-294.53" font-family="Times,serif" font-size="12.00" fill="White">w4_7</text>
</g>
<!-- w4_8 -->
<g id="node33" class="node">
<title>w4_8</title>
<ellipse fill="SteelBlue" stroke="Black" cx="597.6" cy="-298.8" rx="21.6" ry="10.8"/>
<text xml:space="preserve" text-anchor="middle" x="597.6" y="-294.53" font-family="Times,serif" font-size="12.00" fill="White">w4_8</text>
</g>
<!-- w4_7&#45;&#45;w4_8 -->
<g id="edge26" class="edge">
<title>w4_7&#45;&#45;w4_8</title>
<path fill="none" stroke="SteelBlue" stroke-width="2" d="M547.59,-298.8C556.53,-298.8 566.82,-298.8 575.74,-298.8"/>
</g>
<!-- w1_0 -->
<g id="node5" class="node">
<title>w1_0</title>
<ellipse fill="SteelBlue" stroke="Black" cx="21.6" cy="-82.8" rx="21.6" ry="10.8"/>
<text xml:space="preserve" text-anchor="middle" x="21.6" y="-78.52" font-family="Times,serif" font-size="12.00" fill="White">w1_0</text>
</g>
<!-- w2_0 -->
<g id="node9" class="node">
<title>w2_0</title>
<ellipse fill="SteelBlue" stroke="Black" cx="21.6" cy="-154.8" rx="21.6" ry="10.8"/>
<text xml:space="preserve" text-anchor="middle" x="21.6" y="-150.52" font-family="Times,serif" font-size="12.00" fill="White">w2_0</text>
</g>
<!-- w1_0&#45;&#45;w2_0 -->
<g id="edge30" class="edge">
<title>w1_0&#45;&#45;w2_0</title>
<path fill="none" stroke="SteelBlue" stroke-width="2" d="M21.6,-94.05C21.6,-107.66 21.6,-130.4 21.6,-143.86"/>
</g>
<!-- w3_3 -->
<g id="node6" class="node">
<title>w3_3</title>
<ellipse fill="SteelBlue" stroke="Black" cx="237.6" cy="-226.8" rx="21.6" ry="10.8"/>
<text xml:space="preserve" text-anchor="middle" x="237.6" y="-222.52" font-family="Times,serif" font-size="12.00" fill="White">w3_3</text>
</g>
<!-- w4_3 -->
<g id="node21" class="node">
<title>w4_3</title>
<ellipse fill="SteelBlue" stroke="Black" cx="237.6" cy="-298.8" rx="21.6" ry="10.8"/>
<text xml:space="preserve" text-anchor="middle" x="237.6" y="-294.53" font-family="Times,serif" font-size="12.00" fill="White">w4_3</text>
</g>
<!-- w3_3&#45;&#45;w4_3 -->
<g id="edge46" class="edge">
<title>w3_3&#45;&#45;w4_3</title>
<path fill="none" stroke="SteelBlue" stroke-width="2" d="M237.6,-238.05C237.6,-251.66 237.6,-274.4 237.6,-287.86"/>
</g>
<!-- w3_4 -->
<g id="node42" class="node">
<title>w3_4</title>
<ellipse fill="SteelBlue" stroke="Black" cx="309.6" cy="-226.8" rx="21.6" ry="10.8"/>
<text xml:space="preserve" text-anchor="middle" x="309.6" y="-222.52" font-family="Times,serif" font-size="12.00" fill="White">w3_4</text>
</g>
<!-- w3_3&#45;&#45;w3_4 -->
<g id="edge25" class="edge">
<title>w3_3&#45;&#45;w3_4</title>
<path fill="none" stroke="SteelBlue" stroke-width="2" d="M259.59,-226.8C268.53,-226.8 278.82,-226.8 287.74,-226.8"/>
</g>
<!-- w0_8 -->
<g id="node7" class="node">
<title>w0_8</title>
<ellipse fill="SteelBlue" stroke="Black" cx="597.6" cy="-10.8" rx="21.6" ry="10.8"/>
<text xml:space="preserve" text-anchor="middle" x="597.6" y="-6.52" font-family="Times,serif" font-size="12.00" fill="White">w0_8</text>
</g>
<!-- w1_8 -->
<g id="node10" class="node">
<title>w1_8</title>
<ellipse fill="SteelBlue" stroke="Black" cx="597.6" cy="-82.8" rx="21.6" ry="10.8"/>
<text xml:space="preserve" text-anchor="middle" x="597.6" y="-78.52" font-family="Times,serif" font-size="12.00" fill="White">w1_8</text>
</g>
<!-- w0_8&#45;&#45;w1_8 -->
<g id="edge41" class="edge">
<title>w0_8&#45;&#45;w1_8</title>
<path fill="none" stroke="SteelBlue" stroke-width="2" d="M597.6,-22.05C597.6,-35.66 597.6,-58.4 597.6,-71.86"/>
</g>
<!-- w0_9 -->
<g id="node27" class="node">
<title>w0_9</title>
<ellipse fill="SteelBlue" stroke="Black" cx="669.6" cy="-10.8" rx="21.6" ry="10.8"/>
<text xml:space="preserve" text-anchor="middle" x="669.6" y="-6.52" font-family="Times,serif" font-size="12.00" fill="White">w0_9</text>
</g>
<!-- w0_8&#45;&#45;w0_9 -->
<g id="edge10" class="edge">
<title>w0_8&#45;&#45;w0_9</title>
<path fill="none" stroke="SteelBlue" stroke-width="2" d="M619.59,-10.8C628.53,-10.8 638.82,-10.8 647.74,-10.8"/>
</g>
<!-- w0_2 -->
<g id="node8" class="node">
<title>w0_2</title>
<ellipse fill="SteelBlue" stroke="Black" cx="165.6" cy="-10.8" rx="21.6" ry="10.8"/>
<text xml:space="preserve" text-anchor="middle" x="165.6" y="-6.52" font-family="Times,serif" font-size="12.00" fill="White">w0_2</text>
</g>
<!-- w0_2&#45;&#45;w0_3 -->
<g id="edge2" class="edge">
<title>w0_2&#45;&#45;w0_3</title>
<path fill="none" stroke="SteelBlue" stroke-width="2" d="M187.59,-10.8C196.53,-10.8 206.82,-10.8 215.74,-10.8"/>
</g>
<!-- w2_1 -->
<g id="node18" class="node">
<title>w2_1</title>
<ellipse fill="SteelBlue" stroke="Black" cx="93.6" cy="-154.8" rx="21.6" ry="10.8"/>
<text xml:space="preserve" text-anchor="middle" x="93.6" y="-150.52" font-family="Times,serif" font-size="12.00" fill="White">w2_1</text>
</g>
<!-- w2_0&#45;&#45;w2_1 -->
<g id="edge32" class="edge">
<title>w2_0&#45;&#45;w2_1</title>
<path fill="none" stroke="SteelBlue" stroke-width="2" d="M43.59,-154.8C52.53,-154.8 62.82,-154.8 71.74,-154.8"/>
</g>
<!-- w3_0 -->
<g id="node39" class="node">
<title>w3_0</title>
<ellipse fill="SteelBlue" stroke="Black" cx="21.6" cy="-226.8" rx="21.6" ry="10.8"/>
<text xml:space="preserve" text-anchor="middle" x="21.6" y="-222.52" font-family="Times,serif" font-size="12.00" fill="White">w3_0</text>
</g>
<!-- w2_0&#45;&#45;w3_0 -->
<g id="edge31" class="edge">
<title>w2_0&#45;&#45;w3_0</title>
<path fill="none" stroke="SteelBlue" stroke-width="2" d="M21.6,-166.05C21.6,-179.66 21.6,-202.4 21.6,-215.86"/>
</g>
<!-- w2_5 -->
<g id="node11" class="node">
<title>w2_5</title>
<ellipse fill="SteelBlue" stroke="Black" cx="381.6" cy="-154.8" rx="21.6" ry="10.8"/>
<text xml:space="preserve" text-anchor="middle" x="381.6" y="-150.52" font-family="Times,serif" font-size="12.00" fill="White">w2_5</text>
</g>
<!-- w2_6 -->
<g id="node32" class="node">
<title>w2_6</title>
<ellipse fill="SteelBlue" stroke="Black" cx="453.6" cy="-154.8" rx="21.6" ry="10.8"/>
<text xml:space="preserve" text-anchor="middle" x="453.6" y="-150.52" font-family="Times,serif" font-size="12.00" fill="White">w2_6</text>
</g>
<!-- w2_5&#45;&#45;w2_6 -->
<g id="edge24" class="edge">
<title>w2_5&#45;&#45;w2_6</title>
<path fill="none" stroke="SteelBlue" stroke-width="2" d="M403.59,-154.8C412.53,-154.8 422.82,-154.8 431.74,-154.8"/>
</g>
<!-- w0_7 -->
<g id="node12" class="node">
<title>w0_7</title>
<ellipse fill="SteelBlue" stroke="Black" cx="525.6" cy="-10.8" rx="21.6" ry="10.8"/>
<text xml:space="preserve" text-anchor="middle" x="525.6" y="-6.52" font-family="Times,serif" font-size="12.00" fill="White">w0_7</text>
</g>
<!-- w0_7&#45;&#45;w0_8 -->
<g id="edge44" class="edge">
<title>w0_7&#45;&#45;w0_8</title>
<path fill="none" stroke="SteelBlue" stroke-width="2" d="M547.59,-10.8C556.53,-10.8 566.82,-10.8 575.74,-10.8"/>
</g>
<!-- w0_5 -->
<g id="node44" class="node">
<title>w0_5</title>
<ellipse fill="SteelBlue" stroke="Black" cx="381.6" cy="-10.8" rx="21.6" ry="10.8"/>
<text xml:space="preserve" text-anchor="middle" x="381.6" y="-6.52" font-family="Times,serif" font-size="12.00" fill="White">w0_5</text>
</g>
<!-- w0_4&#45;&#45;w0_5 -->
<g id="edge7" class="edge">
<title>w0_4&#45;&#45;w0_5</title>
<path fill="none" stroke="SteelBlue" stroke-width="2" d="M331.59,-10.8C340.53,-10.8 350.82,-10.8 359.74,-10.8"/>
</g>
<!-- w0_6 -->
<g id="node14" class="node">
<title>w0_6</title>
<ellipse fill="SteelBlue" stroke="Black" cx="453.6" cy="-10.8" rx="21.6" ry="10.8"/>
<text xml:space="preserve" text-anchor="middle" x="453.6" y="-6.52" font-family="Times,serif" font-size="12.00" fill="White">w0_6</text>
</g>
<!-- w0_6&#45;&#45;w0_7 -->
<g id="edge20" class="edge">
<title>w0_6&#45;&#45;w0_7</title>
<path fill="none" stroke="SteelBlue" stroke-width="2" d="M475.59,-10.8C484.53,-10.8 494.82,-10.8 503.74,-10.8"/>
</g>
<!-- w3_6 -->
<g id="node15" class="node">
<title>w3_6</title>
<ellipse fill="SteelBlue" stroke="Black" cx="453.6" cy="-226.8" rx="21.6" ry="10.8"/>
<text xml:space="preserve" text-anchor="middle" x="453.6" y="-222.52" font-family="Times,serif" font-size="12.00" fill="White">w3_6</text>
</g>
<!-- w3_6&#45;&#45;w3_7 -->
<g id="edge33" class="edge">
<title>w3_6&#45;&#45;w3_7</title>
<path fill="none" stroke="SteelBlue" stroke-width="2" d="M475.59,-226.8C484.53,-226.8 494.82,-226.8 503.74,-226.8"/>
</g>
<!-- w3_2 -->
<g id="node16" class="node">
<title>w3_2</title>
<ellipse fill="SteelBlue" stroke="Black" cx="165.6" cy="-226.8" rx="21.6" ry="10.8"/>
<text xml:space="preserve" text-anchor="middle" x="165.6" y="-222.52" font-family="Times,serif" font-size="12.00" fill="White">w3_2</text>
</g>
<!-- w1_1 -->
<g id="node17" class="node">
<title>w1_1</title>
<ellipse fill="SteelBlue" stroke="Black" cx="93.6" cy="-82.8" rx="21.6" ry="10.8"/>
<text xml:space="preserve" text-anchor="middle" x="93.6" y="-78.52" font-family="Times,serif" font-size="12.00" fill="White">w1_1</text>
</g>
<!-- w1_1&#45;&#45;w2_1 -->
<g id="edge45" class="edge">
<title>w1_1&#45;&#45;w2_1</title>
<path fill="none" stroke="SteelBlue" stroke-width="2" d="M93.6,-94.05C93.6,-107.66 93.6,-130.4 93.6,-143.86"/>
</g>
<!-- w3_1 -->
<g id="node29" class="node">
<title>w3_1</title>
<ellipse fill="SteelBlue" stroke="Black" cx="93.6" cy="-226.8" rx="21.6" ry="10.8"/>
<text xml:space="preserve" text-anchor="middle" x="93.6" y="-222.52" font-family="Times,serif" font-size="12.00" fill="White">w3_1</text>
</g>
<!-- w2_1&#45;&#45;w3_1 -->
<g id="edge37" class="edge">
<title>w2_1&#45;&#45;w3_1</title>
<path fill="none" stroke="SteelBlue" stroke-width="2" d="M93.6,-166.05C93.6,-179.66 93.6,-202.4 93.6,-215.86"/>
</g>
<!-- w2_2 -->
<g id="node45" class="node">
<title>w2_2</title>
<ellipse fill="SteelBlue" stroke="Black" cx="165.6" cy="-154.8" rx="21.6" ry="10.8"/>
<text xml:space="preserve" text-anchor="middle" x="165.6" y="-150.52" font-family="Times,serif" font-size="12.00" fill="White">w2_2</text>
</g>
<!-- w2_1&#45;&#45;w2_2 -->
<g id="edge3" class="edge">
<title>w2_1&#45;&#45;w2_2</title>
<path fill="none" stroke="SteelBlue" stroke-width="2" d="M115.59,-154.8C124.53,-154.8 134.82,-154.8 143.74,-154.8"/>
</g>
<!-- w1_6 -->
<g id="node19" class="node">
<title>w1_6</title>
<ellipse fill="SteelBlue" stroke="Black" cx="453.6" cy="-82.8" rx="21.6" ry="10.8"/>
<text xml:space="preserve" text-anchor="middle" x="453.6" y="-78.52" font-family="Times,serif" font-size="12.00" fill="White">w1_6</text>
</g>
<!-- w1_7 -->
<g id="node28" class="node">
<title>w1_7</title>
<ellipse fill="SteelBlue" stroke="Black" cx="525.6" cy="-82.8" rx="21.6" ry="10.8"/>
<text xml:space="preserve" text-anchor="middle" x="525.6" y="-78.52" font-family="Times,serif" font-size="12.00" fill="White">w1_7</text>
</g>
<!-- w1_6&#45;&#45;w1_7 -->
<g id="edge43" class="edge">
<title>w1_6&#45;&#45;w1_7</title>
<path fill="none" stroke="SteelBlue" stroke-width="2" d="M475.59,-82.8C484.53,-82.8 494.82,-82.8 503.74,-82.8"/>
</g>
<!-- w4_4 -->
<g id="node20" class="node">
<title>w4_4</title>
<ellipse fill="SteelBlue" stroke="Black" cx="309.6" cy="-298.8" rx="21.6" ry="10.8"/>
<text xml:space="preserve" text-anchor="middle" x="309.6" y="-294.53" font-family="Times,serif" font-size="12.00" fill="White">w4_4</text>
</g>
<!-- w4_5 -->
<g id="node41" class="node">
<title>w4_5</title>
<ellipse fill="SteelBlue" stroke="Black" cx="381.6" cy="-298.8" rx="21.6" ry="10.8"/>
<text xml:space="preserve" text-anchor="middle" x="381.6" y="-294.53" font-family="Times,serif" font-size="12.00" fill="White">w4_5</text>
</g>
<!-- w4_4&#45;&#45;w4_5 -->
<g id="edge18" class="edge">
<title>w4_4&#45;&#45;w4_5</title>
<path fill="none" stroke="SteelBlue" stroke-width="2" d="M331.59,-298.8C340.53,-298.8 350.82,-298.8 359.74,-298.8"/>
</g>
<!-- w4_3&#45;&#45;w4_4 -->
<g id="edge17" class="edge">
<title>w4_3&#45;&#45;w4_4</title>
<path fill="none" stroke="SteelBlue" stroke-width="2" d="M259.59,-298.8C268.53,-298.8 278.82,-298.8 287.74,-298.8"/>
</g>
<!-- w1_5 -->
<g id="node22" class="node">
<title>w1_5</title>
<ellipse fill="SteelBlue" stroke="Black" cx="381.6" cy="-82.8" rx="21.6" ry="10.8"/>
<text xml:space="preserve" text-anchor="middle" x="381.6" y="-78.52" font-family="Times,serif" font-size="12.00" fill="White">w1_5</text>
</g>
<!-- w1_5&#45;&#45;w2_5 -->
<g id="edge22" class="edge">
<title>w1_5&#45;&#45;w2_5</title>
<path fill="none" stroke="SteelBlue" stroke-width="2" d="M381.6,-94.05C381.6,-107.66 381.6,-130.4 381.6,-143.86"/>
</g>
<!-- w4_2 -->
<g id="node23" class="node">
<title>w4_2</title>
<ellipse fill="SteelBlue" stroke="Black" cx="165.6" cy="-298.8" rx="21.6" ry="10.8"/>
<text xml:space="preserve" text-anchor="middle" x="165.6" y="-294.53" font-family="Times,serif" font-size="12.00" fill="White">w4_2</text>
</g>
<!-- w4_2&#45;&#45;w4_3 -->
<g id="edge11" class="edge">
<title>w4_2&#45;&#45;w4_3</title>
<path fill="none" stroke="SteelBlue" stroke-width="2" d="M187.59,-298.8C196.53,-298.8 206.82,-298.8 215.74,-298.8"/>
</g>
<!-- w4_0 -->
<g id="node25" class="node">
<title>w4_0</title>
<ellipse fill="SteelBlue" stroke="Black" cx="21.6" cy="-298.8" rx="21.6" ry="10.8"/>
<text xml:space="preserve" text-anchor="middle" x="21.6" y="-294.53" font-family="Times,serif" font-size="12.00" fill="White">w4_0</text>
</g>
<!-- w4_1 -->
<g id="node46" class="node">
<title>w4_1</title>
<ellipse fill="SteelBlue" stroke="Black" cx="93.6" cy="-298.8" rx="21.6" ry="10.8"/>
<text xml:space="preserve" text-anchor="middle" x="93.6" y="-294.53" font-family="Times,serif" font-size="12.00" fill="White">w4_1</text>
</g>
<!-- w4_0&#45;&#45;w4_1 -->
<g id="edge35" class="edge">
<title>w4_0&#45;&#45;w4_1</title>
<path fill="none" stroke="SteelBlue" stroke-width="2" d="M43.59,-298.8C52.53,-298.8 62.82,-298.8 71.74,-298.8"/>
</g>
<!-- w1_9 -->
<g id="node26" class="node">
<title>w1_9</title>
<ellipse fill="SteelBlue" stroke="Black" cx="669.6" cy="-82.8" rx="21.6" ry="10.8"/>
<text xml:space="preserve" text-anchor="middle" x="669.6" y="-78.52" font-family="Times,serif" font-size="12.00" fill="White">w1_9</text>
</g>
<!-- w2_9 -->
<g id="node48" class="node">
<title>w2_9</title>
<ellipse fill="SteelBlue" stroke="Black" cx="669.6" cy="-154.8" rx="21.6" ry="10.8"/>
<text xml:space="preserve" text-anchor="middle" x="669.6" y="-150.52" font-family="Times,serif" font-size="12.00" fill="White">w2_9</text>
</g>
<!-- w1_9&#45;&#45;w2_9 -->
<g id="edge36" class="edge">
<title>w1_9&#45;&#45;w2_9</title>
<path fill="none" stroke="SteelBlue" stroke-width="2" d="M669.6,-94.05C669.6,-107.66 669.6,-130.4 669.6,-143.86"/>
</g>
<!-- w0_9&#45;&#45;w1_9 -->
<g id="edge9" class="edge">
<title>w0_9&#45;&#45;w1_9</title>
<path fill="none" stroke="SteelBlue" stroke-width="2" d="M669.6,-22.05C669.6,-35.66 669.6,-58.4 669.6,-71.86"/>
</g>
<!-- w2_7 -->
<g id="node31" class="node">
<title>w2_7</title>
<ellipse fill="SteelBlue" stroke="Black" cx="525.6" cy="-154.8" rx="21.6" ry="10.8"/>
<text xml:space="preserve" text-anchor="middle" x="525.6" y="-150.52" font-family="Times,serif" font-size="12.00" fill="White">w2_7</text>
</g>
<!-- w1_7&#45;&#45;w2_7 -->
<g id="edge28" class="edge">
<title>w1_7&#45;&#45;w2_7</title>
<path fill="none" stroke="SteelBlue" stroke-width="2" d="M525.6,-94.05C525.6,-107.66 525.6,-130.4 525.6,-143.86"/>
</g>
<!-- w4_6 -->
<g id="node30" class="node">
<title>w4_6</title>
<ellipse fill="SteelBlue" stroke="Black" cx="453.6" cy="-298.8" rx="21.6" ry="10.8"/>
<text xml:space="preserve" text-anchor="middle" x="453.6" y="-294.53" font-family="Times,serif" font-size="12.00" fill="White">w4_6</text>
</g>
<!-- w4_6&#45;&#45;w4_7 -->
<g id="edge27" class="edge">
<title>w4_6&#45;&#45;w4_7</title>
<path fill="none" stroke="SteelBlue" stroke-width="2" d="M475.59,-298.8C484.53,-298.8 494.82,-298.8 503.74,-298.8"/>
</g>
<!-- w2_6&#45;&#45;w3_6 -->
<g id="edge38" class="edge">
<title>w2_6&#45;&#45;w3_6</title>
<path fill="none" stroke="SteelBlue" stroke-width="2" d="M453.6,-166.05C453.6,-179.66 453.6,-202.4 453.6,-215.86"/>
</g>
<!-- w2_6&#45;&#45;w2_7 -->
<g id="edge29" class="edge">
<title>w2_6&#45;&#45;w2_7</title>
<path fill="none" stroke="SteelBlue" stroke-width="2" d="M475.59,-154.8C484.53,-154.8 494.82,-154.8 503.74,-154.8"/>
</g>
<!-- w3_5 -->
<g id="node34" class="node">
<title>w3_5</title>
<ellipse fill="SteelBlue" stroke="Black" cx="381.6" cy="-226.8" rx="21.6" ry="10.8"/>
<text xml:space="preserve" text-anchor="middle" x="381.6" y="-222.52" font-family="Times,serif" font-size="12.00" fill="White">w3_5</text>
</g>
<!-- w3_5&#45;&#45;w3_6 -->
<g id="edge15" class="edge">
<title>w3_5&#45;&#45;w3_6</title>
<path fill="none" stroke="SteelBlue" stroke-width="2" d="M403.59,-226.8C412.53,-226.8 422.82,-226.8 431.74,-226.8"/>
</g>
<!-- w3_5&#45;&#45;w4_5 -->
<g id="edge16" class="edge">
<title>w3_5&#45;&#45;w4_5</title>
<path fill="none" stroke="SteelBlue" stroke-width="2" d="M381.6,-238.05C381.6,-251.66 381.6,-274.4 381.6,-287.86"/>
</g>
<!-- w1_2 -->
<g id="node35" class="node">
<title>w1_2</title>
<ellipse fill="SteelBlue" stroke="Black" cx="165.6" cy="-82.8" rx="21.6" ry="10.8"/>
<text xml:space="preserve" text-anchor="middle" x="165.6" y="-78.52" font-family="Times,serif" font-size="12.00" fill="White">w1_2</text>
</g>
<!-- w1_2&#45;&#45;w2_2 -->
<g id="edge4" class="edge">
<title>w1_2&#45;&#45;w2_2</title>
<path fill="none" stroke="SteelBlue" stroke-width="2" d="M165.6,-94.05C165.6,-107.66 165.6,-130.4 165.6,-143.86"/>
</g>
<!-- w0_1 -->
<g id="node36" class="node">
<title>w0_1</title>
<ellipse fill="SteelBlue" stroke="Black" cx="93.6" cy="-10.8" rx="21.6" ry="10.8"/>
<text xml:space="preserve" text-anchor="middle" x="93.6" y="-6.52" font-family="Times,serif" font-size="12.00" fill="White">w0_1</text>
</g>
<!-- w0_1&#45;&#45;w0_2 -->
<g id="edge1" class="edge">
<title>w0_1&#45;&#45;w0_2</title>
<path fill="none" stroke="SteelBlue" stroke-width="2" d="M115.59,-10.8C124.53,-10.8 134.82,-10.8 143.74,-10.8"/>
</g>
<!-- w1_4 -->
<g id="node37" class="node">
<title>w1_4</title>
<ellipse fill="SteelBlue" stroke="Black" cx="309.6" cy="-82.8" rx="21.6" ry="10.8"/>
<text xml:space="preserve" text-anchor="middle" x="309.6" y="-78.52" font-family="Times,serif" font-size="12.00" fill="White">w1_4</text>
</g>
<!-- w1_4&#45;&#45;w1_5 -->
<g id="edge14" class="edge">
<title>w1_4&#45;&#45;w1_5</title>
<path fill="none" stroke="SteelBlue" stroke-width="2" d="M331.59,-82.8C340.53,-82.8 350.82,-82.8 359.74,-82.8"/>
</g>
<!-- w1_3 -->
<g id="node38" class="node">
<title>w1_3</title>
<ellipse fill="SteelBlue" stroke="Black" cx="237.6" cy="-82.8" rx="21.6" ry="10.8"/>
<text xml:space="preserve" text-anchor="middle" x="237.6" y="-78.52" font-family="Times,serif" font-size="12.00" fill="White">w1_3</text>
</g>
<!-- w1_3&#45;&#45;w1_4 -->
<g id="edge13" class="edge">
<title>w1_3&#45;&#45;w1_4</title>
<path fill="none" stroke="SteelBlue" stroke-width="2" d="M259.59,-82.8C268.53,-82.8 278.82,-82.8 287.74,-82.8"/>
</g>
<!-- w3_0&#45;&#45;w4_0 -->
<g id="edge34" class="edge">
<title>w3_0&#45;&#45;w4_0</title>
<path fill="none" stroke="SteelBlue" stroke-width="2" d="M21.6,-238.05C21.6,-251.66 21.6,-274.4 21.6,-287.86"/>
</g>
<!-- w2_3 -->
<g id="node40" class="node">
<title>w2_3</title>
<ellipse fill="SteelBlue" stroke="Black" cx="237.6" cy="-154.8" rx="21.6" ry="10.8"/>
<text xml:space="preserve" text-anchor="middle" x="237.6" y="-150.52" font-family="Times,serif" font-size="12.00" fill="White">w2_3</text>
</g>
<!-- w2_4 -->
<g id="node47" class="node">
<title>w2_4</title>
<ellipse fill="SteelBlue" stroke="Black" cx="309.6" cy="-154.8" rx="21.6" ry="10.8"/>
<text xml:space="preserve" text-anchor="middle" x="309.6" y="-150.52" font-family="Times,serif" font-size="12.00" fill="White">w2_4</text>
</g>
<!-- w2_3&#45;&#45;w2_4 -->
<g id="edge19" class="edge">
<title>w2_3&#45;&#45;w2_4</title>
<path fill="none" stroke="SteelBlue" stroke-width="2" d="M259.59,-154.8C268.53,-154.8 278.82,-154.8 287.74,-154.8"/>
</g>
<!-- w4_5&#45;&#45;w4_6 -->
<g id="edge42" class="edge">
<title>w4_5&#45;&#45;w4_6</title>
<path fill="none" stroke="SteelBlue" stroke-width="2" d="M403.59,-298.8C412.53,-298.8 422.82,-298.8 431.74,-298.8"/>
</g>
<!-- w2_8 -->
<g id="node43" class="node">
<title>w2_8</title>
<ellipse fill="SteelBlue" stroke="Black" cx="597.6" cy="-154.8" rx="21.6" ry="10.8"/>
<text xml:space="preserve" text-anchor="middle" x="597.6" y="-150.52" font-family="Times,serif" font-size="12.00" fill="White">w2_8</text>
</g>
<!-- w2_8&#45;&#45;w2_9 -->
<g id="edge39" class="edge">
<title>w2_8&#45;&#45;w2_9</title>
<path fill="none" stroke="SteelBlue" stroke-width="2" d="M619.59,-154.8C628.53,-154.8 638.82,-154.8 647.74,-154.8"/>
</g>
<!-- w0_5&#45;&#45;w0_6 -->
<g id="edge8" class="edge">
<title>w0_5&#45;&#45;w0_6</title>
<path fill="none" stroke="SteelBlue" stroke-width="2" d="M403.59,-10.8C412.53,-10.8 422.82,-10.8 431.74,-10.8"/>
</g>
<!-- w2_2&#45;&#45;w3_2 -->
<g id="edge5" class="edge">
<title>w2_2&#45;&#45;w3_2</title>
<path fill="none" stroke="SteelBlue" stroke-width="2" d="M165.6,-166.05C165.6,-179.66 165.6,-202.4 165.6,-215.86"/>
</g>
<!-- w4_1&#45;&#45;w4_2 -->
<g id="edge12" class="edge">
<title>w4_1&#45;&#45;w4_2</title>
<path fill="none" stroke="SteelBlue" stroke-width="2" d="M115.59,-298.8C124.53,-298.8 134.82,-298.8 143.74,-298.8"/>
</g>
<!-- w2_4&#45;&#45;w2_5 -->
<g id="edge23" class="edge">
<title>w2_4&#45;&#45;w2_5</title>
<path fill="none" stroke="SteelBlue" stroke-width="2" d="M331.59,-154.8C340.53,-154.8 350.82,-154.8 359.74,-154.8"/>
</g>
<!-- w2_9&#45;&#45;w3_9 -->
<g id="edge40" class="edge">
<title>w2_9&#45;&#45;w3_9</title>
<path fill="none" stroke="SteelBlue" stroke-width="2" d="M669.6,-166.05C669.6,-179.66 669.6,-202.4 669.6,-215.86"/>
</g>
</g>
</svg>
