<svg width="58pt" height="58pt"
 viewBox="0.00 0.00 58.00 58.00" xmlns="http://www.w3.org/2000/svg" xmlns:xlink="http://www.w3.org/1999/xlink">
<g id="graph0" class="graph" transform="scale(0.121849 0.121849) rotate(0) translate(4 472)">
<polygon fill="none" stroke="none" points="-4,4 -4,-472 472,-472 472,4 -4,4"/>
<!-- w0_3 -->
<g id="node1" class="node">
<title>w0_3</title>
<polygon fill="SteelBlue" stroke="Black" points="252,-36 216,-36 216,0 252,0 252,-36"/>
</g>
<!-- w0_4 -->
<g id="node33" class="node">
<title>w0_4</title>
<polygon fill="SteelBlue" stroke="Black" points="324,-36 288,-36 288,0 324,0 324,-36"/>
</g>
<!-- w0_3&#45;&#45;w0_4 -->
<g id="edge9" class="edge">
<title>w0_3&#45;&#45;w0_4</title>
<path fill="none" stroke="SteelBlue" stroke-width="36" d="M252.17,-18C263,-18 276.71,-18 287.59,-18"/>
</g>
<!-- w1_2 -->
<g id="node2" class="node">
<title>w1_2</title>
<polygon fill="SteelBlue" stroke="Black" points="180,-108 144,-108 144,-72 180,-72 180,-108"/>
</g>
<!-- w1_6 -->
<g id="node3" class="node">
<title>w1_6</title>
<polygon fill="SteelBlue" stroke="Black" points="468,-108 432,-108 432,-72 468,-72 468,-108"/>
</g>
<!-- w2_6 -->
<g id="node16" class="node">
<title>w2_6</title>
<polygon fill="SteelBlue" stroke="Black" points="468,-180 432,-180 432,-144 468,-144 468,-180"/>
</g>
<!-- w1_6&#45;&#45;w2_6 -->
<g id="edge20" class="edge">
<title>w1_6&#45;&#45;w2_6</title>
<path fill="none" stroke="SteelBlue" stroke-width="36" d="M450,-108.17C450,-119 450,-132.71 450,-143.59"/>
</g>
<!-- w3_3 -->
<g id="node4" class="node">
<title>w3_3</title>
<polygon fill="SteelBlue" stroke="Black" points="252,-252 216,-252 216,-216 252,-216 252,-252"/>
</g>
<!-- w3_2 -->
<g id="node5" class="node">
<title>w3_2</title>
<polygon fill="SteelBlue" stroke="Black" points="180,-252 144,-252 144,-216 180,-216 180,-252"/>
</g>
<!-- w3_2&#45;&#45;w3_3 -->
<g id="edge3" class="edge">
<title>w3_2&#45;&#45;w3_3</title>
<path fill="none" stroke="SteelBlue" stroke-width="36" d="M180.17,-234C191,-234 204.71,-234 215.59,-234"/>
</g>
<!-- w1_5 -->
<g id="node6" class="node">
<title>w1_5</title>
<polygon fill="SteelBlue" stroke="Black" points="396,-108 360,-108 360,-72 396,-72 396,-108"/>
</g>
<!-- w2_5 -->
<g id="node18" class="node">
<title>w2_5</title>
<polygon fill="SteelBlue" stroke="Black" points="396,-180 360,-180 360,-144 396,-144 396,-180"/>
</g>
<!-- w1_5&#45;&#45;w2_5 -->
<g id="edge36" class="edge">
<title>w1_5&#45;&#45;w2_5</title>
<path fill="none" stroke="SteelBlue" stroke-width="36" d="M378,-108.17C378,-119 378,-132.71 378,-143.59"/>
</g>
<!-- w2_0 -->
<g id="node7" class="node">
<title>w2_0</title>
<polygon fill="SteelBlue" stroke="Black" points="36,-180 0,-180 0,-144 36,-144 36,-180"/>
</g>
<!-- w2_1 -->
<g id="node8" class="node">
<title>w2_1</title>
<polygon fill="SteelBlue" stroke="Black" points="108,-180 72,-180 72,-144 108,-144 108,-180"/>
</g>
<!-- w2_0&#45;&#45;w2_1 -->
<g id="edge22" class="edge">
<title>w2_0&#45;&#45;w2_1</title>
<path fill="none" stroke="SteelBlue" stroke-width="36" d="M36.17,-162C47,-162 60.71,-162 71.59,-162"/>
</g>
<!-- w3_0 -->
<g id="node23" class="node">
<title>w3_0</title>
<polygon fill="SteelBlue" stroke="Black" points="36,-252 0,-252 0,-216 36,-216 36,-252"/>
</g>
<!-- w2_0&#45;&#45;w3_0 -->
<g id="edge12" class="edge">
<title>w2_0&#45;&#45;w3_0</title>
<path fill="none" stroke="SteelBlue" stroke-width="36" d="M18,-180.17C18,-191 18,-204.71 18,-215.59"/>
</g>
<!-- w0_1 -->
<g id="node9" class="node">
<title>w0_1</title>
<polygon fill="SteelBlue" stroke="Black" points="108,-36 72,-36 72,0 108,0 108,-36"/>
</g>
<!-- w1_1 -->
<g id="node27" class="node">
<title>w1_1</title>
<polygon fill="SteelBlue" stroke="Black" points="108,-108 72,-108 72,-72 108,-72 108,-108"/>
</g>
<!-- w0_1&#45;&#45;w1_1 -->
<g id="edge34" class="edge">
<title>w0_1&#45;&#45;w1_1</title>
<path fill="none" stroke="SteelBlue" stroke-width="36" d="M90,-36.17C90,-47 90,-60.71 90,-71.59"/>
</g>
<!-- w0_2 -->
<g id="node29" class="node">
<title>w0_2</title>
<polygon fill="SteelBlue" stroke="Black" points="180,-36 144,-36 144,0 180,0 180,-36"/>
</g>
<!-- w0_1&#45;&#45;w0_2 -->
<g id="edge33" class="edge">
<title>w0_1&#45;&#45;w0_2</title>
<path fill="none" stroke="SteelBlue" stroke-width="36" d="M108.17,-18C119,-18 132.71,-18 143.59,-18"/>
</g>
<!-- w6_0 -->
<g id="node10" class="node">
<title>w6_0</title>
<polygon fill="SteelBlue" stroke="Black" points="36,-468 0,-468 0,-432 36,-432 36,-468"/>
</g>
<!-- w6_1 -->
<g id="node17" class="node">
<title>w6_1</title>
<polygon fill="SteelBlue" stroke="Black" points="108,-468 72,-468 72,-432 108,-432 108,-468"/>
</g>
<!-- w6_0&#45;&#45;w6_1 -->
<g id="edge40" class="edge">
<title>w6_0&#45;&#45;w6_1</title>
<path fill="none" stroke="SteelBlue" stroke-width="36" d="M36.17,-450C47,-450 60.71,-450 71.59,-450"/>
</g>
<!-- w4_1 -->
<g id="node11" class="node">
<title>w4_1</title>
<polygon fill="SteelBlue" stroke="Black" points="108,-324 72,-324 72,-288 108,-288 108,-324"/>
</g>
<!-- w4_2 -->
<g id="node31" class="node">
<title>w4_2</title>
<polygon fill="SteelBlue" stroke="Black" points="180,-324 144,-324 144,-288 180,-288 180,-324"/>
</g>
<!-- w4_1&#45;&#45;w4_2 -->
<g id="edge28" class="edge">
<title>w4_1&#45;&#45;w4_2</title>
<path fill="none" stroke="SteelBlue" stroke-width="36" d="M108.17,-306C119,-306 132.71,-306 143.59,-306"/>
</g>
<!-- w2_4 -->
<g id="node12" class="node">
<title>w2_4</title>
<polygon fill="SteelBlue" stroke="Black" points="324,-180 288,-180 288,-144 324,-144 324,-180"/>
</g>
<!-- w2_4&#45;&#45;w2_5 -->
<g id="edge39" class="edge">
<title>w2_4&#45;&#45;w2_5</title>
<path fill="none" stroke="SteelBlue" stroke-width="36" d="M324.17,-162C335,-162 348.71,-162 359.59,-162"/>
</g>
<!-- w1_0 -->
<g id="node13" class="node">
<title>w1_0</title>
<polygon fill="SteelBlue" stroke="Black" points="36,-108 0,-108 0,-72 36,-72 36,-108"/>
</g>
<!-- w1_0&#45;&#45;w2_0 -->
<g id="edge19" class="edge">
<title>w1_0&#45;&#45;w2_0</title>
<path fill="none" stroke="SteelBlue" stroke-width="36" d="M18,-108.17C18,-119 18,-132.71 18,-143.59"/>
</g>
<!-- w4_0 -->
<g id="node14" class="node">
<title>w4_0</title>
<polygon fill="SteelBlue" stroke="Black" points="36,-324 0,-324 0,-288 36,-288 36,-324"/>
</g>
<!-- w5_0 -->
<g id="node47" class="node">
<title>w5_0</title>
<polygon fill="SteelBlue" stroke="Black" points="36,-396 0,-396 0,-360 36,-360 36,-396"/>
</g>
<!-- w4_0&#45;&#45;w5_0 -->
<g id="edge16" class="edge">
<title>w4_0&#45;&#45;w5_0</title>
<path fill="none" stroke="SteelBlue" stroke-width="36" d="M18,-324.17C18,-335 18,-348.71 18,-359.59"/>
</g>
<!-- w3_1 -->
<g id="node15" class="node">
<title>w3_1</title>
<polygon fill="SteelBlue" stroke="Black" points="108,-252 72,-252 72,-216 108,-216 108,-252"/>
</g>
<!-- w3_1&#45;&#45;w4_1 -->
<g id="edge14" class="edge">
<title>w3_1&#45;&#45;w4_1</title>
<path fill="none" stroke="SteelBlue" stroke-width="36" d="M90,-252.17C90,-263 90,-276.71 90,-287.59"/>
</g>
<!-- w3_6 -->
<g id="node35" class="node">
<title>w3_6</title>
<polygon fill="SteelBlue" stroke="Black" points="468,-252 432,-252 432,-216 468,-216 468,-252"/>
</g>
<!-- w2_6&#45;&#45;w3_6 -->
<g id="edge23" class="edge">
<title>w2_6&#45;&#45;w3_6</title>
<path fill="none" stroke="SteelBlue" stroke-width="36" d="M450,-180.17C450,-191 450,-204.71 450,-215.59"/>
</g>
<!-- w6_2 -->
<g id="node46" class="node">
<title>w6_2</title>
<polygon fill="SteelBlue" stroke="Black" points="180,-468 144,-468 144,-432 180,-432 180,-468"/>
</g>
<!-- w6_1&#45;&#45;w6_2 -->
<g id="edge41" class="edge">
<title>w6_1&#45;&#45;w6_2</title>
<path fill="none" stroke="SteelBlue" stroke-width="36" d="M108.17,-450C119,-450 132.71,-450 143.59,-450"/>
</g>
<!-- w3_5 -->
<g id="node45" class="node">
<title>w3_5</title>
<polygon fill="SteelBlue" stroke="Black" points="396,-252 360,-252 360,-216 396,-216 396,-252"/>
</g>
<!-- w2_5&#45;&#45;w3_5 -->
<g id="edge44" class="edge">
<title>w2_5&#45;&#45;w3_5</title>
<path fill="none" stroke="SteelBlue" stroke-width="36" d="M378,-180.17C378,-191 378,-204.71 378,-215.59"/>
</g>
<!-- w1_4 -->
<g id="node19" class="node">
<title>w1_4</title>
<polygon fill="SteelBlue" stroke="Black" points="324,-108 288,-108 288,-72 324,-72 324,-108"/>
</g>
<!-- w5_4 -->
<g id="node20" class="node">
<title>w5_4</title>
<polygon fill="SteelBlue" stroke="Black" points="324,-396 288,-396 288,-360 324,-360 324,-396"/>
</g>
<!-- w5_5 -->
<g id="node34" class="node">
<title>w5_5</title>
<polygon fill="SteelBlue" stroke="Black" points="396,-396 360,-396 360,-360 396,-360 396,-396"/>
</g>
<!-- w5_4&#45;&#45;w5_5 -->
<g id="edge8" class="edge">
<title>w5_4&#45;&#45;w5_5</title>
<path fill="none" stroke="SteelBlue" stroke-width="36" d="M324.17,-378C335,-378 348.71,-378 359.59,-378"/>
</g>
<!-- w4_3 -->
<g id="node21" class="node">
<title>w4_3</title>
<polygon fill="SteelBlue" stroke="Black" points="252,-324 216,-324 216,-288 252,-288 252,-324"/>
</g>
<!-- w4_4 -->
<g id="node28" class="node">
<title>w4_4</title>
<polygon fill="SteelBlue" stroke="Black" points="324,-324 288,-324 288,-288 324,-288 324,-324"/>
</g>
<!-- w4_3&#45;&#45;w4_4 -->
<g id="edge15" class="edge">
<title>w4_3&#45;&#45;w4_4</title>
<path fill="none" stroke="SteelBlue" stroke-width="36" d="M252.17,-306C263,-306 276.71,-306 287.59,-306"/>
</g>
<!-- w1_3 -->
<g id="node22" class="node">
<title>w1_3</title>
<polygon fill="SteelBlue" stroke="Black" points="252,-108 216,-108 216,-72 252,-72 252,-108"/>
</g>
<!-- w1_3&#45;&#45;w1_4 -->
<g id="edge27" class="edge">
<title>w1_3&#45;&#45;w1_4</title>
<path fill="none" stroke="SteelBlue" stroke-width="36" d="M252.17,-90C263,-90 276.71,-90 287.59,-90"/>
</g>
<!-- w3_0&#45;&#45;w4_0 -->
<g id="edge13" class="edge">
<title>w3_0&#45;&#45;w4_0</title>
<path fill="none" stroke="SteelBlue" stroke-width="36" d="M18,-252.17C18,-263 18,-276.71 18,-287.59"/>
</g>
<!-- w3_0&#45;&#45;w3_1 -->
<g id="edge11" class="edge">
<title>w3_0&#45;&#45;w3_1</title>
<path fill="none" stroke="SteelBlue" stroke-width="36" d="M36.17,-234C47,-234 60.71,-234 71.59,-234"/>
</g>
<!-- w5_1 -->
<g id="node24" class="node">
<title>w5_1</title>
<polygon fill="SteelBlue" stroke="Black" points="108,-396 72,-396 72,-360 108,-360 108,-396"/>
</g>
<!-- w5_2 -->
<g id="node38" class="node">
<title>w5_2</title>
<polygon fill="SteelBlue" stroke="Black" points="180,-396 144,-396 144,-360 180,-360 180,-396"/>
</g>
<!-- w5_1&#45;&#45;w5_2 -->
<g id="edge25" class="edge">
<title>w5_1&#45;&#45;w5_2</title>
<path fill="none" stroke="SteelBlue" stroke-width="36" d="M108.17,-378C119,-378 132.71,-378 143.59,-378"/>
</g>
<!-- w5_3 -->
<g id="node25" class="node">
<title>w5_3</title>
<polygon fill="SteelBlue" stroke="Black" points="252,-396 216,-396 216,-360 252,-360 252,-396"/>
</g>
<!-- w5_3&#45;&#45;w5_4 -->
<g id="edge7" class="edge">
<title>w5_3&#45;&#45;w5_4</title>
<path fill="none" stroke="SteelBlue" stroke-width="36" d="M252.17,-378C263,-378 276.71,-378 287.59,-378"/>
</g>
<!-- w5_6 -->
<g id="node26" class="node">
<title>w5_6</title>
<polygon fill="SteelBlue" stroke="Black" points="468,-396 432,-396 432,-360 468,-360 468,-396"/>
</g>
<!-- w1_1&#45;&#45;w1_2 -->
<g id="edge29" class="edge">
<title>w1_1&#45;&#45;w1_2</title>
<path fill="none" stroke="SteelBlue" stroke-width="36" d="M108.17,-90C119,-90 132.71,-90 143.59,-90"/>
</g>
<!-- w0_2&#45;&#45;w0_3 -->
<g id="edge10" class="edge">
<title>w0_2&#45;&#45;w0_3</title>
<path fill="none" stroke="SteelBlue" stroke-width="36" d="M180.17,-18C191,-18 204.71,-18 215.59,-18"/>
</g>
<!-- w6_4 -->
<g id="node30" class="node">
<title>w6_4</title>
<polygon fill="SteelBlue" stroke="Black" points="324,-468 288,-468 288,-432 324,-432 324,-468"/>
</g>
<!-- w6_5 -->
<g id="node36" class="node">
<title>w6_5</title>
<polygon fill="SteelBlue" stroke="Black" points="396,-468 360,-468 360,-432 396,-432 396,-468"/>
</g>
<!-- w6_4&#45;&#45;w6_5 -->
<g id="edge18" class="edge">
<title>w6_4&#45;&#45;w6_5</title>
<path fill="none" stroke="SteelBlue" stroke-width="36" d="M324.17,-450C335,-450 348.71,-450 359.59,-450"/>
</g>
<!-- w2_3 -->
<g id="node32" class="node">
<title>w2_3</title>
<polygon fill="SteelBlue" stroke="Black" points="252,-180 216,-180 216,-144 252,-144 252,-180"/>
</g>
<!-- w2_3&#45;&#45;w3_3 -->
<g id="edge4" class="edge">
<title>w2_3&#45;&#45;w3_3</title>
<path fill="none" stroke="SteelBlue" stroke-width="36" d="M234,-180.17C234,-191 234,-204.71 234,-215.59"/>
</g>
<!-- w2_3&#45;&#45;w2_4 -->
<g id="edge30" class="edge">
<title>w2_3&#45;&#45;w2_4</title>
<path fill="none" stroke="SteelBlue" stroke-width="36" d="M252.17,-162C263,-162 276.71,-162 287.59,-162"/>
</g>
<!-- w0_4&#45;&#45;w1_4 -->
<g id="edge26" class="edge">
<title>w0_4&#45;&#45;w1_4</title>
<path fill="none" stroke="SteelBlue" stroke-width="36" d="M306,-36.17C306,-47 306,-60.71 306,-71.59"/>
</g>
<!-- w0_5 -->
<g id="node41" class="node">
<title>w0_5</title>
<polygon fill="SteelBlue" stroke="Black" points="396,-36 360,-36 360,0 396,0 396,-36"/>
</g>
<!-- w0_4&#45;&#45;w0_5 -->
<g id="edge42" class="edge">
<title>w0_4&#45;&#45;w0_5</title>
<path fill="none" stroke="SteelBlue" stroke-width="36" d="M324.17,-18C335,-18 348.71,-18 359.59,-18"/>
</g>
<!-- w4_6 -->
<g id="node37" class="node">
<title>w4_6</title>
<polygon fill="SteelBlue" stroke="Black" points="468,-324 432,-324 432,-288 468,-288 468,-324"/>
</g>
<!-- w3_6&#45;&#45;w4_6 -->
<g id="edge37" class="edge">
<title>w3_6&#45;&#45;w4_6</title>
<path fill="none" stroke="SteelBlue" stroke-width="36" d="M450,-252.17C450,-263 450,-276.71 450,-287.59"/>
</g>
<!-- w4_6&#45;&#45;w5_6 -->
<g id="edge5" class="edge">
<title>w4_6&#45;&#45;w5_6</title>
<path fill="none" stroke="SteelBlue" stroke-width="36" d="M450,-324.17C450,-335 450,-348.71 450,-359.59"/>
</g>
<!-- w5_2&#45;&#45;w5_3 -->
<g id="edge24" class="edge">
<title>w5_2&#45;&#45;w5_3</title>
<path fill="none" stroke="SteelBlue" stroke-width="36" d="M180.17,-378C191,-378 204.71,-378 215.59,-378"/>
</g>
<!-- w2_2 -->
<g id="node39" class="node">
<title>w2_2</title>
<polygon fill="SteelBlue" stroke="Black" points="180,-180 144,-180 144,-144 180,-144 180,-180"/>
</g>
<!-- w2_2&#45;&#45;w2_3 -->
<g id="edge31" class="edge">
<title>w2_2&#45;&#45;w2_3</title>
<path fill="none" stroke="SteelBlue" stroke-width="36" d="M180.17,-162C191,-162 204.71,-162 215.59,-162"/>
</g>
<!-- w3_4 -->
<g id="node40" class="node">
<title>w3_4</title>
<polygon fill="SteelBlue" stroke="Black" points="324,-252 288,-252 288,-216 324,-216 324,-252"/>
</g>
<!-- w3_4&#45;&#45;w4_4 -->
<g id="edge2" class="edge">
<title>w3_4&#45;&#45;w4_4</title>
<path fill="none" stroke="SteelBlue" stroke-width="36" d="M306,-252.17C306,-263 306,-276.71 306,-287.59"/>
</g>
<!-- w3_4&#45;&#45;w3_5 -->
<g id="edge1" class="edge">
<title>w3_4&#45;&#45;w3_5</title>
<path fill="none" stroke="SteelBlue" stroke-width="36" d="M324.17,-234C335,-234 348.71,-234 359.59,-234"/>
</g>
<!-- w0_5&#45;&#45;w1_5 -->
<g id="edge35" class="edge">
<title>w0_5&#45;&#45;w1_5</title>
<path fill="none" stroke="SteelBlue" stroke-width="36" d="M378,-36.17C378,-47 378,-60.71 378,-71.59"/>
</g>
<!-- w0_6 -->
<g id="node43" class="node">
<title>w0_6</title>
<polygon fill="SteelBlue" stroke="Black" points="468,-36 432,-36 432,0 468,0 468,-36"/>
</g>
<!-- w0_5&#45;&#45;w0_6 -->
<g id="edge32" class="edge">
<title>w0_5&#45;&#45;w0_6</title>
<path fill="none" stroke="SteelBlue" stroke-width="36" d="M396.17,-18C407,-18 420.71,-18 431.59,-18"/>
</g>
<!-- w6_3 -->
<g id="node42" class="node">
<title>w6_3</title>
<polygon fill="SteelBlue" stroke="Black" points="252,-468 216,-468 216,-432 252,-432 252,-468"/>
</g>
<!-- w6_3&#45;&#45;w6_4 -->
<g id="edge17" class="edge">
<title>w6_3&#45;&#45;w6_4</title>
<path fill="none" stroke="SteelBlue" stroke-width="36" d="M252.17,-450C263,-450 276.71,-450 287.59,-450"/>
</g>
<!-- w0_6&#45;&#45;w1_6 -->
<g id="edge21" class="edge">
<title>w0_6&#45;&#45;w1_6</title>
<path fill="none" stroke="SteelBlue" stroke-width="36" d="M450,-36.17C450,-47 450,-60.71 450,-71.59"/>
</g>
<!-- w4_5 -->
<g id="node44" class="node">
<title>w4_5</title>
<polygon fill="SteelBlue" stroke="Black" points="396,-324 360,-324 360,-288 396,-288 396,-324"/>
</g>
<!-- w3_5&#45;&#45;w4_5 -->
<g id="edge6" class="edge">
<title>w3_5&#45;&#45;w4_5</title>
<path fill="none" stroke="SteelBlue" stroke-width="36" d="M378,-252.17C378,-263 378,-276.71 378,-287.59"/>
</g>
<!-- w6_2&#45;&#45;w6_3 -->
<g id="edge38" class="edge">
<title>w6_2&#45;&#45;w6_3</title>
<path fill="none" stroke="SteelBlue" stroke-width="36" d="M180.17,-450C191,-450 204.71,-450 215.59,-450"/>
</g>
<!-- w5_0&#45;&#45;w6_0 -->
<g id="edge43" class="edge">
<title>w5_0&#45;&#45;w6_0</title>
<path fill="none" stroke="SteelBlue" stroke-width="36" d="M18,-396.17C18,-407 18,-420.71 18,-431.59"/>
</g>
<!-- w5_0&#45;&#45;w5_1 -->
<g id="edge45" class="edge">
<title>w5_0&#45;&#45;w5_1</title>
<path fill="none" stroke="SteelBlue" stroke-width="36" d="M36.17,-378C47,-378 60.71,-378 71.59,-378"/>
</g>
</g>
</svg>
