<svg width="58pt" height="58pt"
 viewBox="0.00 0.00 58.00 58.00" xmlns="http://www.w3.org/2000/svg" xmlns:xlink="http://www.w3.org/1999/xlink">
<g id="graph0" class="graph" transform="scale(0.143564 0.143564) rotate(0) translate(4 400)">
<polygon fill="none" stroke="none" points="-4,4 -4,-400 400,-400 400,4 -4,4"/>
<!-- w1_1 -->
<g id="node1" class="node">
<title>w1_1</title>
<polygon fill="SteelBlue" stroke="Black" points="108,-108 72,-108 72,-72 108,-72 108,-108"/>
</g>
<!-- w2_1 -->
<g id="node16" class="node">
<title>w2_1</title>
<polygon fill="SteelBlue" stroke="Black" points="108,-180 72,-180 72,-144 108,-144 108,-180"/>
</g>
<!-- w1_1&#45;&#45;w2_1 -->
<g id="edge19" class="edge">
<title>w1_1&#45;&#45;w2_1</title>
<path fill="none" stroke="SteelBlue" stroke-width="36" d="M90,-108.17C90,-119 90,-132.71 90,-143.59"/>
</g>
<!-- w1_4 -->
<g id="node2" class="node">
<title>w1_4</title>
<polygon fill="SteelBlue" stroke="Black" points="324,-108 288,-108 288,-72 324,-72 324,-108"/>
</g>
<!-- w2_4 -->
<g id="node22" class="node">
<title>w2_4</title>
<polygon fill="SteelBlue" stroke="Black" points="324,-180 288,-180 288,-144 324,-144 324,-180"/>
</g>
<!-- w1_4&#45;&#45;w2_4 -->
<g id="edge23" class="edge">
<title>w1_4&#45;&#45;w2_4</title>
<path fill="none" stroke="SteelBlue" stroke-width="36" d="M306,-108.17C306,-119 306,-132.71 306,-143.59"/>
</g>
<!-- w0_1 -->
<g id="node3" class="node">
<title>w0_1</title>
<polygon fill="SteelBlue" stroke="Black" points="108,-36 72,-36 72,0 108,0 108,-36"/>
</g>
<!-- w0_1&#45;&#45;w1_1 -->
<g id="edge20" class="edge">
<title>w0_1&#45;&#45;w1_1</title>
<path fill="none" stroke="SteelBlue" stroke-width="36" d="M90,-36.17C90,-47 90,-60.71 90,-71.59"/>
</g>
<!-- w0_2 -->
<g id="node14" class="node">
<title>w0_2</title>
<polygon fill="SteelBlue" stroke="Black" points="180,-36 144,-36 144,0 180,0 180,-36"/>
</g>
<!-- w0_1&#45;&#45;w0_2 -->
<g id="edge21" class="edge">
<title>w0_1&#45;&#45;w0_2</title>
<path fill="none" stroke="SteelBlue" stroke-width="36" d="M108.17,-18C119,-18 132.71,-18 143.59,-18"/>
</g>
<!-- w2_5 -->
<g id="node4" class="node">
<title>w2_5</title>
<polygon fill="SteelBlue" stroke="Black" points="396,-180 360,-180 360,-144 396,-144 396,-180"/>
</g>
<!-- w3_5 -->
<g id="node12" class="node">
<title>w3_5</title>
<polygon fill="SteelBlue" stroke="Black" points="396,-252 360,-252 360,-216 396,-216 396,-252"/>
</g>
<!-- w2_5&#45;&#45;w3_5 -->
<g id="edge29" class="edge">
<title>w2_5&#45;&#45;w3_5</title>
<path fill="none" stroke="SteelBlue" stroke-width="36" d="M378,-180.17C378,-191 378,-204.71 378,-215.59"/>
</g>
<!-- w0_5 -->
<g id="node5" class="node">
<title>w0_5</title>
<polygon fill="SteelBlue" stroke="Black" points="396,-36 360,-36 360,0 396,0 396,-36"/>
</g>
<!-- w1_5 -->
<g id="node28" class="node">
<title>w1_5</title>
<polygon fill="SteelBlue" stroke="Black" points="396,-108 360,-108 360,-72 396,-72 396,-108"/>
</g>
<!-- w0_5&#45;&#45;w1_5 -->
<g id="edge7" class="edge">
<title>w0_5&#45;&#45;w1_5</title>
<path fill="none" stroke="SteelBlue" stroke-width="36" d="M378,-36.17C378,-47 378,-60.71 378,-71.59"/>
</g>
<!-- w0_3 -->
<g id="node6" class="node">
<title>w0_3</title>
<polygon fill="SteelBlue" stroke="Black" points="252,-36 216,-36 216,0 252,0 252,-36"/>
</g>
<!-- w0_4 -->
<g id="node33" class="node">
<title>w0_4</title>
<polygon fill="SteelBlue" stroke="Black" points="324,-36 288,-36 288,0 324,0 324,-36"/>
</g>
<!-- w0_3&#45;&#45;w0_4 -->
<g id="edge26" class="edge">
<title>w0_3&#45;&#45;w0_4</title>
<path fill="none" stroke="SteelBlue" stroke-width="36" d="M252.17,-18C263,-18 276.71,-18 287.59,-18"/>
</g>
<!-- w2_2 -->
<g id="node7" class="node">
<title>w2_2</title>
<polygon fill="SteelBlue" stroke="Black" points="180,-180 144,-180 144,-144 180,-144 180,-180"/>
</g>
<!-- w2_3 -->
<g id="node8" class="node">
<title>w2_3</title>
<polygon fill="SteelBlue" stroke="Black" points="252,-180 216,-180 216,-144 252,-144 252,-180"/>
</g>
<!-- w3_3 -->
<g id="node26" class="node">
<title>w3_3</title>
<polygon fill="SteelBlue" stroke="Black" points="252,-252 216,-252 216,-216 252,-216 252,-252"/>
</g>
<!-- w2_3&#45;&#45;w3_3 -->
<g id="edge32" class="edge">
<title>w2_3&#45;&#45;w3_3</title>
<path fill="none" stroke="SteelBlue" stroke-width="36" d="M234,-180.17C234,-191 234,-204.71 234,-215.59"/>
</g>
<!-- w5_1 -->
<g id="node9" class="node">
<title>w5_1</title>
<polygon fill="SteelBlue" stroke="Black" points="108,-396 72,-396 72,-360 108,-360 108,-396"/>
</g>
<!-- w5_2 -->
<g id="node23" class="node">
<title>w5_2</title>
<polygon fill="SteelBlue" stroke="Black" points="180,-396 144,-396 144,-360 180,-360 180,-396"/>
</g>
<!-- w5_1&#45;&#45;w5_2 -->
<g id="edge5" class="edge">
<title>w5_1&#45;&#45;w5_2</title>
<path fill="none" stroke="SteelBlue" stroke-width="36" d="M108.17,-378C119,-378 132.71,-378 143.59,-378"/>
</g>
<!-- w4_0 -->
<g id="node10" class="node">
<title>w4_0</title>
<polygon fill="SteelBlue" stroke="Black" points="36,-324 0,-324 0,-288 36,-288 36,-324"/>
</g>
<!-- w5_0 -->
<g id="node32" class="node">
<title>w5_0</title>
<polygon fill="SteelBlue" stroke="Black" points="36,-396 0,-396 0,-360 36,-360 36,-396"/>
</g>
<!-- w4_0&#45;&#45;w5_0 -->
<g id="edge2" class="edge">
<title>w4_0&#45;&#45;w5_0</title>
<path fill="none" stroke="SteelBlue" stroke-width="36" d="M18,-324.17C18,-335 18,-348.71 18,-359.59"/>
</g>
<!-- w2_0 -->
<g id="node11" class="node">
<title>w2_0</title>
<polygon fill="SteelBlue" stroke="Black" points="36,-180 0,-180 0,-144 36,-144 36,-180"/>
</g>
<!-- w3_0 -->
<g id="node27" class="node">
<title>w3_0</title>
<polygon fill="SteelBlue" stroke="Black" points="36,-252 0,-252 0,-216 36,-216 36,-252"/>
</g>
<!-- w2_0&#45;&#45;w3_0 -->
<g id="edge17" class="edge">
<title>w2_0&#45;&#45;w3_0</title>
<path fill="none" stroke="SteelBlue" stroke-width="36" d="M18,-180.17C18,-191 18,-204.71 18,-215.59"/>
</g>
<!-- w4_5 -->
<g id="node17" class="node">
<title>w4_5</title>
<polygon fill="SteelBlue" stroke="Black" points="396,-324 360,-324 360,-288 396,-288 396,-324"/>
</g>
<!-- w3_5&#45;&#45;w4_5 -->
<g id="edge3" class="edge">
<title>w3_5&#45;&#45;w4_5</title>
<path fill="none" stroke="SteelBlue" stroke-width="36" d="M378,-252.17C378,-263 378,-276.71 378,-287.59"/>
</g>
<!-- w1_2 -->
<g id="node13" class="node">
<title>w1_2</title>
<polygon fill="SteelBlue" stroke="Black" points="180,-108 144,-108 144,-72 180,-72 180,-108"/>
</g>
<!-- w1_3 -->
<g id="node15" class="node">
<title>w1_3</title>
<polygon fill="SteelBlue" stroke="Black" points="252,-108 216,-108 216,-72 252,-72 252,-108"/>
</g>
<!-- w1_2&#45;&#45;w1_3 -->
<g id="edge10" class="edge">
<title>w1_2&#45;&#45;w1_3</title>
<path fill="none" stroke="SteelBlue" stroke-width="36" d="M180.17,-90C191,-90 204.71,-90 215.59,-90"/>
</g>
<!-- w0_2&#45;&#45;w0_3 -->
<g id="edge31" class="edge">
<title>w0_2&#45;&#45;w0_3</title>
<path fill="none" stroke="SteelBlue" stroke-width="36" d="M180.17,-18C191,-18 204.71,-18 215.59,-18"/>
</g>
<!-- w1_3&#45;&#45;w1_4 -->
<g id="edge11" class="edge">
<title>w1_3&#45;&#45;w1_4</title>
<path fill="none" stroke="SteelBlue" stroke-width="36" d="M252.17,-90C263,-90 276.71,-90 287.59,-90"/>
</g>
<!-- w1_3&#45;&#45;w2_3 -->
<g id="edge9" class="edge">
<title>w1_3&#45;&#45;w2_3</title>
<path fill="none" stroke="SteelBlue" stroke-width="36" d="M234,-108.17C234,-119 234,-132.71 234,-143.59"/>
</g>
<!-- w2_1&#45;&#45;w2_2 -->
<g id="edge12" class="edge">
<title>w2_1&#45;&#45;w2_2</title>
<path fill="none" stroke="SteelBlue" stroke-width="36" d="M108.17,-162C119,-162 132.71,-162 143.59,-162"/>
</g>
<!-- w3_1 -->
<g id="node21" class="node">
<title>w3_1</title>
<polygon fill="SteelBlue" stroke="Black" points="108,-252 72,-252 72,-216 108,-216 108,-252"/>
</g>
<!-- w2_1&#45;&#45;w3_1 -->
<g id="edge16" class="edge">
<title>w2_1&#45;&#45;w3_1</title>
<path fill="none" stroke="SteelBlue" stroke-width="36" d="M90,-180.17C90,-191 90,-204.71 90,-215.59"/>
</g>
<!-- w4_3 -->
<g id="node18" class="node">
<title>w4_3</title>
<polygon fill="SteelBlue" stroke="Black" points="252,-324 216,-324 216,-288 252,-288 252,-324"/>
</g>
<!-- w5_3 -->
<g id="node29" class="node">
<title>w5_3</title>
<polygon fill="SteelBlue" stroke="Black" points="252,-396 216,-396 216,-360 252,-360 252,-396"/>
</g>
<!-- w4_3&#45;&#45;w5_3 -->
<g id="edge25" class="edge">
<title>w4_3&#45;&#45;w5_3</title>
<path fill="none" stroke="SteelBlue" stroke-width="36" d="M234,-324.17C234,-335 234,-348.71 234,-359.59"/>
</g>
<!-- w5_4 -->
<g id="node19" class="node">
<title>w5_4</title>
<polygon fill="SteelBlue" stroke="Black" points="324,-396 288,-396 288,-360 324,-360 324,-396"/>
</g>
<!-- w3_2 -->
<g id="node20" class="node">
<title>w3_2</title>
<polygon fill="SteelBlue" stroke="Black" points="180,-252 144,-252 144,-216 180,-216 180,-252"/>
</g>
<!-- w4_2 -->
<g id="node34" class="node">
<title>w4_2</title>
<polygon fill="SteelBlue" stroke="Black" points="180,-324 144,-324 144,-288 180,-288 180,-324"/>
</g>
<!-- w3_2&#45;&#45;w4_2 -->
<g id="edge14" class="edge">
<title>w3_2&#45;&#45;w4_2</title>
<path fill="none" stroke="SteelBlue" stroke-width="36" d="M162,-252.17C162,-263 162,-276.71 162,-287.59"/>
</g>
<!-- w5_2&#45;&#45;w5_3 -->
<g id="edge13" class="edge">
<title>w5_2&#45;&#45;w5_3</title>
<path fill="none" stroke="SteelBlue" stroke-width="36" d="M180.17,-378C191,-378 204.71,-378 215.59,-378"/>
</g>
<!-- w4_1 -->
<g id="node24" class="node">
<title>w4_1</title>
<polygon fill="SteelBlue" stroke="Black" points="108,-324 72,-324 72,-288 108,-288 108,-324"/>
</g>
<!-- w4_1&#45;&#45;w5_1 -->
<g id="edge6" class="edge">
<title>w4_1&#45;&#45;w5_1</title>
<path fill="none" stroke="SteelBlue" stroke-width="36" d="M90,-324.17C90,-335 90,-348.71 90,-359.59"/>
</g>
<!-- w4_4 -->
<g id="node25" class="node">
<title>w4_4</title>
<polygon fill="SteelBlue" stroke="Black" points="324,-324 288,-324 288,-288 324,-288 324,-324"/>
</g>
<!-- w4_4&#45;&#45;w5_4 -->
<g id="edge28" class="edge">
<title>w4_4&#45;&#45;w5_4</title>
<path fill="none" stroke="SteelBlue" stroke-width="36" d="M306,-324.17C306,-335 306,-348.71 306,-359.59"/>
</g>
<!-- w3_0&#45;&#45;w4_0 -->
<g id="edge1" class="edge">
<title>w3_0&#45;&#45;w4_0</title>
<path fill="none" stroke="SteelBlue" stroke-width="36" d="M18,-252.17C18,-263 18,-276.71 18,-287.59"/>
</g>
<!-- w1_5&#45;&#45;w2_5 -->
<g id="edge30" class="edge">
<title>w1_5&#45;&#45;w2_5</title>
<path fill="none" stroke="SteelBlue" stroke-width="36" d="M378,-108.17C378,-119 378,-132.71 378,-143.59"/>
</g>
<!-- w5_3&#45;&#45;w5_4 -->
<g id="edge27" class="edge">
<title>w5_3&#45;&#45;w5_4</title>
<path fill="none" stroke="SteelBlue" stroke-width="36" d="M252.17,-378C263,-378 276.71,-378 287.59,-378"/>
</g>
<!-- w1_0 -->
<g id="node30" class="node">
<title>w1_0</title>
<polygon fill="SteelBlue" stroke="Black" points="36,-108 0,-108 0,-72 36,-72 36,-108"/>
</g>
<!-- w1_0&#45;&#45;w2_0 -->
<g id="edge18" class="edge">
<title>w1_0&#45;&#45;w2_0</title>
<path fill="none" stroke="SteelBlue" stroke-width="36" d="M18,-108.17C18,-119 18,-132.71 18,-143.59"/>
</g>
<!-- w3_4 -->
<g id="node31" class="node">
<title>w3_4</title>
<polygon fill="SteelBlue" stroke="Black" points="324,-252 288,-252 288,-216 324,-216 324,-252"/>
</g>
<!-- w3_4&#45;&#45;w4_4 -->
<g id="edge22" class="edge">
<title>w3_4&#45;&#45;w4_4</title>
<path fill="none" stroke="SteelBlue" stroke-width="36" d="M306,-252.17C306,-263 306,-276.71 306,-287.59"/>
</g>
<!-- w5_0&#45;&#45;w5_1 -->
<g id="edge4" class="edge">
<title>w5_0&#45;&#45;w5_1</title>
<path fill="none" stroke="SteelBlue" stroke-width="36" d="M36.17,-378C47,-378 60.71,-378 71.59,-378"/>
</g>
<!-- w0_4&#45;&#45;w1_4 -->
<g id="edge24" class="edge">
<title>w0_4&#45;&#45;w1_4</title>
<path fill="none" stroke="SteelBlue" stroke-width="36" d="M306,-36.17C306,-47 306,-60.71 306,-71.59"/>
</g>
<!-- w0_4&#45;&#45;w0_5 -->
<g id="edge8" class="edge">
<title>w0_4&#45;&#45;w0_5</title>
<path fill="none" stroke="SteelBlue" stroke-width="36" d="M324.17,-18C335,-18 348.71,-18 359.59,-18"/>
</g>
<!-- w4_2&#45;&#45;w4_3 -->
<g id="edge15" class="edge">
<title>w4_2&#45;&#45;w4_3</title>
<path fill="none" stroke="SteelBlue" stroke-width="36" d="M180.17,-306C191,-306 204.71,-306 215.59,-306"/>
</g>
</g>
</svg>
