<?xml version="1.0" encoding="UTF-8" standalone="no"?>
<!DOCTYPE svg PUBLIC "-//W3C//DTD SVG 1.1//EN"
        "http://www.w3.org/Graphics/SVG/1.1/DTD/svg11.dtd">
<!-- Generated by graphviz version 11.0.0 (20240428.1522)
 -->
<!-- Pages: 1 -->
<svg width="566pt" height="202pt"
     viewBox="0.00 0.00 566.00 202.40" xmlns="http://www.w3.org/2000/svg" xmlns:xlink="http://www.w3.org/1999/xlink">
    <g id="graph0" class="graph" transform="scale(1 1) rotate(0) translate(4 198.4)">
        <polygon fill="#1f1f1f" stroke="none" points="-4,4 -4,-198.4 562,-198.4 562,4 -4,4"/>
        <!-- f(f(f(x))) -->
        <g id="node1" class="node">
            <title>f(f(f(x)))</title>
            <polygon fill="SteelBlue" stroke="Black" points="54,-21.6 0,-21.6 0,0 54,0 54,-21.6"/>
            <text text-anchor="middle" x="27" y="-6.52" font-family="Times,serif" font-size="12.00" fill="White">f(f(f(x)))</text>
        </g>
        <!-- f(f(g(x))) -->
        <g id="node2" class="node">
            <title>f(f(g(x)))</title>
            <polygon fill="SteelBlue" stroke="Black" points="342,-21.6 288,-21.6 288,0 342,0 342,-21.6"/>
            <text text-anchor="middle" x="315" y="-6.52" font-family="Times,serif" font-size="12.00" fill="White">f(f(g(x)))</text>
        </g>
        <!-- f(f(x)) -->
        <g id="node3" class="node">
            <title>f(f(x))</title>
            <polygon fill="SteelBlue" stroke="Black" points="126,-79.2 72,-79.2 72,-57.6 126,-57.6 126,-79.2"/>
            <text text-anchor="middle" x="99" y="-64.12" font-family="Times,serif" font-size="12.00" fill="White">f(f(x))</text>
        </g>
        <!-- f(f(x))&#45;&gt;f(f(f(x))) -->
        <g id="edge4" class="edge">
            <title>f(f(x))&#45;&gt;f(f(f(x)))</title>
            <path fill="none" stroke="SteelBlue" stroke-width="2" d="M85.79,-57.2C75.85,-49.52 61.96,-38.8 50.18,-29.7"/>
            <polygon fill="SteelBlue" stroke="SteelBlue" stroke-width="2" points="52.57,-27.13 42.52,-23.78 48.29,-32.67 52.57,-27.13"/>
        </g>
        <!-- g(f(f(x))) -->
        <g id="node8" class="node">
            <title>g(f(f(x)))</title>
            <polygon fill="SteelBlue" stroke="Black" points="126,-21.6 72,-21.6 72,0 126,0 126,-21.6"/>
            <text text-anchor="middle" x="99" y="-6.52" font-family="Times,serif" font-size="12.00" fill="White">g(f(f(x)))</text>
        </g>
        <!-- f(f(x))&#45;&gt;g(f(f(x))) -->
        <g id="edge3" class="edge">
            <title>f(f(x))&#45;&gt;g(f(f(x)))</title>
            <path fill="none" stroke="SteelBlue" stroke-width="2" d="M99,-57.2C99,-50.93 99,-42.63 99,-34.85"/>
            <polygon fill="SteelBlue" stroke="SteelBlue" stroke-width="2" points="102.5,-34.96 99,-24.96 95.5,-34.96 102.5,-34.96"/>
        </g>
        <!-- f(g(f(x))) -->
        <g id="node4" class="node">
            <title>f(g(f(x)))</title>
            <polygon fill="SteelBlue" stroke="Black" points="198,-21.6 144,-21.6 144,0 198,0 198,-21.6"/>
            <text text-anchor="middle" x="171" y="-6.52" font-family="Times,serif" font-size="12.00" fill="White">f(g(f(x)))</text>
        </g>
        <!-- f(g(g(x))) -->
        <g id="node5" class="node">
            <title>f(g(g(x)))</title>
            <polygon fill="SteelBlue" stroke="Black" points="486,-21.6 432,-21.6 432,0 486,0 486,-21.6"/>
            <text text-anchor="middle" x="459" y="-6.52" font-family="Times,serif" font-size="12.00" fill="White">f(g(g(x)))</text>
        </g>
        <!-- f(g(x)) -->
        <g id="node6" class="node">
            <title>f(g(x))</title>
            <polygon fill="SteelBlue" stroke="Black" points="378,-79.2 324,-79.2 324,-57.6 378,-57.6 378,-79.2"/>
            <text text-anchor="middle" x="351" y="-64.12" font-family="Times,serif" font-size="12.00" fill="White">f(g(x))</text>
        </g>
        <!-- f(g(x))&#45;&gt;f(f(g(x))) -->
        <g id="edge9" class="edge">
            <title>f(g(x))&#45;&gt;f(f(g(x)))</title>
            <path fill="none" stroke="SteelBlue" stroke-width="2" d="M344.4,-57.2C339.98,-50.38 334.01,-41.16 328.61,-32.82"/>
            <polygon fill="SteelBlue" stroke="SteelBlue" stroke-width="2" points="331.58,-30.97 323.21,-24.47 325.7,-34.77 331.58,-30.97"/>
        </g>
        <!-- g(f(g(x))) -->
        <g id="node9" class="node">
            <title>g(f(g(x)))</title>
            <polygon fill="SteelBlue" stroke="Black" points="414,-21.6 360,-21.6 360,0 414,0 414,-21.6"/>
            <text text-anchor="middle" x="387" y="-6.52" font-family="Times,serif" font-size="12.00" fill="White">g(f(g(x)))</text>
        </g>
        <!-- f(g(x))&#45;&gt;g(f(g(x))) -->
        <g id="edge10" class="edge">
            <title>f(g(x))&#45;&gt;g(f(g(x)))</title>
            <path fill="none" stroke="SteelBlue" stroke-width="2" d="M357.6,-57.2C362.02,-50.38 367.99,-41.16 373.39,-32.82"/>
            <polygon fill="SteelBlue" stroke="SteelBlue" stroke-width="2" points="376.3,-34.77 378.79,-24.47 370.42,-30.97 376.3,-34.77"/>
        </g>
        <!-- f(x) -->
        <g id="node7" class="node">
            <title>f(x)</title>
            <polygon fill="SteelBlue" stroke="Black" points="234,-136.8 180,-136.8 180,-115.2 234,-115.2 234,-136.8"/>
            <text text-anchor="middle" x="207" y="-121.72" font-family="Times,serif" font-size="12.00" fill="White">f(x)</text>
        </g>
        <!-- f(x)&#45;&gt;f(f(x)) -->
        <g id="edge12" class="edge">
            <title>f(x)&#45;&gt;f(f(x))</title>
            <path fill="none" stroke="SteelBlue" stroke-width="2" d="M187.19,-114.8C171.21,-106.57 148.43,-94.85 130.03,-85.37"/>
            <polygon fill="SteelBlue" stroke="SteelBlue" stroke-width="2" points="131.87,-82.38 121.37,-80.92 128.66,-88.61 131.87,-82.38"/>
        </g>
        <!-- g(f(x)) -->
        <g id="node10" class="node">
            <title>g(f(x))</title>
            <polygon fill="SteelBlue" stroke="Black" points="234,-79.2 180,-79.2 180,-57.6 234,-57.6 234,-79.2"/>
            <text text-anchor="middle" x="207" y="-64.12" font-family="Times,serif" font-size="12.00" fill="White">g(f(x))</text>
        </g>
        <!-- f(x)&#45;&gt;g(f(x)) -->
        <g id="edge11" class="edge">
            <title>f(x)&#45;&gt;g(f(x))</title>
            <path fill="none" stroke="SteelBlue" stroke-width="2" d="M207,-114.8C207,-108.53 207,-100.23 207,-92.45"/>
            <polygon fill="SteelBlue" stroke="SteelBlue" stroke-width="2" points="210.5,-92.56 207,-82.56 203.5,-92.56 210.5,-92.56"/>
        </g>
        <!-- g(f(x))&#45;&gt;f(g(f(x))) -->
        <g id="edge5" class="edge">
            <title>g(f(x))&#45;&gt;f(g(f(x)))</title>
            <path fill="none" stroke="SteelBlue" stroke-width="2" d="M200.4,-57.2C195.98,-50.38 190.01,-41.16 184.61,-32.82"/>
            <polygon fill="SteelBlue" stroke="SteelBlue" stroke-width="2" points="187.58,-30.97 179.21,-24.47 181.7,-34.77 187.58,-30.97"/>
        </g>
        <!-- g(g(f(x))) -->
        <g id="node11" class="node">
            <title>g(g(f(x)))</title>
            <polygon fill="SteelBlue" stroke="Black" points="270,-21.6 216,-21.6 216,0 270,0 270,-21.6"/>
            <text text-anchor="middle" x="243" y="-6.52" font-family="Times,serif" font-size="12.00" fill="White">g(g(f(x)))</text>
        </g>
        <!-- g(f(x))&#45;&gt;g(g(f(x))) -->
        <g id="edge6" class="edge">
            <title>g(f(x))&#45;&gt;g(g(f(x)))</title>
            <path fill="none" stroke="SteelBlue" stroke-width="2" d="M213.6,-57.2C218.02,-50.38 223.99,-41.16 229.39,-32.82"/>
            <polygon fill="SteelBlue" stroke="SteelBlue" stroke-width="2" points="232.3,-34.77 234.79,-24.47 226.42,-30.97 232.3,-34.77"/>
        </g>
        <!-- g(g(g(x))) -->
        <g id="node12" class="node">
            <title>g(g(g(x)))</title>
            <polygon fill="SteelBlue" stroke="Black" points="558,-21.6 504,-21.6 504,0 558,0 558,-21.6"/>
            <text text-anchor="middle" x="531" y="-6.52" font-family="Times,serif" font-size="12.00" fill="White">g(g(g(x)))</text>
        </g>
        <!-- g(g(x)) -->
        <g id="node13" class="node">
            <title>g(g(x))</title>
            <polygon fill="SteelBlue" stroke="Black" points="486,-79.2 432,-79.2 432,-57.6 486,-57.6 486,-79.2"/>
            <text text-anchor="middle" x="459" y="-64.12" font-family="Times,serif" font-size="12.00" fill="White">g(g(x))</text>
        </g>
        <!-- g(g(x))&#45;&gt;f(g(g(x))) -->
        <g id="edge7" class="edge">
            <title>g(g(x))&#45;&gt;f(g(g(x)))</title>
            <path fill="none" stroke="SteelBlue" stroke-width="2" d="M459,-57.2C459,-50.93 459,-42.63 459,-34.85"/>
            <polygon fill="SteelBlue" stroke="SteelBlue" stroke-width="2" points="462.5,-34.96 459,-24.96 455.5,-34.96 462.5,-34.96"/>
        </g>
        <!-- g(g(x))&#45;&gt;g(g(g(x))) -->
        <g id="edge8" class="edge">
            <title>g(g(x))&#45;&gt;g(g(g(x)))</title>
            <path fill="none" stroke="SteelBlue" stroke-width="2" d="M472.21,-57.2C482.15,-49.52 496.04,-38.8 507.82,-29.7"/>
            <polygon fill="SteelBlue" stroke="SteelBlue" stroke-width="2" points="509.71,-32.67 515.48,-23.78 505.43,-27.13 509.71,-32.67"/>
        </g>
        <!-- g(x) -->
        <g id="node14" class="node">
            <title>g(x)</title>
            <polygon fill="SteelBlue" stroke="Black" points="378,-136.8 324,-136.8 324,-115.2 378,-115.2 378,-136.8"/>
            <text text-anchor="middle" x="351" y="-121.72" font-family="Times,serif" font-size="12.00" fill="White">g(x)</text>
        </g>
        <!-- g(x)&#45;&gt;f(g(x)) -->
        <g id="edge1" class="edge">
            <title>g(x)&#45;&gt;f(g(x))</title>
            <path fill="none" stroke="SteelBlue" stroke-width="2" d="M351,-114.8C351,-108.53 351,-100.23 351,-92.45"/>
            <polygon fill="SteelBlue" stroke="SteelBlue" stroke-width="2" points="354.5,-92.56 351,-82.56 347.5,-92.56 354.5,-92.56"/>
        </g>
        <!-- g(x)&#45;&gt;g(g(x)) -->
        <g id="edge2" class="edge">
            <title>g(x)&#45;&gt;g(g(x))</title>
            <path fill="none" stroke="SteelBlue" stroke-width="2" d="M370.81,-114.8C386.79,-106.57 409.57,-94.85 427.97,-85.37"/>
            <polygon fill="SteelBlue" stroke="SteelBlue" stroke-width="2" points="429.34,-88.61 436.63,-80.92 426.13,-82.38 429.34,-88.61"/>
        </g>
        <!-- x -->
        <g id="node15" class="node">
            <title>x</title>
            <polygon fill="SteelBlue" stroke="Black" points="306,-194.4 252,-194.4 252,-172.8 306,-172.8 306,-194.4"/>
            <text text-anchor="middle" x="279" y="-179.32" font-family="Times,serif" font-size="12.00" fill="White">x</text>
        </g>
        <!-- x&#45;&gt;f(x) -->
        <g id="edge13" class="edge">
            <title>x&#45;&gt;f(x)</title>
            <path fill="none" stroke="SteelBlue" stroke-width="2" d="M265.79,-172.4C255.85,-164.72 241.96,-154 230.18,-144.9"/>
            <polygon fill="SteelBlue" stroke="SteelBlue" stroke-width="2" points="232.57,-142.33 222.52,-138.98 228.29,-147.87 232.57,-142.33"/>
        </g>
        <!-- x&#45;&gt;g(x) -->
        <g id="edge14" class="edge">
            <title>x&#45;&gt;g(x)</title>
            <path fill="none" stroke="SteelBlue" stroke-width="2" d="M292.21,-172.4C302.15,-164.72 316.04,-154 327.82,-144.9"/>
            <polygon fill="SteelBlue" stroke="SteelBlue" stroke-width="2" points="329.71,-147.87 335.48,-138.98 325.43,-142.33 329.71,-147.87"/>
        </g>
    </g>
</svg>