<?xml version="1.0" encoding="UTF-8" standalone="no"?>
<!DOCTYPE svg PUBLIC "-//W3C//DTD SVG 1.1//EN"
        "http://www.w3.org/Graphics/SVG/1.1/DTD/svg11.dtd">
<!-- Generated by graphviz version 11.0.0 (20240428.1522)
 -->
<!-- Pages: 1 -->
<svg width="362pt" height="270pt"
     viewBox="0.00 0.00 361.99 269.83" xmlns="http://www.w3.org/2000/svg" xmlns:xlink="http://www.w3.org/1999/xlink">
    <g id="graph0" class="graph" transform="scale(1 1) rotate(0) translate(4 265.83)">
        <polygon fill="#1f1f1f" stroke="none" points="-4,4 -4,-265.83 357.99,-265.83 357.99,4 -4,4"/>
        <!-- 0 -->
        <g id="node1" class="node">
            <title>0</title>
            <ellipse fill="SteelBlue" stroke="Black" cx="246.89" cy="-186.78" rx="10.8" ry="10.8"/>
            <text text-anchor="middle" x="246.89" y="-182.51" font-family="Times,serif" font-size="12.00" fill="White">0</text>
        </g>
        <!-- 1 -->
        <g id="node2" class="node">
            <title>1</title>
            <ellipse fill="SteelBlue" stroke="Black" cx="159.36" cy="-205.43" rx="10.8" ry="10.8"/>
            <text text-anchor="middle" x="159.36" y="-201.16" font-family="Times,serif" font-size="12.00" fill="White">1</text>
        </g>
        <!-- 0&#45;&gt;1 -->
        <g id="edge8" class="edge">
            <title>0&#45;&gt;1</title>
            <path fill="none" stroke="SteelBlue" stroke-width="2" d="M236.16,-189.07C222.97,-191.88 200.21,-196.73 182.88,-200.42"/>
            <polygon fill="SteelBlue" stroke="SteelBlue" stroke-width="2" points="182.19,-196.99 173.14,-202.49 183.65,-203.83 182.19,-196.99"/>
        </g>
        <!-- 2 -->
        <g id="node3" class="node">
            <title>2</title>
            <ellipse fill="SteelBlue" stroke="Black" cx="79.1" cy="-168.66" rx="10.8" ry="10.8"/>
            <text text-anchor="middle" x="79.1" y="-164.39" font-family="Times,serif" font-size="12.00" fill="White">2</text>
        </g>
        <!-- 1&#45;&gt;2 -->
        <g id="edge1" class="edge">
            <title>1&#45;&gt;2</title>
            <path fill="none" stroke="SteelBlue" stroke-width="2" d="M149.2,-200.77C137.14,-195.25 116.68,-185.88 100.98,-178.68"/>
            <polygon fill="SteelBlue" stroke="SteelBlue" stroke-width="2" points="102.49,-175.52 91.94,-174.54 99.57,-181.89 102.49,-175.52"/>
        </g>
        <!-- 5 -->
        <g id="node6" class="node">
            <title>5</title>
            <ellipse fill="SteelBlue" stroke="Black" cx="101.49" cy="-77.42" rx="10.8" ry="10.8"/>
            <text text-anchor="middle" x="101.49" y="-73.14" font-family="Times,serif" font-size="12.00" fill="White">5</text>
        </g>
        <!-- 2&#45;&gt;5 -->
        <g id="edge9" class="edge">
            <title>2&#45;&gt;5</title>
            <path fill="none" stroke="SteelBlue" stroke-width="2" d="M81.76,-157.84C85.19,-143.84 91.26,-119.09 95.77,-100.74"/>
            <polygon fill="SteelBlue" stroke="SteelBlue" stroke-width="2" points="99.13,-101.71 98.12,-91.17 92.33,-100.04 99.13,-101.71"/>
        </g>
        <!-- 3 -->
        <g id="node4" class="node">
            <title>3</title>
            <ellipse fill="SteelBlue" stroke="Black" cx="291.1" cy="-251.03" rx="10.8" ry="10.8"/>
            <text text-anchor="middle" x="291.1" y="-246.76" font-family="Times,serif" font-size="12.00" fill="White">3</text>
        </g>
        <!-- 3&#45;&gt;0 -->
        <g id="edge3" class="edge">
            <title>3&#45;&gt;0</title>
            <path fill="none" stroke="SteelBlue" stroke-width="2" d="M284.77,-241.83C278.47,-232.67 268.59,-218.32 260.51,-206.57"/>
            <polygon fill="SteelBlue" stroke="SteelBlue" stroke-width="2" points="263.48,-204.72 254.93,-198.46 257.72,-208.69 263.48,-204.72"/>
        </g>
        <!-- 4 -->
        <g id="node5" class="node">
            <title>4</title>
            <ellipse fill="SteelBlue" stroke="Black" cx="343.19" cy="-56.07" rx="10.8" ry="10.8"/>
            <text text-anchor="middle" x="343.19" y="-51.8" font-family="Times,serif" font-size="12.00" fill="White">4</text>
        </g>
        <!-- 7 -->
        <g id="node8" class="node">
            <title>7</title>
            <ellipse fill="SteelBlue" stroke="Black" cx="270.27" cy="-96.9" rx="10.8" ry="10.8"/>
            <text text-anchor="middle" x="270.27" y="-92.62" font-family="Times,serif" font-size="12.00" fill="White">7</text>
        </g>
        <!-- 4&#45;&gt;7 -->
        <g id="edge7" class="edge">
            <title>4&#45;&gt;7</title>
            <path fill="none" stroke="SteelBlue" stroke-width="2" d="M333.35,-61.58C322.53,-67.64 304.82,-77.55 290.92,-85.34"/>
            <polygon fill="SteelBlue" stroke="SteelBlue" stroke-width="2" points="289.6,-82.06 282.59,-90 293.02,-88.17 289.6,-82.06"/>
        </g>
        <!-- 6 -->
        <g id="node7" class="node">
            <title>6</title>
            <ellipse fill="SteelBlue" stroke="Black" cx="189.68" cy="-59.38" rx="10.8" ry="10.8"/>
            <text text-anchor="middle" x="189.68" y="-55.11" font-family="Times,serif" font-size="12.00" fill="White">6</text>
        </g>
        <!-- 5&#45;&gt;6 -->
        <g id="edge10" class="edge">
            <title>5&#45;&gt;6</title>
            <path fill="none" stroke="SteelBlue" stroke-width="2" d="M112.3,-75.2C125.66,-72.47 148.75,-67.75 166.24,-64.17"/>
            <polygon fill="SteelBlue" stroke="SteelBlue" stroke-width="2" points="166.72,-67.65 175.81,-62.22 165.31,-60.79 166.72,-67.65"/>
        </g>
        <!-- 6&#45;&gt;7 -->
        <g id="edge2" class="edge">
            <title>6&#45;&gt;7</title>
            <path fill="none" stroke="SteelBlue" stroke-width="2" d="M199.89,-64.13C212.12,-69.83 232.94,-79.52 248.78,-86.89"/>
            <polygon fill="SteelBlue" stroke="SteelBlue" stroke-width="2" points="246.86,-89.86 257.4,-90.91 249.81,-83.51 246.86,-89.86"/>
        </g>
        <!-- 7&#45;&gt;0 -->
        <g id="edge4" class="edge">
            <title>7&#45;&gt;0</title>
            <path fill="none" stroke="SteelBlue" stroke-width="2" d="M267.5,-107.56C263.95,-121.2 257.7,-145.23 253.01,-163.25"/>
            <polygon fill="SteelBlue" stroke="SteelBlue" stroke-width="2" points="249.63,-162.36 250.5,-172.92 256.4,-164.12 249.63,-162.36"/>
        </g>
        <!-- 8 -->
        <g id="node9" class="node">
            <title>8</title>
            <ellipse fill="SteelBlue" stroke="Black" cx="58.46" cy="-10.8" rx="10.8" ry="10.8"/>
            <text text-anchor="middle" x="58.46" y="-6.52" font-family="Times,serif" font-size="12.00" fill="White">8</text>
        </g>
        <!-- 8&#45;&gt;5 -->
        <g id="edge6" class="edge">
            <title>8&#45;&gt;5</title>
            <path fill="none" stroke="SteelBlue" stroke-width="2" d="M64.44,-20.06C70.67,-29.71 80.62,-45.11 88.64,-57.53"/>
            <polygon fill="SteelBlue" stroke="SteelBlue" stroke-width="2" points="85.55,-59.19 93.92,-65.69 91.43,-55.39 85.55,-59.19"/>
        </g>
        <!-- 9 -->
        <g id="node10" class="node">
            <title>9</title>
            <ellipse fill="SteelBlue" stroke="Black" cx="10.8" cy="-217.58" rx="10.8" ry="10.8"/>
            <text text-anchor="middle" x="10.8" y="-213.3" font-family="Times,serif" font-size="12.00" fill="White">9</text>
        </g>
        <!-- 9&#45;&gt;2 -->
        <g id="edge5" class="edge">
            <title>9&#45;&gt;2</title>
            <path fill="none" stroke="SteelBlue" stroke-width="2" d="M19.73,-211.18C29.8,-203.97 46.47,-192.03 59.59,-182.63"/>
            <polygon fill="SteelBlue" stroke="SteelBlue" stroke-width="2" points="61.4,-185.65 67.49,-176.98 57.32,-179.95 61.4,-185.65"/>
        </g>
    </g>
</svg>