<?xml version="1.0" encoding="UTF-8" standalone="no"?>
<!DOCTYPE svg PUBLIC "-//W3C//DTD SVG 1.1//EN"
        "http://www.w3.org/Graphics/SVG/1.1/DTD/svg11.dtd">
<!-- Generated by graphviz version 11.0.0 (20240428.1522)
 -->
<!-- Pages: 1 -->
<svg width="62pt" height="202pt"
     viewBox="0.00 0.00 62.00 202.40" xmlns="http://www.w3.org/2000/svg" xmlns:xlink="http://www.w3.org/1999/xlink">
    <g id="graph0" class="graph" transform="scale(1 1) rotate(0) translate(4 198.4)">
        <polygon fill="#1f1f1f" stroke="none" points="-4,4 -4,-198.4 58,-198.4 58,4 -4,4"/>
        <!-- 16 -->
        <g id="node1" class="node">
            <title>16</title>
            <ellipse fill="SteelBlue" stroke="Black" cx="27" cy="-68.4" rx="27" ry="10.8"/>
            <text text-anchor="middle" x="27" y="-64.12" font-family="Times,serif" font-size="12.00" fill="White">16</text>
        </g>
        <!-- 256 -->
        <g id="node3" class="node">
            <title>256</title>
            <ellipse fill="SteelBlue" stroke="Black" cx="27" cy="-10.8" rx="27" ry="10.8"/>
            <text text-anchor="middle" x="27" y="-6.52" font-family="Times,serif" font-size="12.00" fill="White">256</text>
        </g>
        <!-- 16&#45;&gt;256 -->
        <g id="edge3" class="edge">
            <title>16&#45;&gt;256</title>
            <path fill="none" stroke="SteelBlue" stroke-width="2" d="M27,-57.2C27,-50.93 27,-42.63 27,-34.85"/>
            <polygon fill="SteelBlue" stroke="SteelBlue" stroke-width="2" points="30.5,-34.96 27,-24.96 23.5,-34.96 30.5,-34.96"/>
        </g>
        <!-- 2 -->
        <g id="node2" class="node">
            <title>2</title>
            <ellipse fill="SteelBlue" stroke="Black" cx="27" cy="-183.6" rx="27" ry="10.8"/>
            <text text-anchor="middle" x="27" y="-179.32" font-family="Times,serif" font-size="12.00" fill="White">2</text>
        </g>
        <!-- 4 -->
        <g id="node4" class="node">
            <title>4</title>
            <ellipse fill="SteelBlue" stroke="Black" cx="27" cy="-126" rx="27" ry="10.8"/>
            <text text-anchor="middle" x="27" y="-121.72" font-family="Times,serif" font-size="12.00" fill="White">4</text>
        </g>
        <!-- 2&#45;&gt;4 -->
        <g id="edge2" class="edge">
            <title>2&#45;&gt;4</title>
            <path fill="none" stroke="SteelBlue" stroke-width="2" d="M27,-172.4C27,-166.13 27,-157.83 27,-150.05"/>
            <polygon fill="SteelBlue" stroke="SteelBlue" stroke-width="2" points="30.5,-150.16 27,-140.16 23.5,-150.16 30.5,-150.16"/>
        </g>
        <!-- 4&#45;&gt;16 -->
        <g id="edge1" class="edge">
            <title>4&#45;&gt;16</title>
            <path fill="none" stroke="SteelBlue" stroke-width="2" d="M27,-114.8C27,-108.53 27,-100.23 27,-92.45"/>
            <polygon fill="SteelBlue" stroke="SteelBlue" stroke-width="2" points="30.5,-92.56 27,-82.56 23.5,-92.56 30.5,-92.56"/>
        </g>
    </g>
</svg>
