<?xml version="1.0" encoding="UTF-8" standalone="no"?>
<!DOCTYPE svg PUBLIC "-//W3C//DTD SVG 1.1//EN"
        "http://www.w3.org/Graphics/SVG/1.1/DTD/svg11.dtd">
<!-- Generated by graphviz version 11.0.0 (20240428.1522)
 -->
<!-- Pages: 1 -->
<svg width="432pt" height="317pt"
     viewBox="0.00 0.00 432.00 317.35" xmlns="http://www.w3.org/2000/svg" xmlns:xlink="http://www.w3.org/1999/xlink">
    <g id="graph0" class="graph" transform="scale(0.511848 0.511848) rotate(0) translate(4 616)">
        <polygon fill="#1f1f1f" stroke="none" points="-4,4 -4,-616 840,-616 840,4 -4,4"/>
        <!-- 0 -->
        <g id="node1" class="node">
            <title>0</title>
            <ellipse fill="SteelBlue" stroke="Black" cx="416" cy="-14.4" rx="14.4" ry="14.4"/>
            <text text-anchor="middle" x="416" y="-7.8" font-family="Times,serif" font-size="18.00" fill="White">0
            </text>
        </g>
        <!-- 1 -->
        <g id="node2" class="node">
            <title>1</title>
            <ellipse fill="SteelBlue" stroke="Black" cx="374" cy="-79.2" rx="14.4" ry="14.4"/>
            <text text-anchor="middle" x="374" y="-72.6" font-family="Times,serif" font-size="18.00" fill="White">1
            </text>
        </g>
        <!-- 1&#45;&gt;0 -->
        <g id="edge1" class="edge">
            <title>1&#45;&gt;0</title>
            <path fill="none" stroke="SteelBlue" stroke-width="2"
                  d="M381.7,-66.68C387.15,-58.54 394.62,-47.36 401.21,-37.52"/>
            <polygon fill="SteelBlue" stroke="SteelBlue" stroke-width="2"
                     points="404.01,-39.62 406.66,-29.36 398.19,-35.73 404.01,-39.62"/>
        </g>
        <!-- 2 -->
        <g id="node3" class="node">
            <title>2</title>
            <ellipse fill="SteelBlue" stroke="Black" cx="574" cy="-144" rx="14.4" ry="14.4"/>
            <text text-anchor="middle" x="574" y="-137.4" font-family="Times,serif" font-size="18.00" fill="White">2
            </text>
        </g>
        <!-- 2&#45;&gt;0 -->
        <g id="edge2" class="edge">
            <title>2&#45;&gt;0</title>
            <path fill="none" stroke="SteelBlue" stroke-width="2"
                  d="M563.14,-134.23C537.09,-113.2 470.72,-59.6 436.74,-32.15"/>
            <polygon fill="SteelBlue" stroke="SteelBlue" stroke-width="2"
                     points="439.27,-29.69 429.29,-26.13 434.87,-35.14 439.27,-29.69"/>
        </g>
        <!-- 2&#45;&gt;1 -->
        <g id="edge3" class="edge">
            <title>2&#45;&gt;1</title>
            <path fill="none" stroke="SteelBlue" stroke-width="2"
                  d="M561.37,-136.41C556.63,-134.08 551.14,-131.55 546,-129.6 495.71,-110.5 434.77,-94.64 400.59,-86.37"/>
            <polygon fill="SteelBlue" stroke="SteelBlue" stroke-width="2"
                     points="401.56,-83.01 391.02,-84.1 399.94,-89.82 401.56,-83.01"/>
        </g>
        <!-- 3 -->
        <g id="node4" class="node">
            <title>3</title>
            <ellipse fill="SteelBlue" stroke="Black" cx="414" cy="-208.8" rx="14.4" ry="14.4"/>
            <text text-anchor="middle" x="414" y="-202.2" font-family="Times,serif" font-size="18.00" fill="White">3
            </text>
        </g>
        <!-- 3&#45;&gt;0 -->
        <g id="edge35" class="edge">
            <title>3&#45;&gt;0</title>
            <path fill="none" stroke="SteelBlue" stroke-width="2"
                  d="M414.14,-193.96C414.47,-162.21 415.29,-83.65 415.72,-42.12"/>
            <polygon fill="SteelBlue" stroke="SteelBlue" stroke-width="2"
                     points="419.22,-42.17 415.83,-32.14 412.22,-42.1 419.22,-42.17"/>
        </g>
        <!-- 3&#45;&gt;1 -->
        <g id="edge36" class="edge">
            <title>3&#45;&gt;1</title>
            <path fill="none" stroke="SteelBlue" stroke-width="2"
                  d="M409.87,-194.63C403.31,-173.71 390.4,-132.53 381.99,-105.7"/>
            <polygon fill="SteelBlue" stroke="SteelBlue" stroke-width="2"
                     points="385.4,-104.88 379.07,-96.38 378.72,-106.97 385.4,-104.88"/>
        </g>
        <!-- 3&#45;&gt;2 -->
        <g id="edge37" class="edge">
            <title>3&#45;&gt;2</title>
            <path fill="none" stroke="SteelBlue" stroke-width="2"
                  d="M427.37,-202.55C454.14,-192.05 514.71,-168.27 549.04,-154.8"/>
            <polygon fill="SteelBlue" stroke="SteelBlue" stroke-width="2"
                     points="549.94,-158.2 557.97,-151.29 547.38,-151.69 549.94,-158.2"/>
        </g>
        <!-- 4 -->
        <g id="node5" class="node">
            <title>4</title>
            <ellipse fill="SteelBlue" stroke="Black" cx="574" cy="-273.6" rx="14.4" ry="14.4"/>
            <text text-anchor="middle" x="574" y="-267" font-family="Times,serif" font-size="18.00" fill="White">4
            </text>
        </g>
        <!-- 4&#45;&gt;0 -->
        <g id="edge23" class="edge">
            <title>4&#45;&gt;0</title>
            <path fill="none" stroke="SteelBlue" stroke-width="2"
                  d="M580.66,-260.36C593.68,-234.66 619.35,-173.81 597,-129.6 565.91,-68.1 484.86,-35.77 442.56,-22.62"/>
            <polygon fill="SteelBlue" stroke="SteelBlue" stroke-width="2"
                     points="443.55,-19.26 432.97,-19.8 441.58,-25.98 443.55,-19.26"/>
        </g>
        <!-- 4&#45;&gt;1 -->
        <g id="edge25" class="edge">
            <title>4&#45;&gt;1</title>
            <path fill="none" stroke="SteelBlue" stroke-width="2"
                  d="M567.73,-260.4C553.5,-233.71 516.38,-169.36 470,-129.6 448.89,-111.5 420,-97.79 399.45,-89.46"/>
            <polygon fill="SteelBlue" stroke="SteelBlue" stroke-width="2"
                     points="401,-86.31 390.41,-85.96 398.47,-92.83 401,-86.31"/>
        </g>
        <!-- 4&#45;&gt;2 -->
        <g id="edge22" class="edge">
            <title>4&#45;&gt;2</title>
            <path fill="none" stroke="SteelBlue" stroke-width="2" d="M574,-258.94C574,-238.13 574,-198.07 574,-171.43"/>
            <polygon fill="SteelBlue" stroke="SteelBlue" stroke-width="2"
                     points="577.5,-171.58 574,-161.58 570.5,-171.58 577.5,-171.58"/>
        </g>
        <!-- 4&#45;&gt;3 -->
        <g id="edge24" class="edge">
            <title>4&#45;&gt;3</title>
            <path fill="none" stroke="SteelBlue" stroke-width="2"
                  d="M560.63,-267.35C533.86,-256.85 473.29,-233.07 438.96,-219.6"/>
            <polygon fill="SteelBlue" stroke="SteelBlue" stroke-width="2"
                     points="440.62,-216.49 430.03,-216.09 438.06,-223 440.62,-216.49"/>
        </g>
        <!-- 5 -->
        <g id="node6" class="node">
            <title>5</title>
            <ellipse fill="SteelBlue" stroke="Black" cx="376" cy="-338.4" rx="14.4" ry="14.4"/>
            <text text-anchor="middle" x="376" y="-331.8" font-family="Times,serif" font-size="18.00" fill="White">5
            </text>
        </g>
        <!-- 5&#45;&gt;0 -->
        <g id="edge8" class="edge">
            <title>5&#45;&gt;0</title>
            <path fill="none" stroke="SteelBlue" stroke-width="2"
                  d="M361.16,-337.12C305.74,-335.21 114,-320.6 114,-209.8 114,-209.8 114,-209.8 114,-143 114,-24.29 314.44,-14.31 388.73,-14.69"/>
            <polygon fill="SteelBlue" stroke="SteelBlue" stroke-width="2"
                     points="388.36,-18.19 398.41,-14.83 388.46,-11.19 388.36,-18.19"/>
        </g>
        <!-- 5&#45;&gt;1 -->
        <g id="edge6" class="edge">
            <title>5&#45;&gt;1</title>
            <path fill="none" stroke="SteelBlue" stroke-width="2"
                  d="M375.89,-323.57C375.57,-282.58 374.63,-161.19 374.21,-106.93"/>
            <polygon fill="SteelBlue" stroke="SteelBlue" stroke-width="2"
                     points="377.71,-107.1 374.13,-97.12 370.71,-107.15 377.71,-107.1"/>
        </g>
        <!-- 5&#45;&gt;2 -->
        <g id="edge5" class="edge">
            <title>5&#45;&gt;2</title>
            <path fill="none" stroke="SteelBlue" stroke-width="2"
                  d="M386.09,-327.59C417.48,-297.1 513.73,-203.57 554.94,-163.52"/>
            <polygon fill="SteelBlue" stroke="SteelBlue" stroke-width="2"
                     points="557.26,-166.15 561.99,-156.67 552.38,-161.13 557.26,-166.15"/>
        </g>
        <!-- 5&#45;&gt;3 -->
        <g id="edge7" class="edge">
            <title>5&#45;&gt;3</title>
            <path fill="none" stroke="SteelBlue" stroke-width="2"
                  d="M379.92,-324.23C386.15,-303.31 398.42,-262.13 406.41,-235.3"/>
            <polygon fill="SteelBlue" stroke="SteelBlue" stroke-width="2"
                     points="409.68,-236.58 409.18,-226 402.97,-234.58 409.68,-236.58"/>
        </g>
        <!-- 5&#45;&gt;4 -->
        <g id="edge4" class="edge">
            <title>5&#45;&gt;4</title>
            <path fill="none" stroke="SteelBlue" stroke-width="2"
                  d="M389.61,-333.08C422.25,-322.73 505.42,-296.35 548.01,-282.84"/>
            <polygon fill="SteelBlue" stroke="SteelBlue" stroke-width="2"
                     points="548.94,-286.22 557.41,-279.86 546.82,-279.55 548.94,-286.22"/>
        </g>
        <!-- 6 -->
        <g id="node7" class="node">
            <title>6</title>
            <ellipse fill="SteelBlue" stroke="Black" cx="498" cy="-403.2" rx="14.4" ry="14.4"/>
            <text text-anchor="middle" x="498" y="-396.6" font-family="Times,serif" font-size="18.00" fill="White">6
            </text>
        </g>
        <!-- 6&#45;&gt;0 -->
        <g id="edge10" class="edge">
            <title>6&#45;&gt;0</title>
            <path fill="none" stroke="SteelBlue" stroke-width="2"
                  d="M511.74,-398.23C531.53,-391.83 567.98,-377.4 589,-352.8 653.89,-276.88 646.77,-224.28 615,-129.6 603.51,-95.37 595.37,-85.8 566,-64.8 528.31,-37.85 475.02,-24.95 443.14,-19.3"/>
            <polygon fill="SteelBlue" stroke="SteelBlue" stroke-width="2"
                     points="443.94,-15.88 433.51,-17.73 442.81,-22.79 443.94,-15.88"/>
        </g>
        <!-- 6&#45;&gt;1 -->
        <g id="edge9" class="edge">
            <title>6&#45;&gt;1</title>
            <path fill="none" stroke="SteelBlue" stroke-width="2"
                  d="M496.27,-388.48C494.11,-372.74 489.98,-346.24 484,-324 459.92,-234.41 453.43,-210.48 408,-129.6 402.67,-120.11 396.03,-110.14 390.03,-101.66"/>
            <polygon fill="SteelBlue" stroke="SteelBlue" stroke-width="2"
                     points="392.92,-99.69 384.22,-93.65 387.26,-103.8 392.92,-99.69"/>
        </g>
        <!-- 6&#45;&gt;2 -->
        <g id="edge14" class="edge">
            <title>6&#45;&gt;2</title>
            <path fill="none" stroke="SteelBlue" stroke-width="2"
                  d="M510.76,-395.53C525.64,-387.21 550.22,-371.75 566,-352.8 586.43,-328.27 589.94,-319.13 597,-288 606.32,-246.93 593.6,-198.4 583.69,-169.74"/>
            <polygon fill="SteelBlue" stroke="SteelBlue" stroke-width="2"
                     points="587.06,-168.76 580.33,-160.57 580.49,-171.17 587.06,-168.76"/>
        </g>
        <!-- 6&#45;&gt;3 -->
        <g id="edge13" class="edge">
            <title>6&#45;&gt;3</title>
            <path fill="none" stroke="SteelBlue" stroke-width="2"
                  d="M492.49,-389.58C478.72,-358.04 442.64,-275.41 424.6,-234.07"/>
            <polygon fill="SteelBlue" stroke="SteelBlue" stroke-width="2"
                     points="427.84,-232.76 420.63,-224.99 421.43,-235.56 427.84,-232.76"/>
        </g>
        <!-- 6&#45;&gt;4 -->
        <g id="edge12" class="edge">
            <title>6&#45;&gt;4</title>
            <path fill="none" stroke="SteelBlue" stroke-width="2"
                  d="M508.92,-393.42C519.66,-384.27 535.88,-369.04 546,-352.8 556.03,-336.71 563.14,-316.52 567.69,-300.68"/>
            <polygon fill="SteelBlue" stroke="SteelBlue" stroke-width="2"
                     points="571.07,-301.59 570.26,-291.03 564.31,-299.79 571.07,-301.59"/>
        </g>
        <!-- 6&#45;&gt;5 -->
        <g id="edge11" class="edge">
            <title>6&#45;&gt;5</title>
            <path fill="none" stroke="SteelBlue" stroke-width="2"
                  d="M485.4,-395.72C465.31,-385.37 425.67,-364.97 400.03,-351.77"/>
            <polygon fill="SteelBlue" stroke="SteelBlue" stroke-width="2"
                     points="401.9,-348.79 391.4,-347.33 398.69,-355.02 401.9,-348.79"/>
        </g>
        <!-- 7 -->
        <g id="node8" class="node">
            <title>7</title>
            <ellipse fill="SteelBlue" stroke="Black" cx="321" cy="-468" rx="14.4" ry="14.4"/>
            <text text-anchor="middle" x="321" y="-461.4" font-family="Times,serif" font-size="18.00" fill="White">7
            </text>
        </g>
        <!-- 7&#45;&gt;0 -->
        <g id="edge19" class="edge">
            <title>7&#45;&gt;0</title>
            <path fill="none" stroke="SteelBlue" stroke-width="2"
                  d="M306.58,-464.56C248.91,-453.89 38,-405.9 38,-274.6 38,-274.6 38,-274.6 38,-143 38,-90.34 79.47,-87.47 127,-64.8 215.8,-22.44 335.25,-15.89 388.45,-15.22"/>
            <polygon fill="SteelBlue" stroke="SteelBlue" stroke-width="2"
                     points="388.32,-18.72 398.31,-15.17 388.29,-11.72 388.32,-18.72"/>
        </g>
        <!-- 7&#45;&gt;1 -->
        <g id="edge17" class="edge">
            <title>7&#45;&gt;1</title>
            <path fill="none" stroke="SteelBlue" stroke-width="2"
                  d="M318.59,-453.64C316.92,-443.73 314.86,-429.87 314,-417.6 313.1,-404.83 313.61,-401.59 314,-388.8 314.89,-359.96 314.26,-352.61 318,-324 328.55,-243.2 353.72,-149.86 366.41,-105.78"/>
            <polygon fill="SteelBlue" stroke="SteelBlue" stroke-width="2"
                     points="369.7,-107 369.14,-96.42 362.98,-105.04 369.7,-107"/>
        </g>
        <!-- 7&#45;&gt;2 -->
        <g id="edge18" class="edge">
            <title>7&#45;&gt;2</title>
            <path fill="none" stroke="SteelBlue" stroke-width="2"
                  d="M319.76,-453.34C316.53,-408.44 312.88,-264.28 391,-194.4 435.02,-155.03 507.25,-146.58 546.51,-145.05"/>
            <polygon fill="SteelBlue" stroke="SteelBlue" stroke-width="2"
                     points="546.43,-148.55 556.34,-144.82 546.27,-141.55 546.43,-148.55"/>
        </g>
        <!-- 7&#45;&gt;3 -->
        <g id="edge16" class="edge">
            <title>7&#45;&gt;3</title>
            <path fill="none" stroke="SteelBlue" stroke-width="2"
                  d="M322.85,-453.25C326.59,-427.37 336.17,-369.86 353,-324 364.2,-293.47 371.64,-287.87 387,-259.2 391.54,-250.73 396.57,-241.49 401.05,-233.31"/>
            <polygon fill="SteelBlue" stroke="SteelBlue" stroke-width="2"
                     points="404.08,-235.05 405.83,-224.6 397.95,-231.68 404.08,-235.05"/>
        </g>
        <!-- 7&#45;&gt;4 -->
        <g id="edge20" class="edge">
            <title>7&#45;&gt;4</title>
            <path fill="none" stroke="SteelBlue" stroke-width="2"
                  d="M332.2,-458.48C371.05,-428.94 500.49,-330.5 552.3,-291.11"/>
            <polygon fill="SteelBlue" stroke="SteelBlue" stroke-width="2"
                     points="554.39,-293.91 560.24,-285.07 550.16,-288.34 554.39,-293.91"/>
        </g>
        <!-- 7&#45;&gt;5 -->
        <g id="edge21" class="edge">
            <title>7&#45;&gt;5</title>
            <path fill="none" stroke="SteelBlue" stroke-width="2"
                  d="M326.47,-454.3C335.53,-433.28 353.8,-390.91 365.44,-363.91"/>
            <polygon fill="SteelBlue" stroke="SteelBlue" stroke-width="2"
                     points="368.61,-365.4 369.35,-354.83 362.18,-362.63 368.61,-365.4"/>
        </g>
        <!-- 7&#45;&gt;6 -->
        <g id="edge15" class="edge">
            <title>7&#45;&gt;6</title>
            <path fill="none" stroke="SteelBlue" stroke-width="2"
                  d="M334.77,-463.07C361.3,-455.36 421.22,-437.27 470,-417.6 471.27,-417.09 472.57,-416.54 473.88,-415.98"/>
            <polygon fill="SteelBlue" stroke="SteelBlue" stroke-width="2"
                     points="474.97,-419.33 482.58,-411.95 472.03,-412.97 474.97,-419.33"/>
        </g>
        <!-- 8 -->
        <g id="node9" class="node">
            <title>8</title>
            <ellipse fill="SteelBlue" stroke="Black" cx="418" cy="-532.8" rx="14.4" ry="14.4"/>
            <text text-anchor="middle" x="418" y="-526.2" font-family="Times,serif" font-size="18.00" fill="White">8
            </text>
        </g>
        <!-- 8&#45;&gt;0 -->
        <g id="edge43" class="edge">
            <title>8&#45;&gt;0</title>
            <path fill="none" stroke="SteelBlue" stroke-width="2"
                  d="M432.39,-530.15C505.89,-520.88 836,-468.45 836,-274.6 836,-274.6 836,-274.6 836,-143 836,-60.63 536.53,-26.39 443.34,-17.72"/>
            <polygon fill="SteelBlue" stroke="SteelBlue" stroke-width="2"
                     points="443.74,-14.25 433.47,-16.84 443.12,-21.22 443.74,-14.25"/>
        </g>
        <!-- 8&#45;&gt;1 -->
        <g id="edge40" class="edge">
            <title>8&#45;&gt;1</title>
            <path fill="none" stroke="SteelBlue" stroke-width="2"
                  d="M403.72,-528.7C379.77,-522.94 330.91,-508.71 298,-482.4 209.84,-411.92 152,-387.47 152,-274.6 152,-274.6 152,-274.6 152,-207.8 152,-118.9 287.46,-91.03 346.75,-83.09"/>
            <polygon fill="SteelBlue" stroke="SteelBlue" stroke-width="2"
                     points="346.93,-86.59 356.43,-81.91 346.08,-79.64 346.93,-86.59"/>
        </g>
        <!-- 8&#45;&gt;2 -->
        <g id="edge41" class="edge">
            <title>8&#45;&gt;2</title>
            <path fill="none" stroke="SteelBlue" stroke-width="2"
                  d="M431.98,-528.28C480.68,-515.16 643.18,-464.08 704,-352.8 744.64,-278.44 643.4,-194.04 596.42,-160.2"/>
            <polygon fill="SteelBlue" stroke="SteelBlue" stroke-width="2"
                     points="598.43,-157.34 588.24,-154.47 594.41,-163.07 598.43,-157.34"/>
        </g>
        <!-- 8&#45;&gt;3 -->
        <g id="edge42" class="edge">
            <title>8&#45;&gt;3</title>
            <path fill="none" stroke="SteelBlue" stroke-width="2"
                  d="M418,-518.02C418,-494.62 418,-445.63 418,-404.2 418,-404.2 418,-404.2 418,-337.4 418,-302.43 416.48,-262.1 415.31,-236.29"/>
            <polygon fill="SteelBlue" stroke="SteelBlue" stroke-width="2"
                     points="418.82,-236.43 414.86,-226.6 411.83,-236.76 418.82,-236.43"/>
        </g>
        <!-- 8&#45;&gt;4 -->
        <g id="edge39" class="edge">
            <title>8&#45;&gt;4</title>
            <path fill="none" stroke="SteelBlue" stroke-width="2"
                  d="M429.01,-523.24C458.14,-499.8 537.03,-431.08 566,-352.8 572.09,-336.34 574.08,-316.68 574.55,-301.19"/>
            <polygon fill="SteelBlue" stroke="SteelBlue" stroke-width="2"
                     points="578.05,-301.4 574.62,-291.37 571.05,-301.35 578.05,-301.4"/>
        </g>
        <!-- 8&#45;&gt;5 -->
        <g id="edge38" class="edge">
            <title>8&#45;&gt;5</title>
            <path fill="none" stroke="SteelBlue" stroke-width="2"
                  d="M414.02,-518.88C411.04,-508.95 406.99,-494.88 404,-482.4 394.29,-441.8 385.47,-394.13 380.42,-365.37"/>
            <polygon fill="SteelBlue" stroke="SteelBlue" stroke-width="2"
                     points="383.93,-365.13 378.77,-355.87 377.03,-366.32 383.93,-365.13"/>
        </g>
        <!-- 8&#45;&gt;6 -->
        <g id="edge45" class="edge">
            <title>8&#45;&gt;6</title>
            <path fill="none" stroke="SteelBlue" stroke-width="2"
                  d="M425.38,-520.02C438.66,-498.85 466.77,-454.02 483.86,-426.76"/>
            <polygon fill="SteelBlue" stroke="SteelBlue" stroke-width="2"
                     points="486.68,-428.84 489.03,-418.51 480.75,-425.13 486.68,-428.84"/>
        </g>
        <!-- 8&#45;&gt;7 -->
        <g id="edge44" class="edge">
            <title>8&#45;&gt;7</title>
            <path fill="none" stroke="SteelBlue" stroke-width="2"
                  d="M406.11,-524.1C390.62,-514.07 363.22,-496.33 343.69,-483.69"/>
            <polygon fill="SteelBlue" stroke="SteelBlue" stroke-width="2"
                     points="345.83,-480.91 335.53,-478.41 342.02,-486.78 345.83,-480.91"/>
        </g>
        <!-- 9 -->
        <g id="node10" class="node">
            <title>9</title>
            <ellipse fill="SteelBlue" stroke="Black" cx="321" cy="-597.6" rx="14.4" ry="14.4"/>
            <text text-anchor="middle" x="321" y="-591" font-family="Times,serif" font-size="18.00" fill="White">9
            </text>
        </g>
        <!-- 9&#45;&gt;0 -->
        <g id="edge28" class="edge">
            <title>9&#45;&gt;0</title>
            <path fill="none" stroke="SteelBlue" stroke-width="2"
                  d="M306.79,-594.19C244.67,-583.27 0,-536.02 0,-469 0,-469 0,-469 0,-143 0,-98.92 22.82,-86.83 61,-64.8 116.84,-32.59 314.82,-20.16 388.29,-16.59"/>
            <polygon fill="SteelBlue" stroke="SteelBlue" stroke-width="2"
                     points="388.4,-20.09 398.22,-16.13 388.07,-13.1 388.4,-20.09"/>
        </g>
        <!-- 9&#45;&gt;1 -->
        <g id="edge30" class="edge">
            <title>9&#45;&gt;1</title>
            <path fill="none" stroke="SteelBlue" stroke-width="2"
                  d="M308.85,-589.11C259.41,-557.6 76,-430.19 76,-274.6 76,-274.6 76,-274.6 76,-207.8 76,-90.69 272.89,-79.66 346.59,-79.63"/>
            <polygon fill="SteelBlue" stroke="SteelBlue" stroke-width="2"
                     points="346.17,-83.13 356.2,-79.71 346.23,-76.13 346.17,-83.13"/>
        </g>
        <!-- 9&#45;&gt;2 -->
        <g id="edge27" class="edge">
            <title>9&#45;&gt;2</title>
            <path fill="none" stroke="SteelBlue" stroke-width="2"
                  d="M335.72,-596.42C393.9,-595.42 607.16,-588.93 657,-547.2 757.11,-463.38 762.53,-380.81 715,-259.2 701.95,-225.82 694.16,-217.78 667,-194.4 646.75,-176.97 619.32,-163.34 599.5,-154.85"/>
            <polygon fill="SteelBlue" stroke="SteelBlue" stroke-width="2"
                     points="600.83,-151.62 590.25,-151.07 598.18,-158.1 600.83,-151.62"/>
        </g>
        <!-- 9&#45;&gt;3 -->
        <g id="edge33" class="edge">
            <title>9&#45;&gt;3</title>
            <path fill="none" stroke="SteelBlue" stroke-width="2"
                  d="M312.38,-585.56C305.47,-576 296.24,-561.5 292,-547.2 280.16,-507.3 282.79,-494.76 289,-453.6 302.86,-361.71 314.09,-336.28 366,-259.2 373.85,-247.55 384.6,-236.18 393.95,-227.3"/>
            <polygon fill="SteelBlue" stroke="SteelBlue" stroke-width="2"
                     points="396.06,-230.11 401.09,-220.78 391.34,-224.94 396.06,-230.11"/>
        </g>
        <!-- 9&#45;&gt;4 -->
        <g id="edge34" class="edge">
            <title>9&#45;&gt;4</title>
            <path fill="none" stroke="SteelBlue" stroke-width="2"
                  d="M335.27,-595.25C406.71,-588.11 722,-551.92 722,-469 722,-469 722,-469 722,-402.2 722,-338.39 642.1,-299.46 599.72,-283.3"/>
            <polygon fill="SteelBlue" stroke="SteelBlue" stroke-width="2"
                     points="601.1,-280.08 590.5,-279.96 598.71,-286.66 601.1,-280.08"/>
        </g>
        <!-- 9&#45;&gt;5 -->
        <g id="edge26" class="edge">
            <title>9&#45;&gt;5</title>
            <path fill="none" stroke="SteelBlue" stroke-width="2"
                  d="M315.38,-584.13C304.84,-559.01 284.35,-500.7 298,-453.6 308.92,-415.92 337.68,-379.82 357.05,-358.63"/>
            <polygon fill="SteelBlue" stroke="SteelBlue" stroke-width="2"
                     points="359.53,-361.1 363.86,-351.43 354.44,-356.29 359.53,-361.1"/>
        </g>
        <!-- 9&#45;&gt;6 -->
        <g id="edge32" class="edge">
            <title>9&#45;&gt;6</title>
            <path fill="none" stroke="SteelBlue" stroke-width="2"
                  d="M335.39,-594.16C359.94,-589.3 410.23,-576.3 441,-547.2 474.32,-515.69 488.58,-462.16 494.36,-430.3"/>
            <polygon fill="SteelBlue" stroke="SteelBlue" stroke-width="2"
                     points="497.77,-431.14 495.92,-420.71 490.86,-430.02 497.77,-431.14"/>
        </g>
        <!-- 9&#45;&gt;7 -->
        <g id="edge31" class="edge">
            <title>9&#45;&gt;7</title>
            <path fill="none" stroke="SteelBlue" stroke-width="2" d="M321,-582.94C321,-562.13 321,-522.07 321,-495.43"/>
            <polygon fill="SteelBlue" stroke="SteelBlue" stroke-width="2"
                     points="324.5,-495.58 321,-485.58 317.5,-495.58 324.5,-495.58"/>
        </g>
        <!-- 9&#45;&gt;8 -->
        <g id="edge29" class="edge">
            <title>9&#45;&gt;8</title>
            <path fill="none" stroke="SteelBlue" stroke-width="2"
                  d="M332.89,-588.9C348.38,-578.87 375.78,-561.13 395.31,-548.49"/>
            <polygon fill="SteelBlue" stroke="SteelBlue" stroke-width="2"
                     points="396.98,-551.58 403.47,-543.21 393.17,-545.71 396.98,-551.58"/>
        </g>
    </g>
</svg>