<?xml version="1.0" encoding="UTF-8" standalone="no"?>
<!DOCTYPE svg PUBLIC "-//W3C//DTD SVG 1.1//EN"
        "http://www.w3.org/Graphics/SVG/1.1/DTD/svg11.dtd">
<!-- Generated by graphviz version 14.1.1 (20251213.1925)
 -->
<!-- Pages: 1 -->
<svg width="576pt" height="456pt"
     viewBox="0.00 0.00 576.00 456.00" xmlns="http://www.w3.org/2000/svg" xmlns:xlink="http://www.w3.org/1999/xlink">
    <g id="graph0" class="graph" transform="scale(2.14679 2.14679) rotate(0) translate(4 208.42)">
        <polygon fill="none" stroke="none" points="-4,4 -4,-208.42 264.31,-208.42 264.31,4 -4,4"/>
        <!-- Dresden -->
        <g id="node1" class="node">
            <title>Dresden</title>
            <ellipse fill="SteelBlue" stroke="Black" cx="177.68" cy="-193.62" rx="23.4" ry="10.8"/>
            <text xml:space="preserve" text-anchor="middle" x="177.68" y="-190.89" font-family="Times,serif" font-size="8.00" fill="White">Dresden</text>
        </g>
        <!-- Glasgow -->
        <g id="node2" class="node">
            <title>Glasgow</title>
            <ellipse fill="SteelBlue" stroke="Black" cx="162.01" cy="-115.31" rx="23.4" ry="10.8"/>
            <text xml:space="preserve" text-anchor="middle" x="162.01" y="-112.58" font-family="Times,serif" font-size="8.00" fill="White">Glasgow</text>
        </g>
        <!-- Dresden&#45;&gt;Glasgow -->
        <g id="edge1" class="edge">
            <title>Dresden&#45;&gt;Glasgow</title>
            <path fill="none" stroke="SteelBlue" stroke-width="0.8" d="M180.27,-182.45C179.97,-169.35 175.96,-147.52 171.33,-132.31"/>
            <polygon fill="SteelBlue" stroke="SteelBlue" stroke-width="0.8" points="173.44,-132.02 169.55,-127 169.46,-133.35 173.44,-132.02"/>
            <text xml:space="preserve" text-anchor="middle" x="172.8" y="-159.18" font-family="Times,serif" font-size="6.00" fill="Ivory">15</text>
        </g>
        <!-- Glasgow&#45;&gt;Dresden -->
        <g id="edge3" class="edge">
            <title>Glasgow&#45;&gt;Dresden</title>
            <path fill="none" stroke="SteelBlue" stroke-width="0.8" d="M159.42,-126.47C159.73,-139.57 163.73,-161.41 168.36,-176.61"/>
            <polygon fill="SteelBlue" stroke="SteelBlue" stroke-width="0.8" points="166.25,-176.9 170.14,-181.93 170.23,-175.57 166.25,-176.9"/>
            <text xml:space="preserve" text-anchor="middle" x="160.89" y="-153.34" font-family="Times,serif" font-size="6.00" fill="Ivory">15</text>
        </g>
        <!-- Gneisenau -->
        <g id="node3" class="node">
            <title>Gneisenau</title>
            <ellipse fill="SteelBlue" stroke="Black" cx="109.17" cy="-57.49" rx="23.4" ry="10.8"/>
            <text xml:space="preserve" text-anchor="middle" x="109.17" y="-54.76" font-family="Times,serif" font-size="8.00" fill="White">Gneisenau</text>
        </g>
        <!-- Glasgow&#45;&gt;Gneisenau -->
        <g id="edge2" class="edge">
            <title>Glasgow&#45;&gt;Gneisenau</title>
            <path fill="none" stroke="SteelBlue" stroke-width="0.8" d="M152.56,-104.97C144.45,-96.09 132.63,-83.16 123.37,-73.03"/>
            <polygon fill="SteelBlue" stroke="SteelBlue" stroke-width="0.8" points="124.95,-71.64 119.35,-68.63 121.85,-74.47 124.95,-71.64"/>
            <text xml:space="preserve" text-anchor="middle" x="134.97" y="-90.8" font-family="Times,serif" font-size="6.00" fill="Ivory">15</text>
        </g>
        <!-- Leipzig -->
        <g id="node5" class="node">
            <title>Leipzig</title>
            <ellipse fill="SteelBlue" stroke="Black" cx="236.91" cy="-88.23" rx="23.4" ry="10.8"/>
            <text xml:space="preserve" text-anchor="middle" x="236.91" y="-85.51" font-family="Times,serif" font-size="8.00" fill="White">Leipzig</text>
        </g>
        <!-- Glasgow&#45;&gt;Leipzig -->
        <g id="edge5" class="edge">
            <title>Glasgow&#45;&gt;Leipzig</title>
            <path fill="none" stroke="SteelBlue" stroke-width="0.8" d="M185.37,-113.41C196.29,-110.35 209.08,-105.68 219.2,-101.05"/>
            <polygon fill="SteelBlue" stroke="SteelBlue" stroke-width="0.8" points="219.84,-103.07 224.32,-98.56 218.01,-99.29 219.84,-103.07"/>
            <text xml:space="preserve" text-anchor="middle" x="199.28" y="-109.03" font-family="Times,serif" font-size="6.00" fill="Ivory">15</text>
        </g>
        <!-- Scharnhorst -->
        <g id="node7" class="node">
            <title>Scharnhorst</title>
            <ellipse fill="SteelBlue" stroke="Black" cx="85.3" cy="-101.28" rx="23.4" ry="10.8"/>
            <text xml:space="preserve" text-anchor="middle" x="85.3" y="-98.55" font-family="Times,serif" font-size="8.00" fill="White">Scharnhorst</text>
        </g>
        <!-- Glasgow&#45;&gt;Scharnhorst -->
        <g id="edge4" class="edge">
            <title>Glasgow&#45;&gt;Scharnhorst</title>
            <path fill="none" stroke="SteelBlue" stroke-width="0.8" d="M139.82,-111.25C131.87,-109.79 122.79,-108.13 114.34,-106.59"/>
            <polygon fill="SteelBlue" stroke="SteelBlue" stroke-width="0.8" points="114.91,-104.56 108.63,-105.54 114.15,-108.69 114.91,-104.56"/>
            <text xml:space="preserve" text-anchor="middle" x="125.58" y="-110.72" font-family="Times,serif" font-size="6.00" fill="Ivory">2</text>
        </g>
        <!-- Good Hope -->
        <g id="node4" class="node">
            <title>Good Hope</title>
            <ellipse fill="SteelBlue" stroke="Black" cx="67.03" cy="-10.8" rx="23.4" ry="10.8"/>
            <text xml:space="preserve" text-anchor="middle" x="67.03" y="-8.07" font-family="Times,serif" font-size="8.00" fill="White">Good Hope</text>
        </g>
        <!-- Gneisenau&#45;&gt;Good Hope -->
        <g id="edge9" class="edge">
            <title>Gneisenau&#45;&gt;Good Hope</title>
            <path fill="none" stroke="SteelBlue" stroke-width="0.8" d="M99.82,-47.13C94.25,-40.96 87.09,-33.02 80.88,-26.14"/>
            <polygon fill="SteelBlue" stroke="SteelBlue" stroke-width="0.8" points="82.74,-25.08 77.16,-22.03 79.63,-27.89 82.74,-25.08"/>
            <text xml:space="preserve" text-anchor="middle" x="87.35" y="-38.43" font-family="Times,serif" font-size="6.00" fill="Ivory">28</text>
        </g>
        <!-- Monmouth -->
        <g id="node6" class="node">
            <title>Monmouth</title>
            <ellipse fill="SteelBlue" stroke="Black" cx="23.4" cy="-94.04" rx="23.4" ry="10.8"/>
            <text xml:space="preserve" text-anchor="middle" x="23.4" y="-91.31" font-family="Times,serif" font-size="8.00" fill="White">Monmouth</text>
        </g>
        <!-- Gneisenau&#45;&gt;Monmouth -->
        <g id="edge10" class="edge">
            <title>Gneisenau&#45;&gt;Monmouth</title>
            <path fill="none" stroke="SteelBlue" stroke-width="0.8" d="M91.81,-64.88C79.11,-70.3 61.71,-77.71 47.63,-83.71"/>
            <polygon fill="SteelBlue" stroke="SteelBlue" stroke-width="0.8" points="46.84,-81.77 42.14,-86.05 48.48,-85.63 46.84,-81.77"/>
            <text xml:space="preserve" text-anchor="middle" x="66.72" y="-76.1" font-family="Times,serif" font-size="6.00" fill="Ivory">28</text>
        </g>
        <!-- Leipzig&#45;&gt;Glasgow -->
        <g id="edge8" class="edge">
            <title>Leipzig&#45;&gt;Glasgow</title>
            <path fill="none" stroke="SteelBlue" stroke-width="0.8" d="M213.55,-90.13C202.63,-93.19 189.84,-97.86 179.72,-102.49"/>
            <polygon fill="SteelBlue" stroke="SteelBlue" stroke-width="0.8" points="179.07,-100.47 174.6,-104.98 180.91,-104.25 179.07,-100.47"/>
            <text xml:space="preserve" text-anchor="middle" x="195.14" y="-98.11" font-family="Times,serif" font-size="6.00" fill="Ivory">2</text>
        </g>
        <!-- Scharnhorst&#45;&gt;Good Hope -->
        <g id="edge7" class="edge">
            <title>Scharnhorst&#45;&gt;Good Hope</title>
            <path fill="none" stroke="SteelBlue" stroke-width="0.8" d="M83.06,-90.18C79.96,-74.85 74.34,-47.02 70.65,-28.72"/>
            <polygon fill="SteelBlue" stroke="SteelBlue" stroke-width="0.8" points="72.77,-28.64 69.53,-23.17 68.65,-29.47 72.77,-28.64"/>
            <text xml:space="preserve" text-anchor="middle" x="73.85" y="-61.25" font-family="Times,serif" font-size="6.00" fill="Ivory">28</text>
        </g>
        <!-- Scharnhorst&#45;&gt;Monmouth -->
        <g id="edge6" class="edge">
            <title>Scharnhorst&#45;&gt;Monmouth</title>
            <path fill="none" stroke="SteelBlue" stroke-width="0.8" d="M62.25,-98.58C59.31,-98.24 56.27,-97.88 53.24,-97.53"/>
            <polygon fill="SteelBlue" stroke="SteelBlue" stroke-width="0.8" points="53.67,-95.46 47.47,-96.85 53.18,-99.64 53.67,-95.46"/>
            <text xml:space="preserve" text-anchor="middle" x="54.75" y="-99.85" font-family="Times,serif" font-size="6.00" fill="Ivory">28</text>
        </g>
    </g>
</svg>