<?xml version="1.0" encoding="UTF-8" standalone="no"?>
<!DOCTYPE svg PUBLIC "-//W3C//DTD SVG 1.1//EN"
        "http://www.w3.org/Graphics/SVG/1.1/DTD/svg11.dtd">
<!-- Generated by graphviz version 12.1.2 (20240928.0832)
 -->
<!-- Pages: 1 -->
<svg width="432pt" height="352pt"
     viewBox="0.00 0.00 432.00 352.06" xmlns="http://www.w3.org/2000/svg" xmlns:xlink="http://www.w3.org/1999/xlink">
    <g id="graph0" class="graph" transform="scale(4.33533 4.33533) rotate(0) translate(4 77.21)">
        <polygon fill="#1f1f1f" stroke="none" points="-4,4 -4,-77.21 95.65,-77.21 95.65,4 -4,4"/>
        <!-- Guerillas -->
        <g id="node1" class="node">
            <title>Guerillas</title>
            <ellipse fill="#1f1f1f" stroke="LightSlateGray" stroke-width="0.6" cx="9.72" cy="-67.33" rx="9.72" ry="5.4"/>
            <text text-anchor="middle" x="9.72" y="-65.58" font-family="Times,serif" font-size="5.00" fill="White">Guerillas</text>
        </g>
        <!-- Tanks -->
        <g id="node3" class="node">
            <title>Tanks</title>
            <ellipse fill="#1f1f1f" stroke="LightSlateGray" stroke-width="0.6" cx="46.31" cy="-5.4" rx="9.72" ry="5.4"/>
            <text text-anchor="middle" x="46.31" y="-3.65" font-family="Times,serif" font-size="5.00" fill="White">Tanks</text>
        </g>
        <!-- Guerillas&#45;&gt;Tanks -->
        <g id="edge2" class="edge">
            <title>Guerillas&#45;&gt;Tanks</title>
            <path fill="none" stroke="LightSlateGray" d="M12.59,-62.47C18.81,-51.94 33.6,-26.91 41.36,-13.78"/>
            <polygon fill="LightSlateGray" stroke="LightSlateGray" points="42.06,-14.31 42.58,-11.71 40.56,-13.42 42.06,-14.31"/>
            <text text-anchor="middle" x="22.85" y="-39.03" font-family="Times,serif" font-size="3.00" fill="Ivory">defend</text>
        </g>
        <!-- Infantry -->
        <g id="node2" class="node">
            <title>Infantry</title>
            <ellipse fill="#1f1f1f" stroke="LightSlateGray" stroke-width="0.6" cx="81.93" cy="-67.81" rx="9.72" ry="5.4"/>
            <text text-anchor="middle" x="81.93" y="-66.06" font-family="Times,serif" font-size="5.00" fill="White">Infantry</text>
        </g>
        <!-- Infantry&#45;&gt;Guerillas -->
        <g id="edge3" class="edge">
            <title>Infantry&#45;&gt;Guerillas</title>
            <path fill="none" stroke="LightSlateGray" d="M72.49,-67.75C59.91,-67.66 37.57,-67.52 23.22,-67.42"/>
            <polygon fill="LightSlateGray" stroke="LightSlateGray" points="23.41,-66.55 20.91,-67.41 23.4,-68.3 23.41,-66.55"/>
            <text text-anchor="middle" x="44.1" y="-68.48" font-family="Times,serif" font-size="3.00" fill="Ivory">attack</text>
        </g>
        <!-- Tanks&#45;&gt;Infantry -->
        <g id="edge1" class="edge">
            <title>Tanks&#45;&gt;Infantry</title>
            <path fill="none" stroke="LightSlateGray" d="M49.11,-10.3C55.16,-20.91 69.56,-46.13 77.11,-59.37"/>
            <polygon fill="LightSlateGray" stroke="LightSlateGray" points="76.3,-59.71 78.3,-61.45 77.82,-58.84 76.3,-59.71"/>
            <text text-anchor="middle" x="59.36" y="-35.73" font-family="Times,serif" font-size="3.00" fill="Ivory">attack</text>
        </g>
    </g>
</svg>