<?xml version="1.0" encoding="UTF-8" standalone="no"?>
<!DOCTYPE svg PUBLIC "-//W3C//DTD SVG 1.1//EN"
        "http://www.w3.org/Graphics/SVG/1.1/DTD/svg11.dtd">
<!-- Generated by graphviz version 12.1.2 (20240928.0832)
 -->
<!-- Pages: 1 -->
<svg width="648pt" height="466pt"
     viewBox="0.00 0.00 648.00 465.69" xmlns="http://www.w3.org/2000/svg" xmlns:xlink="http://www.w3.org/1999/xlink">
    <g id="graph0" class="graph" transform="scale(3.20158 3.20158) rotate(0) translate(4 141.46)">
        <polygon fill="#1f1f1f" stroke="none" points="-4,4 -4,-141.46 198.4,-141.46 198.4,4 -4,4"/>
        <!-- Anti&#45;tank weapons -->
        <g id="node1" class="node">
            <title>Anti&#45;tank weapons</title>
            <ellipse fill="#1f1f1f" stroke="LightSlateGray" stroke-width="0.6" cx="133.2" cy="-132.06" rx="25.2" ry="5.4"/>
            <text text-anchor="middle" x="133.2" y="-130.31" font-family="Times,serif" font-size="5.00" fill="White">Anti&#45;tank weapons</text>
        </g>
        <!-- Armor -->
        <g id="node4" class="node">
            <title>Armor</title>
            <ellipse fill="#1f1f1f" stroke="LightSlateGray" stroke-width="0.6" cx="61.2" cy="-132.06" rx="25.2" ry="5.4"/>
            <text text-anchor="middle" x="61.2" y="-130.31" font-family="Times,serif" font-size="5.00" fill="White">Armor</text>
        </g>
        <!-- Anti&#45;tank weapons&#45;&gt;Armor -->
        <g id="edge11" class="edge">
            <title>Anti&#45;tank weapons&#45;&gt;Armor</title>
            <path fill="none" stroke="SlateBlue" d="M108.02,-132.06C102.11,-132.06 95.77,-132.06 89.72,-132.06"/>
            <polygon fill="SlateBlue" stroke="SlateBlue" points="90.02,-131.18 87.52,-132.06 90.02,-132.93 90.02,-131.18"/>
            <text text-anchor="middle" x="94.75" y="-132.96" font-family="Times,serif" font-size="3.00" fill="Ivory">defend</text>
        </g>
        <!-- Infantry and Artillery -->
        <g id="node2" class="node">
            <title>Infantry and Artillery</title>
            <ellipse fill="#1f1f1f" stroke="LightSlateGray" stroke-width="0.6" cx="25.2" cy="-69.7" rx="25.2" ry="5.4"/>
            <text text-anchor="middle" x="25.2" y="-67.95" font-family="Times,serif" font-size="5.00" fill="White">Infantry and Artillery</text>
        </g>
        <!-- Infantry and Artillery&#45;&gt;Anti&#45;tank weapons -->
        <g id="edge9" class="edge">
            <title>Infantry and Artillery&#45;&gt;Anti&#45;tank weapons</title>
            <path fill="none" stroke="LightSlateGray" d="M33.67,-74.6C52.74,-85.6 99.08,-112.36 121.14,-125.09"/>
            <polygon fill="LightSlateGray" stroke="LightSlateGray" points="120.55,-125.76 123.15,-126.26 121.43,-124.25 120.55,-125.76"/>
            <text text-anchor="middle" x="73.66" y="-100.74" font-family="Times,serif" font-size="3.00" fill="Ivory">attack</text>
        </g>
        <!-- Missiles -->
        <g id="node6" class="node">
            <title>Missiles</title>
            <ellipse fill="#1f1f1f" stroke="LightSlateGray" stroke-width="0.6" cx="61.2" cy="-7.35" rx="25.2" ry="5.4"/>
            <text text-anchor="middle" x="61.2" y="-5.6" font-family="Times,serif" font-size="5.00" fill="White">Missiles</text>
        </g>
        <!-- Infantry and Artillery&#45;&gt;Missiles -->
        <g id="edge8" class="edge">
            <title>Infantry and Artillery&#45;&gt;Missiles</title>
            <path fill="none" stroke="LightSlateGray" d="M28.27,-64.39C34.49,-53.62 48.62,-29.14 56.19,-16.03"/>
            <polygon fill="LightSlateGray" stroke="LightSlateGray" points="56.89,-16.56 57.38,-13.96 55.37,-15.69 56.89,-16.56"/>
            <text text-anchor="middle" x="38.48" y="-41.11" font-family="Times,serif" font-size="3.00" fill="Ivory">attack</text>
        </g>
        <!-- Air force -->
        <g id="node3" class="node">
            <title>Air force</title>
            <ellipse fill="#1f1f1f" stroke="LightSlateGray" stroke-width="0.6" cx="169.2" cy="-69.7" rx="25.2" ry="5.4"/>
            <text text-anchor="middle" x="169.2" y="-67.95" font-family="Times,serif" font-size="5.00" fill="White">Air force</text>
        </g>
        <!-- Air force&#45;&gt;Infantry and Artillery -->
        <g id="edge7" class="edge">
            <title>Air force&#45;&gt;Infantry and Artillery</title>
            <path fill="none" stroke="LightSlateGray" d="M144.12,-69.7C118.93,-69.7 80.16,-69.7 53.79,-69.7"/>
            <polygon fill="LightSlateGray" stroke="LightSlateGray" points="54.01,-68.83 51.51,-69.7 54.01,-70.58 54.01,-68.83"/>
            <text text-anchor="middle" x="95.21" y="-70.6" font-family="Times,serif" font-size="3.00" fill="Ivory">attack</text>
        </g>
        <!-- Air force&#45;&gt;Armor -->
        <g id="edge6" class="edge">
            <title>Air force&#45;&gt;Armor</title>
            <path fill="none" stroke="LightSlateGray" d="M160.73,-74.6C141.66,-85.6 95.32,-112.36 73.26,-125.09"/>
            <polygon fill="LightSlateGray" stroke="LightSlateGray" points="72.97,-124.25 71.25,-126.26 73.85,-125.76 72.97,-124.25"/>
            <text text-anchor="middle" x="113.24" y="-100.74" font-family="Times,serif" font-size="3.00" fill="Ivory">attack</text>
        </g>
        <!-- Air drones -->
        <g id="node5" class="node">
            <title>Air drones</title>
            <ellipse fill="#1f1f1f" stroke="LightSlateGray" stroke-width="0.6" cx="133.2" cy="-7.35" rx="25.2" ry="5.4"/>
            <text text-anchor="middle" x="133.2" y="-5.6" font-family="Times,serif" font-size="5.00" fill="White">Air drones</text>
        </g>
        <!-- Air force&#45;&gt;Air drones -->
        <g id="edge12" class="edge">
            <title>Air force&#45;&gt;Air drones</title>
            <path fill="none" stroke="SlateBlue" d="M170.09,-64.72C168.23,-53.73 154.23,-28.21 143.68,-15.14"/>
            <polygon fill="SlateBlue" stroke="SlateBlue" points="144.36,-14.58 142.07,-13.25 143.03,-15.72 144.36,-14.58"/>
            <text text-anchor="middle" x="152.76" y="-40.83" font-family="Times,serif" font-size="3.00" fill="Ivory">defend</text>
        </g>
        <!-- Armor&#45;&gt;Infantry and Artillery -->
        <g id="edge10" class="edge">
            <title>Armor&#45;&gt;Infantry and Artillery</title>
            <path fill="none" stroke="LightSlateGray" d="M58.13,-126.74C51.91,-115.97 37.78,-91.5 30.21,-78.38"/>
            <polygon fill="LightSlateGray" stroke="LightSlateGray" points="31.03,-78.04 29.02,-76.32 29.51,-78.92 31.03,-78.04"/>
            <text text-anchor="middle" x="40.42" y="-103.46" font-family="Times,serif" font-size="3.00" fill="Ivory">attack</text>
        </g>
        <!-- Air drones&#45;&gt;Anti&#45;tank weapons -->
        <g id="edge4" class="edge">
            <title>Air drones&#45;&gt;Anti&#45;tank weapons</title>
            <path fill="none" stroke="LightSlateGray" d="M133.2,-12.71C133.2,-32.1 133.2,-98.75 133.2,-123.08"/>
            <polygon fill="LightSlateGray" stroke="LightSlateGray" points="132.33,-122.84 133.2,-125.34 134.08,-122.84 132.33,-122.84"/>
            <text text-anchor="middle" x="129.45" y="-68.79" font-family="Times,serif" font-size="3.00" fill="Ivory">attack</text>
        </g>
        <!-- Air drones&#45;&gt;Infantry and Artillery -->
        <g id="edge3" class="edge">
            <title>Air drones&#45;&gt;Infantry and Artillery</title>
            <path fill="none" stroke="LightSlateGray" d="M124.73,-12.24C105.66,-23.25 59.32,-50 37.26,-62.74"/>
            <polygon fill="LightSlateGray" stroke="LightSlateGray" points="36.97,-61.89 35.25,-63.9 37.85,-63.41 36.97,-61.89"/>
            <text text-anchor="middle" x="77.24" y="-38.39" font-family="Times,serif" font-size="3.00" fill="Ivory">attack</text>
        </g>
        <!-- Air drones&#45;&gt;Air force -->
        <g id="edge1" class="edge">
            <title>Air drones&#45;&gt;Air force</title>
            <path fill="none" stroke="LightSlateGray" d="M132.31,-12.33C134.17,-23.32 148.17,-48.84 158.72,-61.91"/>
            <polygon fill="LightSlateGray" stroke="LightSlateGray" points="158.04,-62.47 160.33,-63.8 159.37,-61.33 158.04,-62.47"/>
            <text text-anchor="middle" x="141.76" y="-38.02" font-family="Times,serif" font-size="3.00" fill="Ivory">attack</text>
        </g>
        <!-- Air drones&#45;&gt;Armor -->
        <g id="edge5" class="edge">
            <title>Air drones&#45;&gt;Armor</title>
            <path fill="none" stroke="LightSlateGray" d="M130.11,-12.71C118.82,-32.26 79.79,-99.85 66.04,-123.67"/>
            <polygon fill="LightSlateGray" stroke="LightSlateGray" points="65.45,-122.94 64.96,-125.55 66.97,-123.82 65.45,-122.94"/>
            <text text-anchor="middle" x="94.32" y="-65.34" font-family="Times,serif" font-size="3.00" fill="Ivory">attack</text>
        </g>
        <!-- Air drones&#45;&gt;Missiles -->
        <g id="edge2" class="edge">
            <title>Air drones&#45;&gt;Missiles</title>
            <path fill="none" stroke="LightSlateGray" d="M122.88,-2.45C110.37,-0.19 89.23,0 75.24,-1.87"/>
            <polygon fill="LightSlateGray" stroke="LightSlateGray" points="75.33,-0.97 72.99,-2.22 75.6,-2.7 75.33,-0.97"/>
            <text text-anchor="middle" x="95.31" y="-3.06" font-family="Times,serif" font-size="3.00" fill="Ivory">attack</text>
        </g>
        <!-- Missiles&#45;&gt;Air force -->
        <g id="edge14" class="edge">
            <title>Missiles&#45;&gt;Air force</title>
            <path fill="none" stroke="SlateBlue" d="M69.67,-12.24C88.74,-23.25 135.08,-50 157.14,-62.74"/>
            <polygon fill="SlateBlue" stroke="SlateBlue" points="156.55,-63.41 159.15,-63.9 157.43,-61.89 156.55,-63.41"/>
            <text text-anchor="middle" x="109.28" y="-38.39" font-family="Times,serif" font-size="3.00" fill="Ivory">defend</text>
        </g>
        <!-- Missiles&#45;&gt;Air drones -->
        <g id="edge13" class="edge">
            <title>Missiles&#45;&gt;Air drones</title>
            <path fill="none" stroke="SlateBlue" d="M71.52,-12.25C84.03,-14.5 105.17,-14.7 119.16,-12.83"/>
            <polygon fill="SlateBlue" stroke="SlateBlue" points="119.07,-13.73 121.41,-12.48 118.8,-12 119.07,-13.73"/>
            <text text-anchor="middle" x="91.21" y="-13.44" font-family="Times,serif" font-size="3.00" fill="Ivory">defend</text>
        </g>
    </g>
</svg>