<?xml version="1.0" encoding="UTF-8" standalone="no"?>
<!DOCTYPE svg PUBLIC "-//W3C//DTD SVG 1.1//EN"
        "http://www.w3.org/Graphics/SVG/1.1/DTD/svg11.dtd">
<!-- Generated by graphviz version 12.1.2 (20240928.0832)
 -->
<!-- Pages: 1 -->
<svg width="427pt" height="432pt"
     viewBox="0.00 0.00 426.84 432.00" xmlns="http://www.w3.org/2000/svg" xmlns:xlink="http://www.w3.org/1999/xlink">
    <g id="graph0" class="graph" transform="scale(2.71098 2.71098) rotate(0) translate(4 155.35)">
        <polygon fill="#1f1f1f" stroke="none" points="-4,4 -4,-155.35 153.45,-155.35 153.45,4 -4,4"/>
        <!-- 1 -->
        <g id="node1" class="node">
            <title>1</title>
            <polygon fill="RosyBrown" stroke="RosyBrown" stroke-width="0.6" points="99.7,-14.4 85.3,-14.4 85.3,0 99.7,0 99.7,-14.4"/>
            <text text-anchor="middle" x="92.5" y="-4.47" font-family="Times,serif" font-size="8.00" fill="White">1</text>
        </g>
        <!-- 3 -->
        <g id="node2" class="node">
            <title>3</title>
            <polygon fill="RosyBrown" stroke="RosyBrown" stroke-width="0.6" points="99.7,-151.35 85.3,-151.35 85.3,-136.95 99.7,-136.95 99.7,-151.35"/>
            <text text-anchor="middle" x="92.5" y="-141.43" font-family="Times,serif" font-size="8.00" fill="White">3</text>
        </g>
        <!-- 1&#45;&gt;3 -->
        <g id="edge7" class="edge">
            <title>1&#45;&gt;3</title>
            <path fill="none" stroke="LightSlateGray" d="M92.5,-14.18C92.5,-36.43 92.5,-105.8 92.5,-133.03"/>
            <polygon fill="LightSlateGray" stroke="LightSlateGray" points="91.62,-133.01 92.5,-135.51 93.37,-133.01 91.62,-133.01"/>
            <text text-anchor="middle" x="80.5" y="-75.05" font-family="Times,serif" font-size="4.00" fill="Ivory">Commensalism</text>
        </g>
        <!-- 5 -->
        <g id="node4" class="node">
            <title>5</title>
            <polygon fill="SlateBlue" stroke="SlateBlue" stroke-width="0.6" points="19.2,-40.56 4.8,-40.56 4.8,-26.16 19.2,-26.16 19.2,-40.56"/>
            <text text-anchor="middle" x="12" y="-30.63" font-family="Times,serif" font-size="8.00" fill="White">5</text>
        </g>
        <!-- 1&#45;&gt;5 -->
        <g id="edge6" class="edge">
            <title>1&#45;&gt;5</title>
            <path fill="none" stroke="LightSlateGray" d="M85.35,-9.52C69.96,-14.52 33.85,-26.26 18.79,-31.15"/>
            <text text-anchor="middle" x="44.57" y="-21.79" font-family="Times,serif" font-size="4.00" fill="Ivory">Neutrality</text>
        </g>
        <!-- 4 -->
        <g id="node5" class="node">
            <title>4</title>
            <polygon fill="RosyBrown" stroke="RosyBrown" stroke-width="0.6" points="19.2,-125.2 4.8,-125.2 4.8,-110.8 19.2,-110.8 19.2,-125.2"/>
            <text text-anchor="middle" x="12" y="-115.27" font-family="Times,serif" font-size="8.00" fill="White">4</text>
        </g>
        <!-- 1&#45;&gt;4 -->
        <g id="edge5" class="edge">
            <title>1&#45;&gt;4</title>
            <path fill="none" stroke="LightSlateGray" d="M87.46,-14.13C73.68,-33.1 35.32,-85.9 19.24,-108.03"/>
            <polygon fill="LightSlateGray" stroke="LightSlateGray" points="18.68,-107.31 17.92,-109.84 20.1,-108.34 18.68,-107.31"/>
            <text text-anchor="middle" x="41.35" y="-62.53" font-family="Times,serif" font-size="4.00" fill="Ivory">Commensalism</text>
        </g>
        <!-- 2 -->
        <g id="node3" class="node">
            <title>2</title>
            <polygon fill="SlateBlue" stroke="SlateBlue" stroke-width="0.6" points="149.45,-82.88 135.05,-82.88 135.05,-68.48 149.45,-68.48 149.45,-82.88"/>
            <text text-anchor="middle" x="142.25" y="-72.95" font-family="Times,serif" font-size="8.00" fill="White">2</text>
        </g>
        <!-- 3&#45;&gt;2 -->
        <g id="edge1" class="edge">
            <title>3&#45;&gt;2</title>
            <path fill="none" stroke="LightSlateGray" d="M97.64,-137.08C107.17,-123.96 127.5,-95.98 137.07,-82.81"/>
            <text text-anchor="middle" x="111.35" y="-111.4" font-family="Times,serif" font-size="4.00" fill="Ivory">Alliance</text>
        </g>
        <!-- 3&#45;&gt;4 -->
        <g id="edge2" class="edge">
            <title>3&#45;&gt;4</title>
            <path fill="none" stroke="LightSlateGray" d="M85.35,-141.83C69.96,-136.83 33.85,-125.1 18.79,-120.2"/>
            <text text-anchor="middle" x="45.69" y="-132.47" font-family="Times,serif" font-size="4.00" fill="Ivory">Conflict</text>
        </g>
        <!-- 2&#45;&gt;1 -->
        <g id="edge4" class="edge">
            <title>2&#45;&gt;1</title>
            <path fill="none" stroke="LightSlateGray" d="M137.11,-68.61C128.25,-56.41 110.06,-31.37 99.85,-17.32"/>
            <polygon fill="LightSlateGray" stroke="LightSlateGray" points="100.75,-17.07 98.57,-15.56 99.33,-18.1 100.75,-17.07"/>
            <text text-anchor="middle" x="110.98" y="-44.41" font-family="Times,serif" font-size="4.00" fill="Ivory">Coercion</text>
        </g>
        <!-- 2&#45;&gt;4 -->
        <g id="edge3" class="edge">
            <title>2&#45;&gt;4</title>
            <path fill="none" stroke="LightSlateGray" d="M135.25,-77.95C113.78,-84.93 48.78,-106.05 22.85,-114.47"/>
            <polygon fill="LightSlateGray" stroke="LightSlateGray" points="22.58,-113.64 20.48,-115.24 23.12,-115.3 22.58,-113.64"/>
            <text text-anchor="middle" x="69.67" y="-97.66" font-family="Times,serif" font-size="4.00" fill="Ivory">Guerilla war</text>
        </g>
        <!-- 5&#45;&gt;3 -->
        <g id="edge8" class="edge">
            <title>5&#45;&gt;3</title>
            <path fill="none" stroke="LightSlateGray" d="M17.04,-40.29C30.81,-59.25 69.18,-112.05 85.26,-134.19"/>
            <polygon fill="LightSlateGray" stroke="LightSlateGray" points="84.4,-134.49 86.58,-136 85.81,-133.46 84.4,-134.49"/>
            <text text-anchor="middle" x="42.9" y="-88.69" font-family="Times,serif" font-size="4.00" fill="Ivory">Avoidance</text>
        </g>
        <!-- 5&#45;&gt;2 -->
        <g id="edge10" class="edge">
            <title>5&#45;&gt;2</title>
            <path fill="none" stroke="LightSlateGray" d="M19,-35.63C40.47,-42.61 105.47,-63.73 131.4,-72.15"/>
            <polygon fill="LightSlateGray" stroke="LightSlateGray" points="131.12,-72.98 133.77,-72.92 131.67,-71.32 131.12,-72.98"/>
            <text text-anchor="middle" x="66.58" y="-55.34" font-family="Times,serif" font-size="4.00" fill="Ivory">Adaptation</text>
        </g>
        <!-- 5&#45;&gt;4 -->
        <g id="edge9" class="edge">
            <title>5&#45;&gt;4</title>
            <path fill="none" stroke="LightSlateGray" d="M12,-40.28C12,-56.23 12,-95.4 12,-111.21"/>
            <text text-anchor="middle" x="6" y="-77.2" font-family="Times,serif" font-size="4.00" fill="Ivory">Alliance</text>
        </g>
    </g>
</svg>
