<?xml version="1.0" encoding="UTF-8" standalone="no"?>
<!DOCTYPE svg PUBLIC "-//W3C//DTD SVG 1.1//EN"
        "http://www.w3.org/Graphics/SVG/1.1/DTD/svg11.dtd">
<!-- Generated by graphviz version 14.0.0 (20250921.2048)
 -->
<!-- Pages: 1 -->
<svg width="268pt" height="280pt"
     viewBox="0.00 0.00 268.00 280.00" xmlns="http://www.w3.org/2000/svg" xmlns:xlink="http://www.w3.org/1999/xlink">
    <g id="graph0" class="graph" transform="scale(1 1) rotate(0) translate(4 275.92)">
        <polygon fill="none" stroke="none" points="-4,4 -4,-275.92 263.64,-275.92 263.64,4 -4,4"/>
        <!-- 1 -->
        <g id="node1" class="node">
            <title>1</title>
            <ellipse fill="SteelBlue" stroke="Black" cx="164.8" cy="-157.14" rx="10.8" ry="10.8"/>
            <text xml:space="preserve" text-anchor="middle" x="164.8" y="-152.87" font-family="Times,serif" font-size="12.00" fill="White">1</text>
        </g>
        <!-- 2 -->
        <g id="node10" class="node">
            <title>2</title>
            <ellipse fill="SteelBlue" stroke="Black" cx="248.84" cy="-149.42" rx="10.8" ry="10.8"/>
            <text xml:space="preserve" text-anchor="middle" x="248.84" y="-145.15" font-family="Times,serif" font-size="12.00" fill="White">2</text>
        </g>
        <!-- 1&#45;&#45;2 -->
        <g id="edge21" class="edge">
            <title>1&#45;&#45;2</title>
            <path fill="none" stroke="SteelBlue" stroke-width="2" d="M175.79,-156.13C191.89,-154.65 221.74,-151.91 237.85,-150.43"/>
        </g>
        <!-- 3 -->
        <g id="node11" class="node">
            <title>3</title>
            <ellipse fill="SteelBlue" stroke="Black" cx="203.93" cy="-122.8" rx="10.8" ry="10.8"/>
            <text xml:space="preserve" text-anchor="middle" x="203.93" y="-118.53" font-family="Times,serif" font-size="12.00" fill="White">3</text>
        </g>
        <!-- 1&#45;&#45;3 -->
        <g id="edge26" class="edge">
            <title>1&#45;&#45;3</title>
            <path fill="none" stroke="SteelBlue" stroke-width="2" d="M173.1,-149.86C179.74,-144.03 189.01,-135.9 195.65,-130.07"/>
        </g>
        <!-- 4 -->
        <g id="node12" class="node">
            <title>4</title>
            <ellipse fill="SteelBlue" stroke="Black" cx="185.36" cy="-205.12" rx="10.8" ry="10.8"/>
            <text xml:space="preserve" text-anchor="middle" x="185.36" y="-200.85" font-family="Times,serif" font-size="12.00" fill="White">4</text>
        </g>
        <!-- 1&#45;&#45;4 -->
        <g id="edge25" class="edge">
            <title>1&#45;&#45;4</title>
            <path fill="none" stroke="SteelBlue" stroke-width="2" d="M169.16,-167.32C172.65,-175.46 177.52,-186.83 181.01,-194.96"/>
        </g>
        <!-- 5 -->
        <g id="node13" class="node">
            <title>5</title>
            <ellipse fill="SteelBlue" stroke="Black" cx="237.13" cy="-200.1" rx="10.8" ry="10.8"/>
            <text xml:space="preserve" text-anchor="middle" x="237.13" y="-195.82" font-family="Times,serif" font-size="12.00" fill="White">5</text>
        </g>
        <!-- 1&#45;&#45;5 -->
        <g id="edge27" class="edge">
            <title>1&#45;&#45;5</title>
            <path fill="none" stroke="SteelBlue" stroke-width="2" d="M174.26,-162.76C188.04,-170.95 213.53,-186.08 227.44,-194.34"/>
        </g>
        <!-- 10 -->
        <g id="node2" class="node">
            <title>10</title>
            <ellipse fill="SteelBlue" stroke="Black" cx="10.8" cy="-213.14" rx="10.8" ry="10.8"/>
            <text xml:space="preserve" text-anchor="middle" x="10.8" y="-208.87" font-family="Times,serif" font-size="12.00" fill="White">10</text>
        </g>
        <!-- 6 -->
        <g id="node14" class="node">
            <title>6</title>
            <ellipse fill="SteelBlue" stroke="Black" cx="94.84" cy="-205.42" rx="10.8" ry="10.8"/>
            <text xml:space="preserve" text-anchor="middle" x="94.84" y="-201.15" font-family="Times,serif" font-size="12.00" fill="White">6</text>
        </g>
        <!-- 10&#45;&#45;6 -->
        <g id="edge12" class="edge">
            <title>10&#45;&#45;6</title>
            <path fill="none" stroke="SteelBlue" stroke-width="2" d="M21.79,-212.13C37.89,-210.65 67.74,-207.91 83.85,-206.43"/>
        </g>
        <!-- 7 -->
        <g id="node15" class="node">
            <title>7</title>
            <ellipse fill="SteelBlue" stroke="Black" cx="49.93" cy="-178.8" rx="10.8" ry="10.8"/>
            <text xml:space="preserve" text-anchor="middle" x="49.93" y="-174.53" font-family="Times,serif" font-size="12.00" fill="White">7</text>
        </g>
        <!-- 10&#45;&#45;7 -->
        <g id="edge33" class="edge">
            <title>10&#45;&#45;7</title>
            <path fill="none" stroke="SteelBlue" stroke-width="2" d="M19.1,-205.86C25.74,-200.03 35.01,-191.9 41.65,-186.07"/>
        </g>
        <!-- 8 -->
        <g id="node16" class="node">
            <title>8</title>
            <ellipse fill="SteelBlue" stroke="Black" cx="31.36" cy="-261.12" rx="10.8" ry="10.8"/>
            <text xml:space="preserve" text-anchor="middle" x="31.36" y="-256.85" font-family="Times,serif" font-size="12.00" fill="White">8</text>
        </g>
        <!-- 10&#45;&#45;8 -->
        <g id="edge24" class="edge">
            <title>10&#45;&#45;8</title>
            <path fill="none" stroke="SteelBlue" stroke-width="2" d="M15.16,-223.32C18.65,-231.46 23.52,-242.83 27.01,-250.96"/>
        </g>
        <!-- 9 -->
        <g id="node17" class="node">
            <title>9</title>
            <ellipse fill="SteelBlue" stroke="Black" cx="83.13" cy="-256.1" rx="10.8" ry="10.8"/>
            <text xml:space="preserve" text-anchor="middle" x="83.13" y="-251.82" font-family="Times,serif" font-size="12.00" fill="White">9</text>
        </g>
        <!-- 10&#45;&#45;9 -->
        <g id="edge31" class="edge">
            <title>10&#45;&#45;9</title>
            <path fill="none" stroke="SteelBlue" stroke-width="2" d="M20.26,-218.76C34.04,-226.95 59.53,-242.08 73.44,-250.34"/>
        </g>
        <!-- 11 -->
        <g id="node3" class="node">
            <title>11</title>
            <ellipse fill="SteelBlue" stroke="Black" cx="69.86" cy="-10.92" rx="10.8" ry="10.8"/>
            <text xml:space="preserve" text-anchor="middle" x="69.86" y="-6.64" font-family="Times,serif" font-size="12.00" fill="White">11</text>
        </g>
        <!-- 12 -->
        <g id="node4" class="node">
            <title>12</title>
            <ellipse fill="SteelBlue" stroke="Black" cx="121.67" cy="-10.8" rx="10.8" ry="10.8"/>
            <text xml:space="preserve" text-anchor="middle" x="121.67" y="-6.52" font-family="Times,serif" font-size="12.00" fill="White">12</text>
        </g>
        <!-- 11&#45;&#45;12 -->
        <g id="edge2" class="edge">
            <title>11&#45;&#45;12</title>
            <path fill="none" stroke="SteelBlue" stroke-width="2" d="M81.1,-10.89C89.79,-10.87 101.77,-10.84 110.45,-10.82"/>
        </g>
        <!-- 13 -->
        <g id="node5" class="node">
            <title>13</title>
            <ellipse fill="SteelBlue" stroke="Black" cx="152.7" cy="-51.32" rx="10.8" ry="10.8"/>
            <text xml:space="preserve" text-anchor="middle" x="152.7" y="-47.04" font-family="Times,serif" font-size="12.00" fill="White">13</text>
        </g>
        <!-- 11&#45;&#45;13 -->
        <g id="edge1" class="edge">
            <title>11&#45;&#45;13</title>
            <path fill="none" stroke="SteelBlue" stroke-width="2" d="M79.69,-15.71C95.54,-23.44 126.62,-38.59 142.63,-46.4"/>
        </g>
        <!-- 16 -->
        <g id="node8" class="node">
            <title>16</title>
            <ellipse fill="SteelBlue" stroke="Black" cx="49.95" cy="-101.38" rx="10.8" ry="10.8"/>
            <text xml:space="preserve" text-anchor="middle" x="49.95" y="-97.11" font-family="Times,serif" font-size="12.00" fill="White">16</text>
        </g>
        <!-- 11&#45;&#45;16 -->
        <g id="edge4" class="edge">
            <title>11&#45;&#45;16</title>
            <path fill="none" stroke="SteelBlue" stroke-width="2" d="M67.49,-21.65C63.68,-38.97 56.22,-72.89 52.37,-90.38"/>
        </g>
        <!-- 17 -->
        <g id="node9" class="node">
            <title>17</title>
            <ellipse fill="SteelBlue" stroke="Black" cx="38.8" cy="-51.58" rx="10.8" ry="10.8"/>
            <text xml:space="preserve" text-anchor="middle" x="38.8" y="-47.31" font-family="Times,serif" font-size="12.00" fill="White">17</text>
        </g>
        <!-- 11&#45;&#45;17 -->
        <g id="edge3" class="edge">
            <title>11&#45;&#45;17</title>
            <path fill="none" stroke="SteelBlue" stroke-width="2" d="M63.27,-19.54C58.07,-26.35 50.84,-35.81 45.59,-42.69"/>
        </g>
        <!-- 12&#45;&#45;13 -->
        <g id="edge7" class="edge">
            <title>12&#45;&#45;13</title>
            <path fill="none" stroke="SteelBlue" stroke-width="2" d="M128.25,-19.39C133.45,-26.18 140.67,-35.6 145.92,-42.46"/>
        </g>
        <!-- 14 -->
        <g id="node6" class="node">
            <title>14</title>
            <ellipse fill="SteelBlue" stroke="Black" cx="142.47" cy="-101.29" rx="10.8" ry="10.8"/>
            <text xml:space="preserve" text-anchor="middle" x="142.47" y="-97.01" font-family="Times,serif" font-size="12.00" fill="White">14</text>
        </g>
        <!-- 12&#45;&#45;14 -->
        <g id="edge5" class="edge">
            <title>12&#45;&#45;14</title>
            <path fill="none" stroke="SteelBlue" stroke-width="2" d="M124.14,-21.54C128.12,-38.86 135.92,-72.79 139.94,-90.28"/>
        </g>
        <!-- 12&#45;&#45;17 -->
        <g id="edge6" class="edge">
            <title>12&#45;&#45;17</title>
            <path fill="none" stroke="SteelBlue" stroke-width="2" d="M111.84,-15.64C95.98,-23.45 64.9,-38.74 48.88,-46.62"/>
        </g>
        <!-- 13&#45;&#45;14 -->
        <g id="edge30" class="edge">
            <title>13&#45;&#45;14</title>
            <path fill="none" stroke="SteelBlue" stroke-width="2" d="M150.53,-61.91C148.82,-70.28 146.44,-81.91 144.71,-90.36"/>
        </g>
        <!-- 15 -->
        <g id="node7" class="node">
            <title>15</title>
            <ellipse fill="SteelBlue" stroke="Black" cx="96.08" cy="-124.03" rx="10.8" ry="10.8"/>
            <text xml:space="preserve" text-anchor="middle" x="96.08" y="-119.76" font-family="Times,serif" font-size="12.00" fill="White">15</text>
        </g>
        <!-- 13&#45;&#45;15 -->
        <g id="edge15" class="edge">
            <title>13&#45;&#45;15</title>
            <path fill="none" stroke="SteelBlue" stroke-width="2" d="M145.99,-59.94C135.09,-73.94 113.68,-101.43 102.79,-115.42"/>
        </g>
        <!-- 14&#45;&#45;15 -->
        <g id="edge17" class="edge">
            <title>14&#45;&#45;15</title>
            <path fill="none" stroke="SteelBlue" stroke-width="2" d="M132.63,-106.11C124.87,-109.92 114.07,-115.21 106.23,-119.06"/>
        </g>
        <!-- 14&#45;&#45;16 -->
        <g id="edge10" class="edge">
            <title>14&#45;&#45;16</title>
            <path fill="none" stroke="SteelBlue" stroke-width="2" d="M131.49,-101.3C113.78,-101.32 79.08,-101.35 61.2,-101.37"/>
        </g>
        <!-- 15&#45;&#45;16 -->
        <g id="edge8" class="edge">
            <title>15&#45;&#45;16</title>
            <path fill="none" stroke="SteelBlue" stroke-width="2" d="M86.3,-119.23C78.58,-115.44 67.84,-110.17 60.04,-106.34"/>
        </g>
        <!-- 15&#45;&#45;17 -->
        <g id="edge16" class="edge">
            <title>15&#45;&#45;17</title>
            <path fill="none" stroke="SteelBlue" stroke-width="2" d="M89.29,-115.44C78.26,-101.49 56.61,-74.1 45.59,-60.17"/>
        </g>
        <!-- 16&#45;&#45;17 -->
        <g id="edge9" class="edge">
            <title>16&#45;&#45;17</title>
            <path fill="none" stroke="SteelBlue" stroke-width="2" d="M47.58,-90.82C45.72,-82.48 43.12,-70.89 41.24,-62.47"/>
        </g>
        <!-- 2&#45;&#45;3 -->
        <g id="edge20" class="edge">
            <title>2&#45;&#45;3</title>
            <path fill="none" stroke="SteelBlue" stroke-width="2" d="M239.32,-143.77C231.7,-139.26 221.06,-132.95 213.44,-128.44"/>
        </g>
        <!-- 2&#45;&#45;4 -->
        <g id="edge19" class="edge">
            <title>2&#45;&#45;4</title>
            <path fill="none" stroke="SteelBlue" stroke-width="2" d="M240.54,-156.7C228.31,-167.44 205.58,-187.38 193.46,-198.02"/>
        </g>
        <!-- 2&#45;&#45;5 -->
        <g id="edge18" class="edge">
            <title>2&#45;&#45;5</title>
            <path fill="none" stroke="SteelBlue" stroke-width="2" d="M246.36,-160.17C244.37,-168.77 241.6,-180.77 239.61,-189.37"/>
        </g>
        <!-- 3&#45;&#45;4 -->
        <g id="edge29" class="edge">
            <title>3&#45;&#45;4</title>
            <path fill="none" stroke="SteelBlue" stroke-width="2" d="M201.51,-133.56C197.95,-149.34 191.35,-178.58 187.79,-194.36"/>
        </g>
        <!-- 3&#45;&#45;5 -->
        <g id="edge28" class="edge">
            <title>3&#45;&#45;5</title>
            <path fill="none" stroke="SteelBlue" stroke-width="2" d="M208.27,-132.91C214.6,-147.64 226.3,-174.87 232.68,-189.74"/>
        </g>
        <!-- 4&#45;&#45;5 -->
        <g id="edge34" class="edge">
            <title>4&#45;&#45;5</title>
            <path fill="none" stroke="SteelBlue" stroke-width="2" d="M196.59,-204.03C205.28,-203.19 217.24,-202.03 225.92,-201.19"/>
        </g>
        <!-- 6&#45;&#45;7 -->
        <g id="edge14" class="edge">
            <title>6&#45;&#45;7</title>
            <path fill="none" stroke="SteelBlue" stroke-width="2" d="M85.32,-199.77C77.7,-195.26 67.06,-188.95 59.44,-184.44"/>
        </g>
        <!-- 6&#45;&#45;8 -->
        <g id="edge13" class="edge">
            <title>6&#45;&#45;8</title>
            <path fill="none" stroke="SteelBlue" stroke-width="2" d="M86.54,-212.7C74.31,-223.44 51.58,-243.38 39.46,-254.02"/>
        </g>
        <!-- 6&#45;&#45;9 -->
        <g id="edge11" class="edge">
            <title>6&#45;&#45;9</title>
            <path fill="none" stroke="SteelBlue" stroke-width="2" d="M92.36,-216.17C90.37,-224.77 87.6,-236.77 85.61,-245.37"/>
        </g>
        <!-- 7&#45;&#45;8 -->
        <g id="edge22" class="edge">
            <title>7&#45;&#45;8</title>
            <path fill="none" stroke="SteelBlue" stroke-width="2" d="M47.51,-189.56C43.95,-205.34 37.35,-234.58 33.79,-250.36"/>
        </g>
        <!-- 7&#45;&#45;9 -->
        <g id="edge32" class="edge">
            <title>7&#45;&#45;9</title>
            <path fill="none" stroke="SteelBlue" stroke-width="2" d="M54.27,-188.91C60.6,-203.64 72.3,-230.87 78.68,-245.74"/>
        </g>
        <!-- 8&#45;&#45;9 -->
        <g id="edge23" class="edge">
            <title>8&#45;&#45;9</title>
            <path fill="none" stroke="SteelBlue" stroke-width="2" d="M42.59,-260.03C51.28,-259.19 63.24,-258.03 71.92,-257.19"/>
        </g>
    </g>
</svg>