<?xml version="1.0" encoding="UTF-8" standalone="no"?>
<!DOCTYPE svg PUBLIC "-//W3C//DTD SVG 1.1//EN"
        "http://www.w3.org/Graphics/SVG/1.1/DTD/svg11.dtd">
<!-- Generated by graphviz version 14.0.0 (20250921.2048)
 -->
<!-- Pages: 1 -->
<svg width="304pt" height="264pt"
     viewBox="0.00 0.00 304.00 264.00" xmlns="http://www.w3.org/2000/svg" xmlns:xlink="http://www.w3.org/1999/xlink">
    <g id="graph0" class="graph" transform="scale(1 1) rotate(0) translate(4 259.92)">
        <polygon fill="none" stroke="none" points="-4,4 -4,-259.92 299.64,-259.92 299.64,4 -4,4"/>
        <!-- 1 -->
        <g id="node1" class="node">
            <title>1</title>
            <ellipse fill="SteelBlue" stroke="Black" cx="46.06" cy="-144.24" rx="10.8" ry="10.8"/>
            <text xml:space="preserve" text-anchor="middle" x="46.06" y="-139.96" font-family="Times,serif" font-size="12.00" fill="White">1</text>
        </g>
        <!-- 10 -->
        <g id="node2" class="node">
            <title>10</title>
            <ellipse fill="SteelBlue" stroke="Black" cx="109.3" cy="-166.92" rx="10.8" ry="10.8"/>
            <text xml:space="preserve" text-anchor="middle" x="109.3" y="-162.64" font-family="Times,serif" font-size="12.00" fill="White">10</text>
        </g>
        <!-- 1&#45;&#45;10 -->
        <g id="edge16" class="edge">
            <title>1&#45;&#45;10</title>
            <path fill="none" stroke="SteelBlue" stroke-width="2" d="M54.32,-151.5C71.12,-166.05 76.04,-167.83 98.22,-167.28"/>
        </g>
        <!-- 2 -->
        <g id="node10" class="node">
            <title>2</title>
            <ellipse fill="SteelBlue" stroke="Black" cx="112.8" cy="-192.31" rx="10.8" ry="10.8"/>
            <text xml:space="preserve" text-anchor="middle" x="112.8" y="-188.04" font-family="Times,serif" font-size="12.00" fill="White">2</text>
        </g>
        <!-- 1&#45;&#45;2 -->
        <g id="edge3" class="edge">
            <title>1&#45;&#45;2</title>
            <path fill="none" stroke="SteelBlue" stroke-width="2" d="M52.69,-153.29C72.82,-180.61 77.38,-184.29 101.9,-189.91"/>
        </g>
        <!-- 4 -->
        <g id="node12" class="node">
            <title>4</title>
            <ellipse fill="SteelBlue" stroke="Black" cx="10.8" cy="-69.97" rx="10.8" ry="10.8"/>
            <text xml:space="preserve" text-anchor="middle" x="10.8" y="-65.7" font-family="Times,serif" font-size="12.00" fill="White">4</text>
        </g>
        <!-- 1&#45;&#45;4 -->
        <g id="edge5" class="edge">
            <title>1&#45;&#45;4</title>
            <path fill="none" stroke="SteelBlue" stroke-width="2" d="M38.36,-136.11C15.12,-111.45 12.32,-106.3 11.2,-81.14"/>
        </g>
        <!-- 8 -->
        <g id="node16" class="node">
            <title>8</title>
            <ellipse fill="SteelBlue" stroke="Black" cx="34.6" cy="-78.28" rx="10.8" ry="10.8"/>
            <text xml:space="preserve" text-anchor="middle" x="34.6" y="-74.01" font-family="Times,serif" font-size="12.00" fill="White">8</text>
        </g>
        <!-- 1&#45;&#45;8 -->
        <g id="edge15" class="edge">
            <title>1&#45;&#45;8</title>
            <path fill="none" stroke="SteelBlue" stroke-width="2" d="M40.17,-134.6C28.95,-115.9 28.05,-110.67 32.3,-89.33"/>
        </g>
        <!-- 11 -->
        <g id="node3" class="node">
            <title>11</title>
            <ellipse fill="SteelBlue" stroke="Black" cx="161.96" cy="-123.15" rx="10.8" ry="10.8"/>
            <text xml:space="preserve" text-anchor="middle" x="161.96" y="-118.87" font-family="Times,serif" font-size="12.00" fill="White">11</text>
        </g>
        <!-- 10&#45;&#45;11 -->
        <g id="edge18" class="edge">
            <title>10&#45;&#45;11</title>
            <path fill="none" stroke="SteelBlue" stroke-width="2" d="M119.72,-163.46C141.68,-156 145.78,-152.66 156.63,-133.01"/>
        </g>
        <!-- 5 -->
        <g id="node13" class="node">
            <title>5</title>
            <ellipse fill="SteelBlue" stroke="Black" cx="183.3" cy="-135.53" rx="10.8" ry="10.8"/>
            <text xml:space="preserve" text-anchor="middle" x="183.3" y="-131.26" font-family="Times,serif" font-size="12.00" fill="White">5</text>
        </g>
        <!-- 10&#45;&#45;5 -->
        <g id="edge22" class="edge">
            <title>10&#45;&#45;5</title>
            <path fill="none" stroke="SteelBlue" stroke-width="2" d="M120.25,-165.93C153.39,-162.86 158.78,-160.91 175.81,-143.38"/>
        </g>
        <!-- 9 -->
        <g id="node17" class="node">
            <title>9</title>
            <ellipse fill="SteelBlue" stroke="Black" cx="26.84" cy="-160.72" rx="10.8" ry="10.8"/>
            <text xml:space="preserve" text-anchor="middle" x="26.84" y="-156.44" font-family="Times,serif" font-size="12.00" fill="White">9</text>
        </g>
        <!-- 10&#45;&#45;9 -->
        <g id="edge14" class="edge">
            <title>10&#45;&#45;9</title>
            <path fill="none" stroke="SteelBlue" stroke-width="2" d="M98.36,-169.6C65.25,-177.62 59.36,-177.5 36.81,-165.94"/>
        </g>
        <!-- 12 -->
        <g id="node4" class="node">
            <title>12</title>
            <ellipse fill="SteelBlue" stroke="Black" cx="148.82" cy="-58.84" rx="10.8" ry="10.8"/>
            <text xml:space="preserve" text-anchor="middle" x="148.82" y="-54.57" font-family="Times,serif" font-size="12.00" fill="White">12</text>
        </g>
        <!-- 11&#45;&#45;12 -->
        <g id="edge17" class="edge">
            <title>11&#45;&#45;12</title>
            <path fill="none" stroke="SteelBlue" stroke-width="2" d="M163.91,-112.34C167.49,-91.45 166.45,-86.35 154.89,-68.2"/>
        </g>
        <!-- 11&#45;&#45;2 -->
        <g id="edge2" class="edge">
            <title>11&#45;&#45;2</title>
            <path fill="none" stroke="SteelBlue" stroke-width="2" d="M158.77,-133.63C148.35,-167.49 145.24,-172.38 122.23,-186.59"/>
        </g>
        <!-- 6 -->
        <g id="node14" class="node">
            <title>6</title>
            <ellipse fill="SteelBlue" stroke="Black" cx="168.5" cy="-42.65" rx="10.8" ry="10.8"/>
            <text xml:space="preserve" text-anchor="middle" x="168.5" y="-38.37" font-family="Times,serif" font-size="12.00" fill="White">6</text>
        </g>
        <!-- 11&#45;&#45;6 -->
        <g id="edge19" class="edge">
            <title>11&#45;&#45;6</title>
            <path fill="none" stroke="SteelBlue" stroke-width="2" d="M166.22,-113.05C179.03,-82.46 179.81,-76.76 172.04,-53.11"/>
        </g>
        <!-- 3 -->
        <g id="node11" class="node">
            <title>3</title>
            <ellipse fill="SteelBlue" stroke="Black" cx="86.08" cy="-35.8" rx="10.8" ry="10.8"/>
            <text xml:space="preserve" text-anchor="middle" x="86.08" y="-31.52" font-family="Times,serif" font-size="12.00" fill="White">3</text>
        </g>
        <!-- 12&#45;&#45;3 -->
        <g id="edge32" class="edge">
            <title>12&#45;&#45;3</title>
            <path fill="none" stroke="SteelBlue" stroke-width="2" d="M140.45,-51.35C124.09,-36.95 119.15,-35.18 97.09,-35.53"/>
        </g>
        <!-- 12&#45;&#45;5 -->
        <g id="edge21" class="edge">
            <title>12&#45;&#45;5</title>
            <path fill="none" stroke="SteelBlue" stroke-width="2" d="M156.19,-66.93C179.83,-93.03 182.53,-98.22 183.13,-124.39"/>
        </g>
        <!-- 7 -->
        <g id="node15" class="node">
            <title>7</title>
            <ellipse fill="SteelBlue" stroke="Black" cx="81.83" cy="-10.8" rx="10.8" ry="10.8"/>
            <text xml:space="preserve" text-anchor="middle" x="81.83" y="-6.52" font-family="Times,serif" font-size="12.00" fill="White">7</text>
        </g>
        <!-- 12&#45;&#45;7 -->
        <g id="edge30" class="edge">
            <title>12&#45;&#45;7</title>
            <path fill="none" stroke="SteelBlue" stroke-width="2" d="M142.2,-49.8C122.1,-22.49 117.52,-18.81 92.82,-13.2"/>
        </g>
        <!-- 13 -->
        <g id="node5" class="node">
            <title>13</title>
            <ellipse fill="SteelBlue" stroke="Black" cx="200.8" cy="-197.14" rx="10.8" ry="10.8"/>
            <text xml:space="preserve" text-anchor="middle" x="200.8" y="-192.87" font-family="Times,serif" font-size="12.00" fill="White">13</text>
        </g>
        <!-- 14 -->
        <g id="node6" class="node">
            <title>14</title>
            <ellipse fill="SteelBlue" stroke="Black" cx="284.84" cy="-189.42" rx="10.8" ry="10.8"/>
            <text xml:space="preserve" text-anchor="middle" x="284.84" y="-185.15" font-family="Times,serif" font-size="12.00" fill="White">14</text>
        </g>
        <!-- 13&#45;&#45;14 -->
        <g id="edge26" class="edge">
            <title>13&#45;&#45;14</title>
            <path fill="none" stroke="SteelBlue" stroke-width="2" d="M210.76,-192.25C239.84,-178.1 245.46,-177.49 274.16,-186.14"/>
        </g>
        <!-- 15 -->
        <g id="node7" class="node">
            <title>15</title>
            <ellipse fill="SteelBlue" stroke="Black" cx="239.93" cy="-162.8" rx="10.8" ry="10.8"/>
            <text xml:space="preserve" text-anchor="middle" x="239.93" y="-158.53" font-family="Times,serif" font-size="12.00" fill="White">15</text>
        </g>
        <!-- 13&#45;&#45;15 -->
        <g id="edge23" class="edge">
            <title>13&#45;&#45;15</title>
            <path fill="none" stroke="SteelBlue" stroke-width="2" d="M205.87,-187.21C212.46,-174.84 216.01,-171.77 229.5,-166.61"/>
        </g>
        <!-- 16 -->
        <g id="node8" class="node">
            <title>16</title>
            <ellipse fill="SteelBlue" stroke="Black" cx="221.36" cy="-245.12" rx="10.8" ry="10.8"/>
            <text xml:space="preserve" text-anchor="middle" x="221.36" y="-240.85" font-family="Times,serif" font-size="12.00" fill="White">16</text>
        </g>
        <!-- 13&#45;&#45;16 -->
        <g id="edge34" class="edge">
            <title>13&#45;&#45;16</title>
            <path fill="none" stroke="SteelBlue" stroke-width="2" d="M201.28,-208.28C202.13,-223.1 203.91,-227.47 213.44,-237.27"/>
        </g>
        <!-- 17 -->
        <g id="node9" class="node">
            <title>17</title>
            <ellipse fill="SteelBlue" stroke="Black" cx="273.13" cy="-240.1" rx="10.8" ry="10.8"/>
            <text xml:space="preserve" text-anchor="middle" x="273.13" y="-235.82" font-family="Times,serif" font-size="12.00" fill="White">17</text>
        </g>
        <!-- 13&#45;&#45;17 -->
        <g id="edge9" class="edge">
            <title>13&#45;&#45;17</title>
            <path fill="none" stroke="SteelBlue" stroke-width="2" d="M207.9,-205.91C228.6,-231.3 233.45,-234.34 261.98,-238.53"/>
        </g>
        <!-- 14&#45;&#45;15 -->
        <g id="edge24" class="edge">
            <title>14&#45;&#45;15</title>
            <path fill="none" stroke="SteelBlue" stroke-width="2" d="M278.16,-180.68C269.49,-169.72 265.43,-167.41 250.66,-164.65"/>
        </g>
        <!-- 14&#45;&#45;16 -->
        <g id="edge27" class="edge">
            <title>14&#45;&#45;16</title>
            <path fill="none" stroke="SteelBlue" stroke-width="2" d="M279.75,-199.17C264.74,-227.66 260.58,-231.37 231.66,-241.55"/>
        </g>
        <!-- 14&#45;&#45;17 -->
        <g id="edge10" class="edge">
            <title>14&#45;&#45;17</title>
            <path fill="none" stroke="SteelBlue" stroke-width="2" d="M286.36,-200.32C288.18,-214.87 287.21,-219.46 279.55,-230.89"/>
        </g>
        <!-- 15&#45;&#45;16 -->
        <g id="edge25" class="edge">
            <title>15&#45;&#45;16</title>
            <path fill="none" stroke="SteelBlue" stroke-width="2" d="M234.01,-172.14C215.95,-200.85 214.5,-206.36 219.38,-234.25"/>
        </g>
        <!-- 15&#45;&#45;17 -->
        <g id="edge12" class="edge">
            <title>15&#45;&#45;17</title>
            <path fill="none" stroke="SteelBlue" stroke-width="2" d="M247.44,-170.89C270.38,-195.76 272.8,-200.9 273.09,-229.09"/>
        </g>
        <!-- 16&#45;&#45;17 -->
        <g id="edge11" class="edge">
            <title>16&#45;&#45;17</title>
            <path fill="none" stroke="SteelBlue" stroke-width="2" d="M231.79,-248.07C245.89,-251.84 250.52,-251.42 263.34,-245.11"/>
        </g>
        <!-- 2&#45;&#45;5 -->
        <g id="edge4" class="edge">
            <title>2&#45;&#45;5</title>
            <path fill="none" stroke="SteelBlue" stroke-width="2" d="M123.4,-189.03C156.41,-178.67 160.86,-175.1 177.86,-145.19"/>
        </g>
        <!-- 2&#45;&#45;9 -->
        <g id="edge1" class="edge">
            <title>2&#45;&#45;9</title>
            <path fill="none" stroke="SteelBlue" stroke-width="2" d="M101.63,-192.62C66.76,-193.43 61.34,-191.44 35.23,-168.23"/>
        </g>
        <!-- 3&#45;&#45;4 -->
        <g id="edge8" class="edge">
            <title>3&#45;&#45;4</title>
            <path fill="none" stroke="SteelBlue" stroke-width="2" d="M74.9,-37.03C41.07,-40.87 35.59,-43.01 18.37,-61.64"/>
        </g>
        <!-- 3&#45;&#45;6 -->
        <g id="edge28" class="edge">
            <title>3&#45;&#45;6</title>
            <path fill="none" stroke="SteelBlue" stroke-width="2" d="M97.07,-33.21C130.33,-25.49 136.22,-25.66 158.61,-37.37"/>
        </g>
        <!-- 3&#45;&#45;8 -->
        <g id="edge33" class="edge">
            <title>3&#45;&#45;8</title>
            <path fill="none" stroke="SteelBlue" stroke-width="2" d="M75.38,-39.26C54.77,-46.12 50.69,-49.49 40.04,-68.42"/>
        </g>
        <!-- 4&#45;&#45;7 -->
        <g id="edge6" class="edge">
            <title>4&#45;&#45;7</title>
            <path fill="none" stroke="SteelBlue" stroke-width="2" d="M15.96,-60.48C33.18,-29.02 37.51,-25.39 71.44,-14.19"/>
        </g>
        <!-- 4&#45;&#45;9 -->
        <g id="edge7" class="edge">
            <title>4&#45;&#45;9</title>
            <path fill="none" stroke="SteelBlue" stroke-width="2" d="M8.52,-81C1.51,-115.58 2.55,-121.2 21.13,-151.48"/>
        </g>
        <!-- 5&#45;&#45;6 -->
        <g id="edge20" class="edge">
            <title>5&#45;&#45;6</title>
            <path fill="none" stroke="SteelBlue" stroke-width="2" d="M185.71,-124.82C193.58,-89.23 192.69,-83.56 174.19,-52.22"/>
        </g>
        <!-- 6&#45;&#45;7 -->
        <g id="edge29" class="edge">
            <title>6&#45;&#45;7</title>
            <path fill="none" stroke="SteelBlue" stroke-width="2" d="M160.13,-35.13C133.8,-11.65 128.4,-9.72 92.74,-10.52"/>
        </g>
        <!-- 7&#45;&#45;8 -->
        <g id="edge31" class="edge">
            <title>7&#45;&#45;8</title>
            <path fill="none" stroke="SteelBlue" stroke-width="2" d="M72.47,-16.58C50.91,-30.12 47.85,-35.03 37.8,-67.75"/>
        </g>
        <!-- 8&#45;&#45;9 -->
        <g id="edge13" class="edge">
            <title>8&#45;&#45;9</title>
            <path fill="none" stroke="SteelBlue" stroke-width="2" d="M30.11,-88.62C16.61,-119.92 15.74,-125.75 23.36,-149.99"/>
        </g>
    </g>
</svg>