<svg width="360pt" height="360pt"
 viewBox="0.00 0.00 360.00 360.00" xmlns="http://www.w3.org/2000/svg" xmlns:xlink="http://www.w3.org/1999/xlink">
<g id="graph0" class="graph" transform="scale(3.2656 3.2656) rotate(0) translate(4 106.24)">
<polygon fill="none" stroke="none" points="-4,4 -4,-106.24 106.24,-106.24 106.24,4 -4,4"/>
<!-- 6_0 -->
<g id="node1" class="node">
<title>6_0</title>
<ellipse fill="SlateGray" stroke="SlateGray" cx="87.12" cy="-0.72" rx="0.72" ry="0.72"/>
</g>
<!-- 6_5 -->
<g id="node59" class="node">
<title>6_5</title>
<ellipse fill="SlateGray" stroke="SlateGray" cx="87.12" cy="-72.72" rx="0.72" ry="0.72"/>
</g>
<!-- 6_0&#45;&#45;6_5 -->
<g id="edge22" class="edge">
<title>6_0&#45;&#45;6_5</title>
<path fill="none" stroke="SteelBlue" stroke-width="0.2" d="M87.12,-1.74C87.12,-9.81 87.12,-63.32 87.12,-71.64"/>
</g>
<!-- 0_2 -->
<g id="node2" class="node">
<title>0_2</title>
<ellipse fill="SlateGray" stroke="SlateGray" cx="0.72" cy="-29.52" rx="0.72" ry="0.72"/>
</g>
<!-- 3_6 -->
<g id="node7" class="node">
<title>3_6</title>
<ellipse fill="SlateGray" stroke="SlateGray" cx="43.92" cy="-87.12" rx="0.72" ry="0.72"/>
</g>
<!-- 0_2&#45;&#45;3_6 -->
<g id="edge53" class="edge">
<title>0_2&#45;&#45;3_6</title>
<path fill="none" stroke="SteelBlue" stroke-width="0.2" d="M1.21,-30.17C5.58,-36 38.19,-79.48 43.26,-86.24"/>
</g>
<!-- 5_2 -->
<g id="node10" class="node">
<title>5_2</title>
<ellipse fill="SlateGray" stroke="SlateGray" cx="72.72" cy="-29.52" rx="0.72" ry="0.72"/>
</g>
<!-- 0_2&#45;&#45;5_2 -->
<g id="edge117" class="edge">
<title>0_2&#45;&#45;5_2</title>
<path fill="none" stroke="SteelBlue" stroke-width="0.2" d="M1.74,-29.52C9.81,-29.52 63.32,-29.52 71.64,-29.52"/>
</g>
<!-- 0_7 -->
<g id="node17" class="node">
<title>0_7</title>
<ellipse fill="SlateGray" stroke="SlateGray" cx="0.72" cy="-101.52" rx="0.72" ry="0.72"/>
</g>
<!-- 0_2&#45;&#45;0_7 -->
<g id="edge119" class="edge">
<title>0_2&#45;&#45;0_7</title>
<path fill="none" stroke="SteelBlue" stroke-width="0.2" d="M0.72,-30.54C0.72,-38.61 0.72,-92.12 0.72,-100.44"/>
</g>
<!-- 4_5 -->
<g id="node44" class="node">
<title>4_5</title>
<ellipse fill="SlateGray" stroke="SlateGray" cx="58.32" cy="-72.72" rx="0.72" ry="0.72"/>
</g>
<!-- 0_2&#45;&#45;4_5 -->
<g id="edge80" class="edge">
<title>0_2&#45;&#45;4_5</title>
<path fill="none" stroke="SteelBlue" stroke-width="0.2" d="M1.37,-30.01C7.2,-34.38 50.68,-66.99 57.44,-72.06"/>
</g>
<!-- 2_3 -->
<g id="node3" class="node">
<title>2_3</title>
<ellipse fill="SlateGray" stroke="SlateGray" cx="29.52" cy="-43.92" rx="0.72" ry="0.72"/>
</g>
<!-- 2_3&#45;&#45;6_0 -->
<g id="edge112" class="edge">
<title>2_3&#45;&#45;6_0</title>
<path fill="none" stroke="SteelBlue" stroke-width="0.2" d="M30.17,-43.43C36,-39.06 79.48,-6.45 86.24,-1.38"/>
</g>
<!-- 5_7 -->
<g id="node24" class="node">
<title>5_7</title>
<ellipse fill="SlateGray" stroke="SlateGray" cx="72.72" cy="-101.52" rx="0.72" ry="0.72"/>
</g>
<!-- 2_3&#45;&#45;5_7 -->
<g id="edge79" class="edge">
<title>2_3&#45;&#45;5_7</title>
<path fill="none" stroke="SteelBlue" stroke-width="0.2" d="M30.01,-44.57C34.38,-50.4 66.99,-93.88 72.06,-100.64"/>
</g>
<!-- 7_3 -->
<g id="node25" class="node">
<title>7_3</title>
<ellipse fill="SlateGray" stroke="SlateGray" cx="101.52" cy="-43.92" rx="0.72" ry="0.72"/>
</g>
<!-- 2_3&#45;&#45;7_3 -->
<g id="edge41" class="edge">
<title>2_3&#45;&#45;7_3</title>
<path fill="none" stroke="SteelBlue" stroke-width="0.2" d="M30.54,-43.92C38.61,-43.92 92.12,-43.92 100.44,-43.92"/>
</g>
<!-- 6_6 -->
<g id="node56" class="node">
<title>6_6</title>
<ellipse fill="SlateGray" stroke="SlateGray" cx="87.12" cy="-87.12" rx="0.72" ry="0.72"/>
</g>
<!-- 2_3&#45;&#45;6_6 -->
<g id="edge127" class="edge">
<title>2_3&#45;&#45;6_6</title>
<path fill="none" stroke="SteelBlue" stroke-width="0.2" d="M30.17,-44.41C36,-48.78 79.48,-81.39 86.24,-86.46"/>
</g>
<!-- 6_2 -->
<g id="node4" class="node">
<title>6_2</title>
<ellipse fill="SlateGray" stroke="SlateGray" cx="87.12" cy="-29.52" rx="0.72" ry="0.72"/>
</g>
<!-- 6_7 -->
<g id="node28" class="node">
<title>6_7</title>
<ellipse fill="SlateGray" stroke="SlateGray" cx="87.12" cy="-101.52" rx="0.72" ry="0.72"/>
</g>
<!-- 6_2&#45;&#45;6_7 -->
<g id="edge76" class="edge">
<title>6_2&#45;&#45;6_7</title>
<path fill="none" stroke="SteelBlue" stroke-width="0.2" d="M87.12,-30.54C87.12,-38.61 87.12,-92.12 87.12,-100.44"/>
</g>
<!-- 5_5 -->
<g id="node5" class="node">
<title>5_5</title>
<ellipse fill="SlateGray" stroke="SlateGray" cx="72.72" cy="-72.72" rx="0.72" ry="0.72"/>
</g>
<!-- 0_4 -->
<g id="node6" class="node">
<title>0_4</title>
<ellipse fill="SlateGray" stroke="SlateGray" cx="0.72" cy="-58.32" rx="0.72" ry="0.72"/>
</g>
<!-- 3_0 -->
<g id="node13" class="node">
<title>3_0</title>
<ellipse fill="SlateGray" stroke="SlateGray" cx="43.92" cy="-0.72" rx="0.72" ry="0.72"/>
</g>
<!-- 0_4&#45;&#45;3_0 -->
<g id="edge7" class="edge">
<title>0_4&#45;&#45;3_0</title>
<path fill="none" stroke="SteelBlue" stroke-width="0.2" d="M1.21,-57.67C5.58,-51.84 38.19,-8.36 43.26,-1.6"/>
</g>
<!-- 4_1 -->
<g id="node20" class="node">
<title>4_1</title>
<ellipse fill="SlateGray" stroke="SlateGray" cx="58.32" cy="-15.12" rx="0.72" ry="0.72"/>
</g>
<!-- 0_4&#45;&#45;4_1 -->
<g id="edge29" class="edge">
<title>0_4&#45;&#45;4_1</title>
<path fill="none" stroke="SteelBlue" stroke-width="0.2" d="M1.37,-57.83C7.2,-53.46 50.68,-20.85 57.44,-15.78"/>
</g>
<!-- 5_4 -->
<g id="node22" class="node">
<title>5_4</title>
<ellipse fill="SlateGray" stroke="SlateGray" cx="72.72" cy="-58.32" rx="0.72" ry="0.72"/>
</g>
<!-- 0_4&#45;&#45;5_4 -->
<g id="edge36" class="edge">
<title>0_4&#45;&#45;5_4</title>
<path fill="none" stroke="SteelBlue" stroke-width="0.2" d="M1.74,-58.32C9.81,-58.32 63.32,-58.32 71.64,-58.32"/>
</g>
<!-- 4_7 -->
<g id="node51" class="node">
<title>4_7</title>
<ellipse fill="SlateGray" stroke="SlateGray" cx="58.32" cy="-101.52" rx="0.72" ry="0.72"/>
</g>
<!-- 0_4&#45;&#45;4_7 -->
<g id="edge13" class="edge">
<title>0_4&#45;&#45;4_7</title>
<path fill="none" stroke="SteelBlue" stroke-width="0.2" d="M1.37,-58.81C7.2,-63.18 50.68,-95.79 57.44,-100.86"/>
</g>
<!-- 3_6&#45;&#45;6_2 -->
<g id="edge54" class="edge">
<title>3_6&#45;&#45;6_2</title>
<path fill="none" stroke="SteelBlue" stroke-width="0.2" d="M44.41,-86.47C48.78,-80.64 81.39,-37.16 86.46,-30.4"/>
</g>
<!-- 3_6&#45;&#45;7_3 -->
<g id="edge40" class="edge">
<title>3_6&#45;&#45;7_3</title>
<path fill="none" stroke="SteelBlue" stroke-width="0.2" d="M44.57,-86.63C50.4,-82.26 93.88,-49.65 100.64,-44.58"/>
</g>
<!-- 6_3 -->
<g id="node8" class="node">
<title>6_3</title>
<ellipse fill="SlateGray" stroke="SlateGray" cx="87.12" cy="-43.92" rx="0.72" ry="0.72"/>
</g>
<!-- 1_5 -->
<g id="node9" class="node">
<title>1_5</title>
<ellipse fill="SlateGray" stroke="SlateGray" cx="15.12" cy="-72.72" rx="0.72" ry="0.72"/>
</g>
<!-- 1_5&#45;&#45;5_2 -->
<g id="edge116" class="edge">
<title>1_5&#45;&#45;5_2</title>
<path fill="none" stroke="SteelBlue" stroke-width="0.2" d="M15.77,-72.23C21.6,-67.86 65.08,-35.25 71.84,-30.18"/>
</g>
<!-- 1_5&#45;&#45;4_1 -->
<g id="edge28" class="edge">
<title>1_5&#45;&#45;4_1</title>
<path fill="none" stroke="SteelBlue" stroke-width="0.2" d="M15.61,-72.07C19.98,-66.24 52.59,-22.76 57.66,-16"/>
</g>
<!-- 1_5&#45;&#45;6_5 -->
<g id="edge23" class="edge">
<title>1_5&#45;&#45;6_5</title>
<path fill="none" stroke="SteelBlue" stroke-width="0.2" d="M16.14,-72.72C24.21,-72.72 77.72,-72.72 86.04,-72.72"/>
</g>
<!-- 5_2&#45;&#45;5_7 -->
<g id="edge78" class="edge">
<title>5_2&#45;&#45;5_7</title>
<path fill="none" stroke="SteelBlue" stroke-width="0.2" d="M72.72,-30.54C72.72,-38.61 72.72,-92.12 72.72,-100.44"/>
</g>
<!-- 1_0 -->
<g id="node11" class="node">
<title>1_0</title>
<ellipse fill="SlateGray" stroke="SlateGray" cx="15.12" cy="-0.72" rx="0.72" ry="0.72"/>
</g>
<!-- 1_0&#45;&#45;6_0 -->
<g id="edge95" class="edge">
<title>1_0&#45;&#45;6_0</title>
<path fill="none" stroke="SteelBlue" stroke-width="0.2" d="M16.14,-0.72C24.21,-0.72 77.72,-0.72 86.04,-0.72"/>
</g>
<!-- 1_0&#45;&#45;1_5 -->
<g id="edge94" class="edge">
<title>1_0&#45;&#45;1_5</title>
<path fill="none" stroke="SteelBlue" stroke-width="0.2" d="M15.12,-1.74C15.12,-9.81 15.12,-63.32 15.12,-71.64"/>
</g>
<!-- 5_3 -->
<g id="node16" class="node">
<title>5_3</title>
<ellipse fill="SlateGray" stroke="SlateGray" cx="72.72" cy="-43.92" rx="0.72" ry="0.72"/>
</g>
<!-- 1_0&#45;&#45;5_3 -->
<g id="edge65" class="edge">
<title>1_0&#45;&#45;5_3</title>
<path fill="none" stroke="SteelBlue" stroke-width="0.2" d="M15.77,-1.21C21.6,-5.58 65.08,-38.19 71.84,-43.26"/>
</g>
<!-- 4_4 -->
<g id="node33" class="node">
<title>4_4</title>
<ellipse fill="SlateGray" stroke="SlateGray" cx="58.32" cy="-58.32" rx="0.72" ry="0.72"/>
</g>
<!-- 1_0&#45;&#45;4_4 -->
<g id="edge93" class="edge">
<title>1_0&#45;&#45;4_4</title>
<path fill="none" stroke="SteelBlue" stroke-width="0.2" d="M15.61,-1.37C19.98,-7.2 52.59,-50.68 57.66,-57.44"/>
</g>
<!-- 2_2 -->
<g id="node12" class="node">
<title>2_2</title>
<ellipse fill="SlateGray" stroke="SlateGray" cx="29.52" cy="-29.52" rx="0.72" ry="0.72"/>
</g>
<!-- 5_6 -->
<g id="node18" class="node">
<title>5_6</title>
<ellipse fill="SlateGray" stroke="SlateGray" cx="72.72" cy="-87.12" rx="0.72" ry="0.72"/>
</g>
<!-- 2_2&#45;&#45;5_6 -->
<g id="edge106" class="edge">
<title>2_2&#45;&#45;5_6</title>
<path fill="none" stroke="SteelBlue" stroke-width="0.2" d="M30.01,-30.17C34.38,-36 66.99,-79.48 72.06,-86.24"/>
</g>
<!-- 7_2 -->
<g id="node35" class="node">
<title>7_2</title>
<ellipse fill="SlateGray" stroke="SlateGray" cx="101.52" cy="-29.52" rx="0.72" ry="0.72"/>
</g>
<!-- 2_2&#45;&#45;7_2 -->
<g id="edge123" class="edge">
<title>2_2&#45;&#45;7_2</title>
<path fill="none" stroke="SteelBlue" stroke-width="0.2" d="M30.54,-29.52C38.61,-29.52 92.12,-29.52 100.44,-29.52"/>
</g>
<!-- 2_7 -->
<g id="node47" class="node">
<title>2_7</title>
<ellipse fill="SlateGray" stroke="SlateGray" cx="29.52" cy="-101.52" rx="0.72" ry="0.72"/>
</g>
<!-- 2_2&#45;&#45;2_7 -->
<g id="edge124" class="edge">
<title>2_2&#45;&#45;2_7</title>
<path fill="none" stroke="SteelBlue" stroke-width="0.2" d="M29.52,-30.54C29.52,-38.61 29.52,-92.12 29.52,-100.44"/>
</g>
<!-- 2_2&#45;&#45;6_5 -->
<g id="edge21" class="edge">
<title>2_2&#45;&#45;6_5</title>
<path fill="none" stroke="SteelBlue" stroke-width="0.2" d="M30.17,-30.01C36,-34.38 79.48,-66.99 86.24,-72.06"/>
</g>
<!-- 3_5 -->
<g id="node14" class="node">
<title>3_5</title>
<ellipse fill="SlateGray" stroke="SlateGray" cx="43.92" cy="-72.72" rx="0.72" ry="0.72"/>
</g>
<!-- 3_0&#45;&#45;3_5 -->
<g id="edge8" class="edge">
<title>3_0&#45;&#45;3_5</title>
<path fill="none" stroke="SteelBlue" stroke-width="0.2" d="M43.92,-1.74C43.92,-9.81 43.92,-63.32 43.92,-71.64"/>
</g>
<!-- 3_0&#45;&#45;7_3 -->
<g id="edge5" class="edge">
<title>3_0&#45;&#45;7_3</title>
<path fill="none" stroke="SteelBlue" stroke-width="0.2" d="M44.57,-1.21C50.4,-5.58 93.88,-38.19 100.64,-43.26"/>
</g>
<!-- 6_4 -->
<g id="node61" class="node">
<title>6_4</title>
<ellipse fill="SlateGray" stroke="SlateGray" cx="87.12" cy="-58.32" rx="0.72" ry="0.72"/>
</g>
<!-- 3_0&#45;&#45;6_4 -->
<g id="edge6" class="edge">
<title>3_0&#45;&#45;6_4</title>
<path fill="none" stroke="SteelBlue" stroke-width="0.2" d="M44.41,-1.37C48.78,-7.2 81.39,-50.68 86.46,-57.44"/>
</g>
<!-- 3_5&#45;&#45;7_2 -->
<g id="edge125" class="edge">
<title>3_5&#45;&#45;7_2</title>
<path fill="none" stroke="SteelBlue" stroke-width="0.2" d="M44.57,-72.23C50.4,-67.86 93.88,-35.25 100.64,-30.18"/>
</g>
<!-- 6_1 -->
<g id="node43" class="node">
<title>6_1</title>
<ellipse fill="SlateGray" stroke="SlateGray" cx="87.12" cy="-15.12" rx="0.72" ry="0.72"/>
</g>
<!-- 3_5&#45;&#45;6_1 -->
<g id="edge104" class="edge">
<title>3_5&#45;&#45;6_1</title>
<path fill="none" stroke="SteelBlue" stroke-width="0.2" d="M44.41,-72.07C48.78,-66.24 81.39,-22.76 86.46,-16"/>
</g>
<!-- 0_5 -->
<g id="node15" class="node">
<title>0_5</title>
<ellipse fill="SlateGray" stroke="SlateGray" cx="0.72" cy="-72.72" rx="0.72" ry="0.72"/>
</g>
<!-- 0_5&#45;&#45;5_5 -->
<g id="edge56" class="edge">
<title>0_5&#45;&#45;5_5</title>
<path fill="none" stroke="SteelBlue" stroke-width="0.2" d="M1.74,-72.72C9.81,-72.72 63.32,-72.72 71.64,-72.72"/>
</g>
<!-- 3_1 -->
<g id="node23" class="node">
<title>3_1</title>
<ellipse fill="SlateGray" stroke="SlateGray" cx="43.92" cy="-15.12" rx="0.72" ry="0.72"/>
</g>
<!-- 0_5&#45;&#45;3_1 -->
<g id="edge17" class="edge">
<title>0_5&#45;&#45;3_1</title>
<path fill="none" stroke="SteelBlue" stroke-width="0.2" d="M1.21,-72.07C5.58,-66.24 38.19,-22.76 43.26,-16"/>
</g>
<!-- 4_2 -->
<g id="node58" class="node">
<title>4_2</title>
<ellipse fill="SlateGray" stroke="SlateGray" cx="58.32" cy="-29.52" rx="0.72" ry="0.72"/>
</g>
<!-- 0_5&#45;&#45;4_2 -->
<g id="edge55" class="edge">
<title>0_5&#45;&#45;4_2</title>
<path fill="none" stroke="SteelBlue" stroke-width="0.2" d="M1.37,-72.23C7.2,-67.86 50.68,-35.25 57.44,-30.18"/>
</g>
<!-- 0_7&#45;&#45;5_7 -->
<g id="edge77" class="edge">
<title>0_7&#45;&#45;5_7</title>
<path fill="none" stroke="SteelBlue" stroke-width="0.2" d="M1.74,-101.52C9.81,-101.52 63.32,-101.52 71.64,-101.52"/>
</g>
<!-- 0_7&#45;&#45;4_4 -->
<g id="edge126" class="edge">
<title>0_7&#45;&#45;4_4</title>
<path fill="none" stroke="SteelBlue" stroke-width="0.2" d="M1.37,-101.03C7.2,-96.66 50.68,-64.05 57.44,-58.98"/>
</g>
<!-- 3_3 -->
<g id="node62" class="node">
<title>3_3</title>
<ellipse fill="SlateGray" stroke="SlateGray" cx="43.92" cy="-43.92" rx="0.72" ry="0.72"/>
</g>
<!-- 0_7&#45;&#45;3_3 -->
<g id="edge1" class="edge">
<title>0_7&#45;&#45;3_3</title>
<path fill="none" stroke="SteelBlue" stroke-width="0.2" d="M1.21,-100.87C5.58,-95.04 38.19,-51.56 43.26,-44.8"/>
</g>
<!-- 1_4 -->
<g id="node19" class="node">
<title>1_4</title>
<ellipse fill="SlateGray" stroke="SlateGray" cx="15.12" cy="-58.32" rx="0.72" ry="0.72"/>
</g>
<!-- 1_4&#45;&#45;5_7 -->
<g id="edge34" class="edge">
<title>1_4&#45;&#45;5_7</title>
<path fill="none" stroke="SteelBlue" stroke-width="0.2" d="M15.77,-58.81C21.6,-63.18 65.08,-95.79 71.84,-100.86"/>
</g>
<!-- 5_1 -->
<g id="node26" class="node">
<title>5_1</title>
<ellipse fill="SlateGray" stroke="SlateGray" cx="72.72" cy="-15.12" rx="0.72" ry="0.72"/>
</g>
<!-- 1_4&#45;&#45;5_1 -->
<g id="edge32" class="edge">
<title>1_4&#45;&#45;5_1</title>
<path fill="none" stroke="SteelBlue" stroke-width="0.2" d="M15.77,-57.83C21.6,-53.46 65.08,-20.85 71.84,-15.78"/>
</g>
<!-- 4_0 -->
<g id="node34" class="node">
<title>4_0</title>
<ellipse fill="SlateGray" stroke="SlateGray" cx="58.32" cy="-0.72" rx="0.72" ry="0.72"/>
</g>
<!-- 1_4&#45;&#45;4_0 -->
<g id="edge33" class="edge">
<title>1_4&#45;&#45;4_0</title>
<path fill="none" stroke="SteelBlue" stroke-width="0.2" d="M15.61,-57.67C19.98,-51.84 52.59,-8.36 57.66,-1.6"/>
</g>
<!-- 1_4&#45;&#45;6_4 -->
<g id="edge35" class="edge">
<title>1_4&#45;&#45;6_4</title>
<path fill="none" stroke="SteelBlue" stroke-width="0.2" d="M16.14,-58.32C24.21,-58.32 77.72,-58.32 86.04,-58.32"/>
</g>
<!-- 4_6 -->
<g id="node39" class="node">
<title>4_6</title>
<ellipse fill="SlateGray" stroke="SlateGray" cx="58.32" cy="-87.12" rx="0.72" ry="0.72"/>
</g>
<!-- 4_1&#45;&#45;4_6 -->
<g id="edge31" class="edge">
<title>4_1&#45;&#45;4_6</title>
<path fill="none" stroke="SteelBlue" stroke-width="0.2" d="M58.32,-16.14C58.32,-24.21 58.32,-77.72 58.32,-86.04"/>
</g>
<!-- 7_5 -->
<g id="node42" class="node">
<title>7_5</title>
<ellipse fill="SlateGray" stroke="SlateGray" cx="101.52" cy="-72.72" rx="0.72" ry="0.72"/>
</g>
<!-- 4_1&#45;&#45;7_5 -->
<g id="edge30" class="edge">
<title>4_1&#45;&#45;7_5</title>
<path fill="none" stroke="SteelBlue" stroke-width="0.2" d="M58.81,-15.77C63.18,-21.6 95.79,-65.08 100.86,-71.84"/>
</g>
<!-- 7_6 -->
<g id="node21" class="node">
<title>7_6</title>
<ellipse fill="SlateGray" stroke="SlateGray" cx="101.52" cy="-87.12" rx="0.72" ry="0.72"/>
</g>
<!-- 3_1&#45;&#45;3_6 -->
<g id="edge19" class="edge">
<title>3_1&#45;&#45;3_6</title>
<path fill="none" stroke="SteelBlue" stroke-width="0.2" d="M43.92,-16.14C43.92,-24.21 43.92,-77.72 43.92,-86.04"/>
</g>
<!-- 7_4 -->
<g id="node45" class="node">
<title>7_4</title>
<ellipse fill="SlateGray" stroke="SlateGray" cx="101.52" cy="-58.32" rx="0.72" ry="0.72"/>
</g>
<!-- 3_1&#45;&#45;7_4 -->
<g id="edge18" class="edge">
<title>3_1&#45;&#45;7_4</title>
<path fill="none" stroke="SteelBlue" stroke-width="0.2" d="M44.57,-15.61C50.4,-19.98 93.88,-52.59 100.64,-57.66"/>
</g>
<!-- 3_1&#45;&#45;6_5 -->
<g id="edge20" class="edge">
<title>3_1&#45;&#45;6_5</title>
<path fill="none" stroke="SteelBlue" stroke-width="0.2" d="M44.41,-15.77C48.78,-21.6 81.39,-65.08 86.46,-71.84"/>
</g>
<!-- 5_1&#45;&#45;5_6 -->
<g id="edge101" class="edge">
<title>5_1&#45;&#45;5_6</title>
<path fill="none" stroke="SteelBlue" stroke-width="0.2" d="M72.72,-16.14C72.72,-24.21 72.72,-77.72 72.72,-86.04"/>
</g>
<!-- 0_1 -->
<g id="node27" class="node">
<title>0_1</title>
<ellipse fill="SlateGray" stroke="SlateGray" cx="0.72" cy="-15.12" rx="0.72" ry="0.72"/>
</g>
<!-- 0_1&#45;&#45;3_5 -->
<g id="edge98" class="edge">
<title>0_1&#45;&#45;3_5</title>
<path fill="none" stroke="SteelBlue" stroke-width="0.2" d="M1.21,-15.77C5.58,-21.6 38.19,-65.08 43.26,-71.84"/>
</g>
<!-- 0_1&#45;&#45;5_1 -->
<g id="edge99" class="edge">
<title>0_1&#45;&#45;5_1</title>
<path fill="none" stroke="SteelBlue" stroke-width="0.2" d="M1.74,-15.12C9.81,-15.12 63.32,-15.12 71.64,-15.12"/>
</g>
<!-- 0_1&#45;&#45;4_4 -->
<g id="edge97" class="edge">
<title>0_1&#45;&#45;4_4</title>
<path fill="none" stroke="SteelBlue" stroke-width="0.2" d="M1.37,-15.61C7.2,-19.98 50.68,-52.59 57.44,-57.66"/>
</g>
<!-- 0_6 -->
<g id="node48" class="node">
<title>0_6</title>
<ellipse fill="SlateGray" stroke="SlateGray" cx="0.72" cy="-87.12" rx="0.72" ry="0.72"/>
</g>
<!-- 0_1&#45;&#45;0_6 -->
<g id="edge45" class="edge">
<title>0_1&#45;&#45;0_6</title>
<path fill="none" stroke="SteelBlue" stroke-width="0.2" d="M0.72,-16.14C0.72,-24.21 0.72,-77.72 0.72,-86.04"/>
</g>
<!-- 2_5 -->
<g id="node29" class="node">
<title>2_5</title>
<ellipse fill="SlateGray" stroke="SlateGray" cx="29.52" cy="-72.72" rx="0.72" ry="0.72"/>
</g>
<!-- 2_5&#45;&#45;6_2 -->
<g id="edge128" class="edge">
<title>2_5&#45;&#45;6_2</title>
<path fill="none" stroke="SteelBlue" stroke-width="0.2" d="M30.17,-72.23C36,-67.86 79.48,-35.25 86.24,-30.18"/>
</g>
<!-- 2_5&#45;&#45;5_1 -->
<g id="edge102" class="edge">
<title>2_5&#45;&#45;5_1</title>
<path fill="none" stroke="SteelBlue" stroke-width="0.2" d="M30.01,-72.07C34.38,-66.24 66.99,-22.76 72.06,-16"/>
</g>
<!-- 2_5&#45;&#45;7_5 -->
<g id="edge107" class="edge">
<title>2_5&#45;&#45;7_5</title>
<path fill="none" stroke="SteelBlue" stroke-width="0.2" d="M30.54,-72.72C38.61,-72.72 92.12,-72.72 100.44,-72.72"/>
</g>
<!-- 1_6 -->
<g id="node30" class="node">
<title>1_6</title>
<ellipse fill="SlateGray" stroke="SlateGray" cx="15.12" cy="-87.12" rx="0.72" ry="0.72"/>
</g>
<!-- 1_6&#45;&#45;5_3 -->
<g id="edge27" class="edge">
<title>1_6&#45;&#45;5_3</title>
<path fill="none" stroke="SteelBlue" stroke-width="0.2" d="M15.77,-86.63C21.6,-82.26 65.08,-49.65 71.84,-44.58"/>
</g>
<!-- 1_6&#45;&#45;6_6 -->
<g id="edge25" class="edge">
<title>1_6&#45;&#45;6_6</title>
<path fill="none" stroke="SteelBlue" stroke-width="0.2" d="M16.14,-87.12C24.21,-87.12 77.72,-87.12 86.04,-87.12"/>
</g>
<!-- 1_6&#45;&#45;4_2 -->
<g id="edge26" class="edge">
<title>1_6&#45;&#45;4_2</title>
<path fill="none" stroke="SteelBlue" stroke-width="0.2" d="M15.61,-86.47C19.98,-80.64 52.59,-37.16 57.66,-30.4"/>
</g>
<!-- 2_6 -->
<g id="node31" class="node">
<title>2_6</title>
<ellipse fill="SlateGray" stroke="SlateGray" cx="29.52" cy="-87.12" rx="0.72" ry="0.72"/>
</g>
<!-- 2_6&#45;&#45;6_3 -->
<g id="edge61" class="edge">
<title>2_6&#45;&#45;6_3</title>
<path fill="none" stroke="SteelBlue" stroke-width="0.2" d="M30.17,-86.63C36,-82.26 79.48,-49.65 86.24,-44.58"/>
</g>
<!-- 2_6&#45;&#45;5_2 -->
<g id="edge90" class="edge">
<title>2_6&#45;&#45;5_2</title>
<path fill="none" stroke="SteelBlue" stroke-width="0.2" d="M30.01,-86.47C34.38,-80.64 66.99,-37.16 72.06,-30.4"/>
</g>
<!-- 2_6&#45;&#45;7_6 -->
<g id="edge64" class="edge">
<title>2_6&#45;&#45;7_6</title>
<path fill="none" stroke="SteelBlue" stroke-width="0.2" d="M30.54,-87.12C38.61,-87.12 92.12,-87.12 100.44,-87.12"/>
</g>
<!-- 3_7 -->
<g id="node32" class="node">
<title>3_7</title>
<ellipse fill="SlateGray" stroke="SlateGray" cx="43.92" cy="-101.52" rx="0.72" ry="0.72"/>
</g>
<!-- 3_7&#45;&#45;6_3 -->
<g id="edge58" class="edge">
<title>3_7&#45;&#45;6_3</title>
<path fill="none" stroke="SteelBlue" stroke-width="0.2" d="M44.41,-100.87C48.78,-95.04 81.39,-51.56 86.46,-44.8"/>
</g>
<!-- 3_7&#45;&#45;7_4 -->
<g id="edge50" class="edge">
<title>3_7&#45;&#45;7_4</title>
<path fill="none" stroke="SteelBlue" stroke-width="0.2" d="M44.57,-101.03C50.4,-96.66 93.88,-64.05 100.64,-58.98"/>
</g>
<!-- 7_0 -->
<g id="node36" class="node">
<title>7_0</title>
<ellipse fill="SlateGray" stroke="SlateGray" cx="101.52" cy="-0.72" rx="0.72" ry="0.72"/>
</g>
<!-- 4_4&#45;&#45;7_0 -->
<g id="edge89" class="edge">
<title>4_4&#45;&#45;7_0</title>
<path fill="none" stroke="SteelBlue" stroke-width="0.2" d="M58.81,-57.67C63.18,-51.84 95.79,-8.36 100.86,-1.6"/>
</g>
<!-- 4_0&#45;&#45;4_5 -->
<g id="edge67" class="edge">
<title>4_0&#45;&#45;4_5</title>
<path fill="none" stroke="SteelBlue" stroke-width="0.2" d="M58.32,-1.74C58.32,-9.81 58.32,-63.32 58.32,-71.64"/>
</g>
<!-- 4_0&#45;&#45;7_4 -->
<g id="edge52" class="edge">
<title>4_0&#45;&#45;7_4</title>
<path fill="none" stroke="SteelBlue" stroke-width="0.2" d="M58.81,-1.37C63.18,-7.2 95.79,-50.68 100.86,-57.44"/>
</g>
<!-- 7_7 -->
<g id="node63" class="node">
<title>7_7</title>
<ellipse fill="SlateGray" stroke="SlateGray" cx="101.52" cy="-101.52" rx="0.72" ry="0.72"/>
</g>
<!-- 7_2&#45;&#45;7_7 -->
<g id="edge122" class="edge">
<title>7_2&#45;&#45;7_7</title>
<path fill="none" stroke="SteelBlue" stroke-width="0.2" d="M101.52,-30.54C101.52,-38.61 101.52,-92.12 101.52,-100.44"/>
</g>
<!-- 7_0&#45;&#45;7_5 -->
<g id="edge87" class="edge">
<title>7_0&#45;&#45;7_5</title>
<path fill="none" stroke="SteelBlue" stroke-width="0.2" d="M101.52,-1.74C101.52,-9.81 101.52,-63.32 101.52,-71.64"/>
</g>
<!-- 3_2 -->
<g id="node37" class="node">
<title>3_2</title>
<ellipse fill="SlateGray" stroke="SlateGray" cx="43.92" cy="-29.52" rx="0.72" ry="0.72"/>
</g>
<!-- 3_2&#45;&#45;3_7 -->
<g id="edge69" class="edge">
<title>3_2&#45;&#45;3_7</title>
<path fill="none" stroke="SteelBlue" stroke-width="0.2" d="M43.92,-30.54C43.92,-38.61 43.92,-92.12 43.92,-100.44"/>
</g>
<!-- 3_2&#45;&#45;7_5 -->
<g id="edge108" class="edge">
<title>3_2&#45;&#45;7_5</title>
<path fill="none" stroke="SteelBlue" stroke-width="0.2" d="M44.57,-30.01C50.4,-34.38 93.88,-66.99 100.64,-72.06"/>
</g>
<!-- 3_2&#45;&#45;6_6 -->
<g id="edge120" class="edge">
<title>3_2&#45;&#45;6_6</title>
<path fill="none" stroke="SteelBlue" stroke-width="0.2" d="M44.41,-30.17C48.78,-36 81.39,-79.48 86.46,-86.24"/>
</g>
<!-- 2_4 -->
<g id="node38" class="node">
<title>2_4</title>
<ellipse fill="SlateGray" stroke="SlateGray" cx="29.52" cy="-58.32" rx="0.72" ry="0.72"/>
</g>
<!-- 2_4&#45;&#45;6_7 -->
<g id="edge74" class="edge">
<title>2_4&#45;&#45;6_7</title>
<path fill="none" stroke="SteelBlue" stroke-width="0.2" d="M30.17,-58.81C36,-63.18 79.48,-95.79 86.24,-100.86"/>
</g>
<!-- 2_4&#45;&#45;6_1 -->
<g id="edge103" class="edge">
<title>2_4&#45;&#45;6_1</title>
<path fill="none" stroke="SteelBlue" stroke-width="0.2" d="M30.17,-57.83C36,-53.46 79.48,-20.85 86.24,-15.78"/>
</g>
<!-- 2_4&#45;&#45;7_4 -->
<g id="edge51" class="edge">
<title>2_4&#45;&#45;7_4</title>
<path fill="none" stroke="SteelBlue" stroke-width="0.2" d="M30.54,-58.32C38.61,-58.32 92.12,-58.32 100.44,-58.32"/>
</g>
<!-- 5_0 -->
<g id="node52" class="node">
<title>5_0</title>
<ellipse fill="SlateGray" stroke="SlateGray" cx="72.72" cy="-0.72" rx="0.72" ry="0.72"/>
</g>
<!-- 2_4&#45;&#45;5_0 -->
<g id="edge48" class="edge">
<title>2_4&#45;&#45;5_0</title>
<path fill="none" stroke="SteelBlue" stroke-width="0.2" d="M30.01,-57.67C34.38,-51.84 66.99,-8.36 72.06,-1.6"/>
</g>
<!-- 4_6&#45;&#45;7_2 -->
<g id="edge92" class="edge">
<title>4_6&#45;&#45;7_2</title>
<path fill="none" stroke="SteelBlue" stroke-width="0.2" d="M58.81,-86.47C63.18,-80.64 95.79,-37.16 100.86,-30.4"/>
</g>
<!-- 2_1 -->
<g id="node40" class="node">
<title>2_1</title>
<ellipse fill="SlateGray" stroke="SlateGray" cx="29.52" cy="-15.12" rx="0.72" ry="0.72"/>
</g>
<!-- 2_1&#45;&#45;5_5 -->
<g id="edge109" class="edge">
<title>2_1&#45;&#45;5_5</title>
<path fill="none" stroke="SteelBlue" stroke-width="0.2" d="M30.01,-15.77C34.38,-21.6 66.99,-65.08 72.06,-71.84"/>
</g>
<!-- 2_1&#45;&#45;2_6 -->
<g id="edge91" class="edge">
<title>2_1&#45;&#45;2_6</title>
<path fill="none" stroke="SteelBlue" stroke-width="0.2" d="M29.52,-16.14C29.52,-24.21 29.52,-77.72 29.52,-86.04"/>
</g>
<!-- 7_1 -->
<g id="node55" class="node">
<title>7_1</title>
<ellipse fill="SlateGray" stroke="SlateGray" cx="101.52" cy="-15.12" rx="0.72" ry="0.72"/>
</g>
<!-- 2_1&#45;&#45;7_1 -->
<g id="edge100" class="edge">
<title>2_1&#45;&#45;7_1</title>
<path fill="none" stroke="SteelBlue" stroke-width="0.2" d="M30.54,-15.12C38.61,-15.12 92.12,-15.12 100.44,-15.12"/>
</g>
<!-- 2_1&#45;&#45;6_4 -->
<g id="edge111" class="edge">
<title>2_1&#45;&#45;6_4</title>
<path fill="none" stroke="SteelBlue" stroke-width="0.2" d="M30.17,-15.61C36,-19.98 79.48,-52.59 86.24,-57.66"/>
</g>
<!-- 0_3 -->
<g id="node41" class="node">
<title>0_3</title>
<ellipse fill="SlateGray" stroke="SlateGray" cx="0.72" cy="-43.92" rx="0.72" ry="0.72"/>
</g>
<!-- 0_3&#45;&#45;5_3 -->
<g id="edge10" class="edge">
<title>0_3&#45;&#45;5_3</title>
<path fill="none" stroke="SteelBlue" stroke-width="0.2" d="M1.74,-43.92C9.81,-43.92 63.32,-43.92 71.64,-43.92"/>
</g>
<!-- 0_3&#45;&#45;3_7 -->
<g id="edge11" class="edge">
<title>0_3&#45;&#45;3_7</title>
<path fill="none" stroke="SteelBlue" stroke-width="0.2" d="M1.21,-44.57C5.58,-50.4 38.19,-93.88 43.26,-100.64"/>
</g>
<!-- 0_3&#45;&#45;4_0 -->
<g id="edge12" class="edge">
<title>0_3&#45;&#45;4_0</title>
<path fill="none" stroke="SteelBlue" stroke-width="0.2" d="M1.37,-43.43C7.2,-39.06 50.68,-6.45 57.44,-1.38"/>
</g>
<!-- 0_3&#45;&#45;4_6 -->
<g id="edge9" class="edge">
<title>0_3&#45;&#45;4_6</title>
<path fill="none" stroke="SteelBlue" stroke-width="0.2" d="M1.37,-44.41C7.2,-48.78 50.68,-81.39 57.44,-86.46"/>
</g>
<!-- 6_1&#45;&#45;6_6 -->
<g id="edge105" class="edge">
<title>6_1&#45;&#45;6_6</title>
<path fill="none" stroke="SteelBlue" stroke-width="0.2" d="M87.12,-16.14C87.12,-24.21 87.12,-77.72 87.12,-86.04"/>
</g>
<!-- 4_5&#45;&#45;7_1 -->
<g id="edge82" class="edge">
<title>4_5&#45;&#45;7_1</title>
<path fill="none" stroke="SteelBlue" stroke-width="0.2" d="M58.81,-72.07C63.18,-66.24 95.79,-22.76 100.86,-16"/>
</g>
<!-- 2_0 -->
<g id="node46" class="node">
<title>2_0</title>
<ellipse fill="SlateGray" stroke="SlateGray" cx="29.52" cy="-0.72" rx="0.72" ry="0.72"/>
</g>
<!-- 2_0&#45;&#45;6_3 -->
<g id="edge60" class="edge">
<title>2_0&#45;&#45;6_3</title>
<path fill="none" stroke="SteelBlue" stroke-width="0.2" d="M30.17,-1.21C36,-5.58 79.48,-38.19 86.24,-43.26"/>
</g>
<!-- 2_0&#45;&#45;5_4 -->
<g id="edge39" class="edge">
<title>2_0&#45;&#45;5_4</title>
<path fill="none" stroke="SteelBlue" stroke-width="0.2" d="M30.01,-1.37C34.38,-7.2 66.99,-50.68 72.06,-57.44"/>
</g>
<!-- 2_0&#45;&#45;2_5 -->
<g id="edge118" class="edge">
<title>2_0&#45;&#45;2_5</title>
<path fill="none" stroke="SteelBlue" stroke-width="0.2" d="M29.52,-1.74C29.52,-9.81 29.52,-63.32 29.52,-71.64"/>
</g>
<!-- 2_0&#45;&#45;7_0 -->
<g id="edge88" class="edge">
<title>2_0&#45;&#45;7_0</title>
<path fill="none" stroke="SteelBlue" stroke-width="0.2" d="M30.54,-0.72C38.61,-0.72 92.12,-0.72 100.44,-0.72"/>
</g>
<!-- 2_7&#45;&#45;5_3 -->
<g id="edge66" class="edge">
<title>2_7&#45;&#45;5_3</title>
<path fill="none" stroke="SteelBlue" stroke-width="0.2" d="M30.01,-100.87C34.38,-95.04 66.99,-51.56 72.06,-44.8"/>
</g>
<!-- 2_7&#45;&#45;6_4 -->
<g id="edge110" class="edge">
<title>2_7&#45;&#45;6_4</title>
<path fill="none" stroke="SteelBlue" stroke-width="0.2" d="M30.17,-101.03C36,-96.66 79.48,-64.05 86.24,-58.98"/>
</g>
<!-- 2_7&#45;&#45;7_7 -->
<g id="edge121" class="edge">
<title>2_7&#45;&#45;7_7</title>
<path fill="none" stroke="SteelBlue" stroke-width="0.2" d="M30.54,-101.52C38.61,-101.52 92.12,-101.52 100.44,-101.52"/>
</g>
<!-- 0_6&#45;&#45;5_6 -->
<g id="edge42" class="edge">
<title>0_6&#45;&#45;5_6</title>
<path fill="none" stroke="SteelBlue" stroke-width="0.2" d="M1.74,-87.12C9.81,-87.12 63.32,-87.12 71.64,-87.12"/>
</g>
<!-- 0_6&#45;&#45;3_2 -->
<g id="edge43" class="edge">
<title>0_6&#45;&#45;3_2</title>
<path fill="none" stroke="SteelBlue" stroke-width="0.2" d="M1.21,-86.47C5.58,-80.64 38.19,-37.16 43.26,-30.4"/>
</g>
<!-- 4_3 -->
<g id="node54" class="node">
<title>4_3</title>
<ellipse fill="SlateGray" stroke="SlateGray" cx="58.32" cy="-43.92" rx="0.72" ry="0.72"/>
</g>
<!-- 0_6&#45;&#45;4_3 -->
<g id="edge44" class="edge">
<title>0_6&#45;&#45;4_3</title>
<path fill="none" stroke="SteelBlue" stroke-width="0.2" d="M1.37,-86.63C7.2,-82.26 50.68,-49.65 57.44,-44.58"/>
</g>
<!-- 1_2 -->
<g id="node49" class="node">
<title>1_2</title>
<ellipse fill="SlateGray" stroke="SlateGray" cx="15.12" cy="-29.52" rx="0.72" ry="0.72"/>
</g>
<!-- 1_2&#45;&#45;6_2 -->
<g id="edge70" class="edge">
<title>1_2&#45;&#45;6_2</title>
<path fill="none" stroke="SteelBlue" stroke-width="0.2" d="M16.14,-29.52C24.21,-29.52 77.72,-29.52 86.04,-29.52"/>
</g>
<!-- 1_2&#45;&#45;5_5 -->
<g id="edge72" class="edge">
<title>1_2&#45;&#45;5_5</title>
<path fill="none" stroke="SteelBlue" stroke-width="0.2" d="M15.77,-30.01C21.6,-34.38 65.08,-66.99 71.84,-72.06"/>
</g>
<!-- 1_2&#45;&#45;4_6 -->
<g id="edge73" class="edge">
<title>1_2&#45;&#45;4_6</title>
<path fill="none" stroke="SteelBlue" stroke-width="0.2" d="M15.61,-30.17C19.98,-36 52.59,-79.48 57.66,-86.24"/>
</g>
<!-- 1_7 -->
<g id="node60" class="node">
<title>1_7</title>
<ellipse fill="SlateGray" stroke="SlateGray" cx="15.12" cy="-101.52" rx="0.72" ry="0.72"/>
</g>
<!-- 1_2&#45;&#45;1_7 -->
<g id="edge71" class="edge">
<title>1_2&#45;&#45;1_7</title>
<path fill="none" stroke="SteelBlue" stroke-width="0.2" d="M15.12,-30.54C15.12,-38.61 15.12,-92.12 15.12,-100.44"/>
</g>
<!-- 3_4 -->
<g id="node50" class="node">
<title>3_4</title>
<ellipse fill="SlateGray" stroke="SlateGray" cx="43.92" cy="-58.32" rx="0.72" ry="0.72"/>
</g>
<!-- 3_4&#45;&#45;6_0 -->
<g id="edge84" class="edge">
<title>3_4&#45;&#45;6_0</title>
<path fill="none" stroke="SteelBlue" stroke-width="0.2" d="M44.41,-57.67C48.78,-51.84 81.39,-8.36 86.46,-1.6"/>
</g>
<!-- 3_4&#45;&#45;7_1 -->
<g id="edge86" class="edge">
<title>3_4&#45;&#45;7_1</title>
<path fill="none" stroke="SteelBlue" stroke-width="0.2" d="M44.57,-57.83C50.4,-53.46 93.88,-20.85 100.64,-15.78"/>
</g>
<!-- 3_4&#45;&#45;7_7 -->
<g id="edge83" class="edge">
<title>3_4&#45;&#45;7_7</title>
<path fill="none" stroke="SteelBlue" stroke-width="0.2" d="M44.57,-58.81C50.4,-63.18 93.88,-95.79 100.64,-100.86"/>
</g>
<!-- 4_7&#45;&#45;7_3 -->
<g id="edge15" class="edge">
<title>4_7&#45;&#45;7_3</title>
<path fill="none" stroke="SteelBlue" stroke-width="0.2" d="M58.81,-100.87C63.18,-95.04 95.79,-51.56 100.86,-44.8"/>
</g>
<!-- 5_0&#45;&#45;5_5 -->
<g id="edge49" class="edge">
<title>5_0&#45;&#45;5_5</title>
<path fill="none" stroke="SteelBlue" stroke-width="0.2" d="M72.72,-1.74C72.72,-9.81 72.72,-63.32 72.72,-71.64"/>
</g>
<!-- 1_1 -->
<g id="node53" class="node">
<title>1_1</title>
<ellipse fill="SlateGray" stroke="SlateGray" cx="15.12" cy="-15.12" rx="0.72" ry="0.72"/>
</g>
<!-- 1_1&#45;&#45;5_4 -->
<g id="edge38" class="edge">
<title>1_1&#45;&#45;5_4</title>
<path fill="none" stroke="SteelBlue" stroke-width="0.2" d="M15.77,-15.61C21.6,-19.98 65.08,-52.59 71.84,-57.66"/>
</g>
<!-- 1_1&#45;&#45;1_6 -->
<g id="edge24" class="edge">
<title>1_1&#45;&#45;1_6</title>
<path fill="none" stroke="SteelBlue" stroke-width="0.2" d="M15.12,-16.14C15.12,-24.21 15.12,-77.72 15.12,-86.04"/>
</g>
<!-- 1_1&#45;&#45;6_1 -->
<g id="edge96" class="edge">
<title>1_1&#45;&#45;6_1</title>
<path fill="none" stroke="SteelBlue" stroke-width="0.2" d="M16.14,-15.12C24.21,-15.12 77.72,-15.12 86.04,-15.12"/>
</g>
<!-- 1_1&#45;&#45;4_5 -->
<g id="edge81" class="edge">
<title>1_1&#45;&#45;4_5</title>
<path fill="none" stroke="SteelBlue" stroke-width="0.2" d="M15.61,-15.77C19.98,-21.6 52.59,-65.08 57.66,-71.84"/>
</g>
<!-- 4_3&#45;&#45;7_7 -->
<g id="edge114" class="edge">
<title>4_3&#45;&#45;7_7</title>
<path fill="none" stroke="SteelBlue" stroke-width="0.2" d="M58.81,-44.57C63.18,-50.4 95.79,-93.88 100.86,-100.64"/>
</g>
<!-- 7_1&#45;&#45;7_6 -->
<g id="edge62" class="edge">
<title>7_1&#45;&#45;7_6</title>
<path fill="none" stroke="SteelBlue" stroke-width="0.2" d="M101.52,-16.14C101.52,-24.21 101.52,-77.72 101.52,-86.04"/>
</g>
<!-- 0_0 -->
<g id="node57" class="node">
<title>0_0</title>
<ellipse fill="SlateGray" stroke="SlateGray" cx="0.72" cy="-0.72" rx="0.72" ry="0.72"/>
</g>
<!-- 0_0&#45;&#45;0_5 -->
<g id="edge57" class="edge">
<title>0_0&#45;&#45;0_5</title>
<path fill="none" stroke="SteelBlue" stroke-width="0.2" d="M0.72,-1.74C0.72,-9.81 0.72,-63.32 0.72,-71.64"/>
</g>
<!-- 0_0&#45;&#45;3_4 -->
<g id="edge85" class="edge">
<title>0_0&#45;&#45;3_4</title>
<path fill="none" stroke="SteelBlue" stroke-width="0.2" d="M1.21,-1.37C5.58,-7.2 38.19,-50.68 43.26,-57.44"/>
</g>
<!-- 0_0&#45;&#45;5_0 -->
<g id="edge47" class="edge">
<title>0_0&#45;&#45;5_0</title>
<path fill="none" stroke="SteelBlue" stroke-width="0.2" d="M1.74,-0.72C9.81,-0.72 63.32,-0.72 71.64,-0.72"/>
</g>
<!-- 0_0&#45;&#45;4_3 -->
<g id="edge113" class="edge">
<title>0_0&#45;&#45;4_3</title>
<path fill="none" stroke="SteelBlue" stroke-width="0.2" d="M1.37,-1.21C7.2,-5.58 50.68,-38.19 57.44,-43.26"/>
</g>
<!-- 4_2&#45;&#45;7_6 -->
<g id="edge63" class="edge">
<title>4_2&#45;&#45;7_6</title>
<path fill="none" stroke="SteelBlue" stroke-width="0.2" d="M58.81,-30.17C63.18,-36 95.79,-79.48 100.86,-86.24"/>
</g>
<!-- 4_2&#45;&#45;4_7 -->
<g id="edge16" class="edge">
<title>4_2&#45;&#45;4_7</title>
<path fill="none" stroke="SteelBlue" stroke-width="0.2" d="M58.32,-30.54C58.32,-38.61 58.32,-92.12 58.32,-100.44"/>
</g>
<!-- 1_7&#45;&#45;5_4 -->
<g id="edge37" class="edge">
<title>1_7&#45;&#45;5_4</title>
<path fill="none" stroke="SteelBlue" stroke-width="0.2" d="M15.77,-101.03C21.6,-96.66 65.08,-64.05 71.84,-58.98"/>
</g>
<!-- 1_7&#45;&#45;6_7 -->
<g id="edge75" class="edge">
<title>1_7&#45;&#45;6_7</title>
<path fill="none" stroke="SteelBlue" stroke-width="0.2" d="M16.14,-101.52C24.21,-101.52 77.72,-101.52 86.04,-101.52"/>
</g>
<!-- 1_7&#45;&#45;4_3 -->
<g id="edge115" class="edge">
<title>1_7&#45;&#45;4_3</title>
<path fill="none" stroke="SteelBlue" stroke-width="0.2" d="M15.61,-100.87C19.98,-95.04 52.59,-51.56 57.66,-44.8"/>
</g>
<!-- 3_3&#45;&#45;7_6 -->
<g id="edge3" class="edge">
<title>3_3&#45;&#45;7_6</title>
<path fill="none" stroke="SteelBlue" stroke-width="0.2" d="M44.57,-44.41C50.4,-48.78 93.88,-81.39 100.64,-86.46"/>
</g>
<!-- 3_3&#45;&#45;6_7 -->
<g id="edge4" class="edge">
<title>3_3&#45;&#45;6_7</title>
<path fill="none" stroke="SteelBlue" stroke-width="0.2" d="M44.41,-44.57C48.78,-50.4 81.39,-93.88 86.46,-100.64"/>
</g>
<!-- 3_3&#45;&#45;7_0 -->
<g id="edge2" class="edge">
<title>3_3&#45;&#45;7_0</title>
<path fill="none" stroke="SteelBlue" stroke-width="0.2" d="M44.57,-43.43C50.4,-39.06 93.88,-6.45 100.64,-1.38"/>
</g>
<!-- 1_3 -->
<g id="node64" class="node">
<title>1_3</title>
<ellipse fill="SlateGray" stroke="SlateGray" cx="15.12" cy="-43.92" rx="0.72" ry="0.72"/>
</g>
<!-- 1_3&#45;&#45;6_3 -->
<g id="edge59" class="edge">
<title>1_3&#45;&#45;6_3</title>
<path fill="none" stroke="SteelBlue" stroke-width="0.2" d="M16.14,-43.92C24.21,-43.92 77.72,-43.92 86.04,-43.92"/>
</g>
<!-- 1_3&#45;&#45;5_6 -->
<g id="edge68" class="edge">
<title>1_3&#45;&#45;5_6</title>
<path fill="none" stroke="SteelBlue" stroke-width="0.2" d="M15.77,-44.41C21.6,-48.78 65.08,-81.39 71.84,-86.46"/>
</g>
<!-- 1_3&#45;&#45;4_7 -->
<g id="edge14" class="edge">
<title>1_3&#45;&#45;4_7</title>
<path fill="none" stroke="SteelBlue" stroke-width="0.2" d="M15.61,-44.57C19.98,-50.4 52.59,-93.88 57.66,-100.64"/>
</g>
<!-- 1_3&#45;&#45;5_0 -->
<g id="edge46" class="edge">
<title>1_3&#45;&#45;5_0</title>
<path fill="none" stroke="SteelBlue" stroke-width="0.2" d="M15.77,-43.43C21.6,-39.06 65.08,-6.45 71.84,-1.38"/>
</g>
</g>
</svg>
