<svg width="110pt" height="87pt"
 viewBox="0.00 0.00 110.00 87.00" xmlns="http://www.w3.org/2000/svg" xmlns:xlink="http://www.w3.org/1999/xlink">
<g id="graph0" class="graph" transform="scale(1 1) rotate(0) translate(4 83.2)">
<polygon fill="none" stroke="none" points="-4,4 -4,-83.2 105.6,-83.2 105.6,4 -4,4"/>
<!-- 1_0 -->
<g id="node1" class="node">
<title>1_0</title>
<ellipse fill="SteelBlue" stroke="Black" cx="10.8" cy="-10.8" rx="10.8" ry="10.8"/>
</g>
<!-- 1_2 -->
<g id="node2" class="node">
<title>1_2</title>
<ellipse fill="SteelBlue" stroke="Black" cx="50.8" cy="-10.8" rx="10.8" ry="10.8"/>
</g>
<!-- 0_0 -->
<g id="node3" class="node">
<title>0_0</title>
<ellipse fill="SteelBlue" stroke="Black" cx="30.8" cy="-68.4" rx="10.8" ry="10.8"/>
</g>
<!-- 0_0&#45;&#45;1_0 -->
<g id="edge4" class="edge">
<title>0_0&#45;&#45;1_0</title>
<path fill="none" stroke="SteelBlue" stroke-width="2" d="M27.32,-57.72C23.65,-47.51 17.9,-31.54 14.24,-21.37"/>
</g>
<!-- 0_0&#45;&#45;1_2 -->
<g id="edge5" class="edge">
<title>0_0&#45;&#45;1_2</title>
<path fill="none" stroke="SteelBlue" stroke-width="2" d="M34.28,-57.72C37.95,-47.51 43.7,-31.54 47.36,-21.37"/>
</g>
<!-- 1_1 -->
<g id="node5" class="node">
<title>1_1</title>
<ellipse fill="SteelBlue" stroke="Black" cx="90.8" cy="-10.8" rx="10.8" ry="10.8"/>
</g>
<!-- 0_0&#45;&#45;1_1 -->
<g id="edge6" class="edge">
<title>0_0&#45;&#45;1_1</title>
<path fill="none" stroke="SteelBlue" stroke-width="2" d="M38.16,-60.58C49.67,-49.91 71.83,-29.38 83.38,-18.67"/>
</g>
<!-- 0_1 -->
<g id="node4" class="node">
<title>0_1</title>
<ellipse fill="SteelBlue" stroke="Black" cx="70.8" cy="-68.4" rx="10.8" ry="10.8"/>
</g>
<!-- 0_1&#45;&#45;1_0 -->
<g id="edge2" class="edge">
<title>0_1&#45;&#45;1_0</title>
<path fill="none" stroke="SteelBlue" stroke-width="2" d="M63.44,-60.58C51.93,-49.91 29.77,-29.38 18.22,-18.67"/>
</g>
<!-- 0_1&#45;&#45;1_2 -->
<g id="edge1" class="edge">
<title>0_1&#45;&#45;1_2</title>
<path fill="none" stroke="SteelBlue" stroke-width="2" d="M67.32,-57.72C63.65,-47.51 57.9,-31.54 54.24,-21.37"/>
</g>
<!-- 0_1&#45;&#45;1_1 -->
<g id="edge3" class="edge">
<title>0_1&#45;&#45;1_1</title>
<path fill="none" stroke="SteelBlue" stroke-width="2" d="M74.28,-57.72C77.95,-47.51 83.7,-31.54 87.36,-21.37"/>
</g>
</g>
</svg>
